<?xml version="1.0" encoding="UTF-8" standalone="no"?>
<svg
   xmlns:dc="http://purl.org/dc/elements/1.1/"
   xmlns:cc="http://creativecommons.org/ns#"
   xmlns:rdf="http://www.w3.org/1999/02/22-rdf-syntax-ns#"
   xmlns:svg="http://www.w3.org/2000/svg"
   xmlns="http://www.w3.org/2000/svg"
   xmlns:xlink="http://www.w3.org/1999/xlink"
   xmlns:sodipodi="http://sodipodi.sourceforge.net/DTD/sodipodi-0.dtd"
   xmlns:inkscape="http://www.inkscape.org/namespaces/inkscape"
   version="1.1"
   id="Layer_1"
   x="0px"
   y="0px"
   viewBox="0 0 500 500"
   style="enable-background:new 0 0 500 500;"
   sodipodi:docname="science-4496467.svg"
   inkscape:version="0.92.4 (5da689c313, 2019-01-14)">
  <metadata
     id="metadata163">
    <rdf:RDF>
      <cc:Work
         rdf:about="">
        <dc:format>image/svg+xml</dc:format>
        <dc:type
           rdf:resource="http://purl.org/dc/dcmitype/StillImage" />
      </cc:Work>
    </rdf:RDF>
  </metadata>
  <defs
     id="defs161" />
  <sodipodi:namedview
     pagecolor="#ffffff"
     bordercolor="#666666"
     borderopacity="1"
     objecttolerance="10"
     gridtolerance="10"
     guidetolerance="10"
     inkscape:pageopacity="0"
     inkscape:pageshadow="2"
     inkscape:window-width="3840"
     inkscape:window-height="1906"
     id="namedview159"
     showgrid="false"
     inkscape:zoom="2.71"
     inkscape:cx="194.35975"
     inkscape:cy="251.10701"
     inkscape:window-x="0"
     inkscape:window-y="62"
     inkscape:window-maximized="1"
     inkscape:current-layer="Layer_1" />
  <style
     type="text/css"
     id="style2"> .st0{fill:#DBB707;} .st1{fill:#1E4C4C;} .st2{fill:#CCE4C4;} .st3{opacity:0.2;fill:#1E4C4C;} .st4{opacity:0.6;fill-rule:evenodd;clip-rule:evenodd;fill:#1E4C4C;} .st5{fill:#9EC10D;} .st6{fill:#FFFFFF;} .st7{clip-path:url(#SVGID_2_);fill-rule:evenodd;clip-rule:evenodd;fill:#9EC10D;} .st8{fill:#3F575A;} .st9{fill:#B6D049;} .st10{fill:#556A6D;} .st11{opacity:0.5;} .st12{opacity:0.1;} .st13{fill:#DDE1E2;} </style>
  <g
     id="g156"
     inkscape:export-xdpi="96"
     inkscape:export-ydpi="96">
    <g
       id="g26">
      <path
         class="st1"
         d="M457.8,343.4l-56.2,6.8l1.2,10l15.2-1.8v11.3h-47.5v-28.4c0-23.2,15.3-42.9,36.3-49.6l6.4,38.8l4.5-0.7 l3.1,7.6l18.4-3.1l0.5-8.2l4.5-0.7l-12.9-77.3l-6.8,1.1l-1.2-7.5l4.8-0.8l-1.1-6.7l-26.9,4.5l1.1,6.7l4.8-0.8l1.2,7.5l-6.8,1.1 l4.1,24.6c-27.7,7.9-48.1,33.4-48.1,63.6v42.6h80v-11.6h0.1v-16.1l22.4-2.7L457.8,343.4z"
         id="path6" />
      <rect
         x="406.7"
         y="250"
         transform="matrix(0.9865 -0.164 0.164 0.9865 -41.7094 73.2095)"
         class="st2"
         width="31.4"
         height="78.4"
         id="rect8" />
      <circle
         class="st1"
         cx="403.5"
         cy="284"
         r="9.8"
         id="circle10" />
      <path
         class="st2"
         d="M405.9,284c0-1.3-1.1-2.4-2.4-2.4s-2.4,1.1-2.4,2.4c0,1.3,1.1,2.4,2.4,2.4S405.9,285.3,405.9,284z"
         id="path12" />
      <polygon
         class="st1"
         points="423.8,241.6 406.2,244.6 407.3,251.9 424.9,249 "
         id="polygon14" />
      <polygon
         class="st1"
         points="417.8,329.7 439.9,326 439.4,334.2 421,337.3 "
         id="polygon16" />
      <polygon
         class="st3"
         points="431.5,247.9 415.5,250.5 428.3,327.8 445.2,325 "
         id="polygon18" />
      <polygon
         class="st4"
         points="418.1,358.4 437,356.4 437,361.8 418,362.7 "
         id="polygon20" />
      <path
         class="st1"
         d="M442.4,358.7c0-3.5-2.8-6.4-6.4-6.4c-3.5,0-6.4,2.8-6.4,6.4c0,3.5,2.8,6.4,6.4,6.4 C439.5,365,442.4,362.2,442.4,358.7z"
         id="path22" />
      <path
         class="st2"
         d="M438.4,358.7c0-1.3-1.1-2.4-2.4-2.4c-1.3,0-2.4,1.1-2.4,2.4s1.1,2.4,2.4,2.4 C437.4,361.1,438.4,360,438.4,358.7z"
         id="path24" />
    </g>
    <g
       id="g62">
      <g
         id="g30">
        <path
           class="st1"
           d="M39.9,273.5v98.8c0,2.5,2,4.5,4.5,4.5h78c2.5,0,4.5-2,4.5-4.5v-98.8c0-2.5-2-4.5-4.5-4.5h-78 C41.9,268.9,39.9,271,39.9,273.5z"
           id="path28" />
      </g>
      <g
         id="g36">
        <g
           id="g34">
          <rect
             x="47.2"
             y="276.8"
             class="st2"
             width="72.3"
             height="86.9"
             id="rect32" />
        </g>
      </g>
      <path
         class="st1"
         d="M87.1,370.1c0-2.1-1.7-3.8-3.8-3.8c-2.1,0-3.8,1.7-3.8,3.8c0,2.1,1.7,3.8,3.8,3.8 C85.5,373.8,87.1,372.1,87.1,370.1z"
         id="path38" />
      <rect
         x="59.6"
         y="320.6"
         class="st5"
         width="13.7"
         height="30.3"
         id="rect40" />
      <rect
         x="75.4"
         y="314.7"
         class="st5"
         width="13.7"
         height="36.1"
         id="rect42" />
      <rect
         x="91.2"
         y="308.7"
         class="st5"
         width="13.7"
         height="42.1"
         id="rect44" />
      <path
         class="st6"
         d="M148,320.3c0-16.4-13.3-29.7-29.7-29.7s-29.7,13.3-29.7,29.7c0,16.4,13.3,29.7,29.7,29.7S148,336.7,148,320.3 z"
         id="path46"
         style="fill:#b3b3b3" />
      <rect
         x="131.4"
         y="343.5"
         transform="matrix(0.8646 -0.5025 0.5025 0.8646 -160.338 116.265)"
         class="st6"
         width="8.2"
         height="24.2"
         id="rect48"
         style="fill:#b3b3b3" />
      <path
         class="st2"
         d="M139.5,320.3c0-11.7-9.5-21.2-21.2-21.2s-21.2,9.5-21.2,21.2c0,11.7,9.5,21.2,21.2,21.2 S139.5,332,139.5,320.3z"
         id="path50" />
      <g
         id="g60">
        <defs
           id="defs53">
          <path
             id="SVGID_1_"
             d="M139.5,320.3c0-11.7-9.5-21.2-21.2-21.2s-21.2,9.5-21.2,21.2c0,11.7,9.5,21.2,21.2,21.2 S139.5,332,139.5,320.3z" />
        </defs>
        <clipPath
           id="SVGID_2_">
          <use
             xlink:href="#SVGID_1_"
             style="overflow:visible;"
             id="use55" />
        </clipPath>
        <rect
           x="99.5"
           y="303.4"
           class="st7"
           width="14.6"
           height="38.7"
           clip-path="url(#SVGID_2_)"
           id="rect58" />
      </g>
    </g>
    <g
       id="g154">
      <path
         class="st8"
         d="M285,393.1c0,4-17.9,7.3-40,7.3s-40-3.3-40-7.3c0-4,17.9-7.3,40-7.3S285,389,285,393.1z"
         id="path64" />
      <g
         id="g68">
        <path
           class="st6"
           d="M330,307.9c0-45.2-36.6-81.8-81.8-81.8c-45.2,0-81.8,36.6-81.8,81.8c0,45.2,36.6,81.8,81.8,81.8 C293.4,389.8,330,353.1,330,307.9z"
           id="path66"
           style="fill:#e6e6e6" />
      </g>
      <g
         id="g72">
        <path
           class="st9"
           d="M180.3,307.9c0,37.5,30.4,67.9,67.9,67.9c37.5,0,67.9-30.4,67.9-67.9H180.3z"
           id="path70" />
      </g>
      <g
         id="g76">
        <ellipse
           class="st5"
           cx="246.3"
           cy="292.3"
           rx="69.1"
           ry="19.5"
           id="ellipse74" />
      </g>
      <g
         id="g80">
        <rect
           x="226.2"
           y="191.5"
           class="st6"
           width="43.9"
           height="64.9"
           id="rect78"
           style="fill:#e6e6e6" />
      </g>
      <g
         id="g84">
        <path
           class="st6"
           d="M224.5,180.1h47.3c4.4,0,7.9,3.6,7.9,7.9v1.1c0,4.4-3.6,7.9-7.9,7.9h-47.3c-4.4,0-7.9-3.6-7.9-7.9V188 C216.6,183.7,220.1,180.1,224.5,180.1z"
           id="path82"
           style="fill:#e6e6e6" />
      </g>
      <g
         id="g88">
        <rect
           x="262.5"
           y="197.1"
           class="st10"
           width="2.8"
           height="32.2"
           id="rect86" />
      </g>
      <g
         id="g92">
        <path
           class="st6"
           d="M243.3,170.6c-4.8,0-8.7-3.9-8.7-8.7c0-4.8,3.9-8.7,8.7-8.7c4.8,0,8.7,3.9,8.7,8.7 C252,166.7,248.1,170.6,243.3,170.6z M243.3,156c-3.3,0-5.9,2.6-5.9,5.9c0,3.2,2.6,5.9,5.9,5.9c3.2,0,5.9-2.6,5.9-5.9 C249.2,158.6,246.6,156,243.3,156z"
           id="path90"
           style="fill:#e6e6e6" />
      </g>
      <g
         id="g96">
        <path
           class="st6"
           d="M226.2,133.9c-4.8,0-8.7-3.9-8.7-8.7c0-4.8,3.9-8.7,8.7-8.7c4.8,0,8.7,3.9,8.7,8.7 C234.9,130,231,133.9,226.2,133.9z M226.2,119.3c-3.2,0-5.9,2.6-5.9,5.9c0,3.2,2.6,5.9,5.9,5.9c3.3,0,5.9-2.6,5.9-5.9 C232.1,122,229.5,119.3,226.2,119.3z"
           id="path94"
           style="fill:#cccccc" />
      </g>
      <g
         id="g100">
        <path
           class="st6"
           d="M270.1,141.7c-9.1,0-16.4-7.4-16.4-16.4c0-9.1,7.4-16.4,16.4-16.4c9.1,0,16.4,7.4,16.4,16.4 C286.5,134.3,279.2,141.7,270.1,141.7z M270.1,111.6c-7.5,0-13.6,6.1-13.6,13.6c0,7.5,6.1,13.6,13.6,13.6 c7.5,0,13.6-6.1,13.6-13.6C283.7,117.7,277.6,111.6,270.1,111.6z"
           id="path98"
           style="fill:#b3b3b3" />
      </g>
      <g
         id="g104">
        <path
           class="st6"
           d="M223.7,292.6c0-0.7-0.6-1.3-1.3-1.3c-0.7,0-1.3,0.6-1.3,1.3c0,0.7,0.6,1.3,1.3,1.3 C223.1,293.9,223.7,293.3,223.7,292.6z"
           id="path102" />
      </g>
      <g
         class="st11"
         id="g110">
        <g
           id="g108">
          <path
             class="st6"
             d="M252.3,298.1c0-2.5-2-4.5-4.5-4.5c-2.5,0-4.5,2-4.5,4.5c0,2.5,2,4.5,4.5,4.5 C250.3,302.6,252.3,300.6,252.3,298.1z"
             id="path106" />
        </g>
      </g>
      <g
         class="st12"
         id="g116">
        <g
           id="g114">
          <path
             class="st6"
             d="M257.7,316.1c0-1.5-1.2-2.6-2.6-2.6c-1.5,0-2.6,1.2-2.6,2.6c0,1.5,1.2,2.6,2.6,2.6 C256.5,318.7,257.7,317.6,257.7,316.1z"
             id="path112" />
        </g>
      </g>
      <g
         class="st12"
         id="g122">
        <g
           id="g120">
          <path
             class="st6"
             d="M239.6,315c0-0.6-0.5-1.2-1.2-1.2c-0.6,0-1.2,0.5-1.2,1.2c0,0.6,0.5,1.2,1.2,1.2 C239.1,316.2,239.6,315.7,239.6,315z"
             id="path118" />
        </g>
      </g>
      <g
         class="st11"
         id="g128">
        <g
           id="g126">
          <path
             class="st6"
             d="M291,296c0-2.5-2-4.5-4.5-4.5c-2.5,0-4.5,2-4.5,4.5c0,2.5,2,4.5,4.5,4.5C289,300.5,291,298.5,291,296z"
             id="path124" />
        </g>
      </g>
      <g
         class="st11"
         id="g134">
        <g
           id="g132">
          <path
             class="st6"
             d="M237.1,282.2c0-1.2-0.9-2.1-2.1-2.1c-1.2,0-2.1,0.9-2.1,2.1c0,1.2,0.9,2.1,2.1,2.1 C236.1,284.3,237.1,283.3,237.1,282.2z"
             id="path130" />
        </g>
      </g>
      <g
         class="st11"
         id="g140">
        <g
           id="g138">
          <path
             class="st6"
             d="M209.9,298.1c0-1.2-0.9-2.1-2.1-2.1c-1.2,0-2.1,0.9-2.1,2.1c0,1.2,0.9,2.1,2.1,2.1 C209,300.2,209.9,299.2,209.9,298.1z"
             id="path136" />
        </g>
      </g>
      <g
         class="st11"
         id="g146">
        <g
           id="g144">
          <path
             class="st6"
             d="M257.2,282.2c0-1.2-0.9-2.1-2.1-2.1c-1.2,0-2.1,0.9-2.1,2.1c0,1.2,0.9,2.1,2.1,2.1 C256.2,284.3,257.2,283.3,257.2,282.2z"
             id="path142" />
        </g>
      </g>
      <g
         id="g150">
        <path
           class="st6"
           d="M170.1,116.9c12.2,0,18.8-6.6,18.8-18.8c0,12.2,6.6,18.8,18.8,18.8c-12.2,0-18.8,6.6-18.8,18.8 C188.9,123.5,182.3,116.9,170.1,116.9z"
           id="path148"
           style="fill:#b3b3b3" />
      </g>
      <path
         class="st13"
         d="M330,307.9c0-37.6-25.4-69.2-59.9-78.8v-32h1.7c4.4,0,7.9-3.6,7.9-7.9V188c0-4.4-3.6-7.9-7.9-7.9h-23.7 v209.7C293.4,389.8,330,353.1,330,307.9z"
         id="path152"
         style="fill:#b3b3b3" />
    </g>
  </g>
</svg>
