<?xml version="1.0" encoding="UTF-8"?>
<svg version="1.1" viewBox="0 0 104.53266 214.20097" xmlns="http://www.w3.org/2000/svg" xmlns:xlink="http://www.w3.org/1999/xlink">
 <defs>
  <linearGradient id="q" x2="0" y1="27.436" y2="21.813" gradientTransform="matrix(26.64 0 0 28.557 2882.3 -569.45)" gradientUnits="userSpaceOnUse" xlink:href="#a"/>
  <linearGradient id="a">
   <stop stop-color="#fff" offset="0"/>
   <stop stop-color="#fff" stop-opacity="0" offset="1"/>
  </linearGradient>
  <linearGradient id="p" x2="0" y1="20.287" y2="25.218" gradientTransform="matrix(26.64 0 0 28.557 2882.3 -569.45)" gradientUnits="userSpaceOnUse" xlink:href="#a"/>
  <radialGradient id="g" cx="-106.23" cy="27.441" r="2.2545" gradientTransform="matrix(26.64 0 0 28.557 2882.3 -569.45)" gradientUnits="userSpaceOnUse" xlink:href="#a"/>
  <linearGradient id="o" x2="0" y1="8" y2="88" gradientTransform="matrix(0 -2.4325 1.2356 0 -7.3522 -4.8644)" gradientUnits="userSpaceOnUse" xlink:href="#c"/>
  <linearGradient id="c">
   <stop stop-color="#666" offset="0"/>
   <stop stop-color="#e6e6e6" offset=".2502"/>
   <stop stop-color="#808080" offset=".5129"/>
   <stop stop-color="#474747" offset="1"/>
  </linearGradient>
  <linearGradient id="n" x1="-106.99" x2="-105.5" gradientTransform="matrix(26.64 0 0 28.557 2882.3 -569.45)" gradientUnits="userSpaceOnUse">
   <stop stop-color="#d9d9d9" offset="0"/>
   <stop stop-color="#c6c6c6" offset=".2502"/>
   <stop stop-color="#696969" offset="1"/>
  </linearGradient>
  <linearGradient id="m" x2="0" y1="8" y2="88" gradientTransform="matrix(0 2.4325 1.2356 0 -7.3522 228.64)" gradientUnits="userSpaceOnUse" xlink:href="#c"/>
  <linearGradient id="l" x2="0" y1="20.281" y2="25.905" gradientTransform="matrix(26.64 0 0 28.557 2882.3 -569.45)" gradientUnits="userSpaceOnUse" xlink:href="#a"/>
  <linearGradient id="k" x2="0" y1="20.281" y2="29.993" gradientTransform="matrix(26.64 0 0 28.557 2882.3 -569.45)" gradientUnits="userSpaceOnUse" xlink:href="#a"/>
  <linearGradient id="j" x1="-107.94" x2="-104.41" y1="24.252" y2="21.562" gradientTransform="matrix(26.64 0 0 28.557 2882.3 -569.45)" gradientUnits="userSpaceOnUse">
   <stop stop-color="#c9c9c9" offset="0"/>
   <stop stop-color="#c9c9c9" stop-opacity="0" offset="1"/>
  </linearGradient>
  <filter id="d" color-interpolation-filters="sRGB">
   <feGaussianBlur stdDeviation="1.1796"/>
  </filter>
  <linearGradient id="i" x1="6" x2="45.789" y1="63" y2="63.152" gradientTransform="matrix(-1.2356 0 0 3.5245 110.17 -92.247)" gradientUnits="userSpaceOnUse">
   <stop stop-color="#00410b" offset="0"/>
   <stop stop-color="#003255" stop-opacity="0" offset="1"/>
  </linearGradient>
  <linearGradient id="h" x1="-106.33" x2="-106.34" y1="26.469" y2="20.219" gradientTransform="matrix(26.64 0 0 28.557 2882.3 -569.45)" gradientUnits="userSpaceOnUse">
   <stop offset="0"/>
   <stop stop-color="#98fc66" stop-opacity="0" offset="1"/>
  </linearGradient>
  <radialGradient id="f" cx="287.51" cy="406.27" r=".47578" gradientTransform="matrix(95.71 -5.0098 22.428 551.21 -36554 -2.2239e5)" gradientUnits="userSpaceOnUse" xlink:href="#b"/>
  <linearGradient id="b">
   <stop stop-color="#1cd000" offset="0"/>
   <stop offset="1"/>
  </linearGradient>
  <radialGradient id="e" cx="29.606" cy="55.617" r="42" gradientTransform="matrix(-.034898 6.1384 -1.2377 -.0090373 92.204 -107.81)" gradientUnits="userSpaceOnUse" xlink:href="#b"/>
 </defs>
 <path d="m3.211 34.428v155.08h98.848v-155.08h-98.848z" fill="url(#e)"/>
 <path d="m50.744 34.428v155.08h49.424v-155.07h-49.426z" fill="url(#f)"/>
 <path d="m2.8572 33.562v155.07h98.848v-155.08h-98.848z" fill="url(#h)" opacity=".8971"/>
 <path d="m2.3847 183.2v7.0488h98.848v-7.0488h-98.848z" fill="#008015" opacity=".6"/>
 <path d="m50.864 34.633v155.08h49.424v-155.08h-49.426z" fill="url(#i)"/>
 <path d="m2.3847 35.17v7.0488h98.848v-7.0491h-98.848z" fill="#00d446" opacity=".4"/>
 <path d="m2.3847 35.17v155.08h2.4722v-155.08h-2.4722zm96.377 0v155.08h2.4722v-155.08h-2.4722z" fill="#00d41d" opacity=".3"/>
 <path d="m3.6836 182.45v7.0488h98.848v-7.0488h-98.848z" fill="#98fc66" opacity=".358"/>
 <path d="m2.7384 34.428v7.0488h98.848v-7.0493h-98.848z" fill="#CF9" opacity=".3663"/>
 <path d="m3.211 33.892v155.08h2.4722v-155.08h-2.4722zm96.377 0v155.08h2.4722v-155.08h-2.4722z" fill="#7ce800" opacity=".7901"/>
 <path transform="matrix(.85967 0 0 .88442 -69.139 129.33)" d="m142.88-97.775v5.501h47.725v-5.501h-47.725zm0 22.004v5.501h47.725v-5.501h-47.725zm0 22.004v5.501h47.725v-5.501h-47.725zm0 22.004v5.501h47.725v-5.501h-47.725zm0 22.004v5.501h47.725v-5.501h-47.725zm0 22.004v5.501h47.725v-5.501h-47.725zm0 22.004v5.501h47.725v-5.501h-47.725z" filter="url(#d)" opacity=".2853" stroke="#000" stroke-width=".7"/>
 <path transform="matrix(.85967 0 0 .88442 -69.139 129.33)" d="m112.99-37.264v33.006h17.954l-17.95 44.009v-33.006h-17.952l17.954-44.008z" filter="url(#d)" opacity=".2974" stroke="#000"/>
 <path d="m0.91786 31.795h103.54v159.57h-103.54z" fill="url(#j)" fill-rule="evenodd" opacity=".3251" stroke="#8f8f8f" stroke-linecap="round" stroke-linejoin="round" stroke-width=".17432"/>
 <path d="m9.9461 9.7286h25.948v204.32h-25.948z" fill="url(#k)" opacity=".4856"/>
 <path d="m66.784 9.7286h14.827v204.32h-14.827z" fill="url(#l)" opacity=".5638"/>
 <path d="m7.475 214.05c-4.1084 0-7.4134-6.509-7.4134-14.594v-9.7297h103.79v9.7297c0 8.0851-3.3087 14.594-7.4134 14.594h-88.964z" fill="url(#m)"/>
 <path d="m0.06192 189.72h103.79v4.8647h-103.79z" fill="#FFF" opacity=".29"/>
 <path d="m34.658 0h34.597c1.3693 0 2.4722 2.1704 2.4722 4.8647v9.9727c0 2.6958-1.1029 4.8647-2.4722 4.8647h-34.597c-1.3693 0-2.4722-2.1703-2.4722-4.8647v-9.9723c0-2.6958 1.103-4.8647 2.472-4.8647z" fill="url(#n)"/>
 <path d="m7.475 9.7297c-4.1084 0-7.4134 6.509-7.4134 14.594v9.7297h103.79v-9.7297c0-8.0851-3.3087-14.594-7.4134-14.594h-88.964z" fill="url(#o)"/>
 <path d="m34.658 5.7e-4c-1.372 0-2.4722 2.1704-2.4722 4.8619v2.4302c0-2.6929 1.1002-4.8673 2.4722-4.8673h34.597c1.372 0 2.4722 2.1704 2.4722 4.8673v-2.4303c0-2.6929-1.1002-4.8619-2.4722-4.8619h-34.597z" fill="#FFF" opacity=".5"/>
 <path d="m32.187 7.2981h39.539v2.433h-39.539z" opacity=".2"/>
 <path d="m0.06192 29.189h103.79v4.8647h-103.79z" opacity=".1"/>
 <path d="m2.533 34.054v4.8619h98.848v-4.8624h-98.848z" opacity=".1"/>
 <path d="m0.14557 33.341h103.54v159.57h-103.54z" fill="none" opacity=".9703" stroke="#8f8f8f" stroke-linecap="round" stroke-linejoin="round" stroke-width=".26148"/>
 <path d="m2.5325 34.054h2.4722v48.647h-2.4722z" fill="#FFF" opacity=".4"/>
 <path d="m98.91 34.054h2.4722v48.647h-2.4722z" fill="#FFF" opacity=".3"/>
 <path d="m5.4741 10.719-1.0816 0.83672c-0.68731 0.67966-1.3107 1.6192-1.8541 2.6615l-0.7326 1.6706c-0.23976 0.59685-0.43956 1.2365-0.61805 1.9019-0.18648 0.66538-0.34099 1.2765-0.46353 1.9762l-0.0266 0.22845c-0.10656 0.67681-0.15984 1.4107-0.23976 2.1275-0.0799 0.71679-0.10656 1.5421-0.10656 2.356v9.7294h1.236v-12.163c0-0.88527 0.0533-1.7534 0.15984-2.5844l0.10656-0.75962c0.0266-0.22846 0.0266-0.45977 0.0799-0.68538 0.01-0.0571 0.0266-0.0857 0.0266-0.14278 0.10656-0.50832 0.21312-1.0452 0.34632-1.5192l0.23976-0.75962 0.0799-0.30271 0.38628-0.98808c0.18648-0.4512 0.39694-0.89955 0.61805-1.2936l0.38628-0.60826 0.42357-0.60827 0.10656-0.14279h0.0266l0.88711-0.91097zm93.52 0 0.88711 0.91097h0.0266l0.38627 0.53116 0.5408 0.83673 0.0266 0.0857c0.21311 0.37124 0.40226 0.79103 0.57808 1.2165l0.38628 0.98808 0.23976 0.68252 0.15984 0.60827c0.10656 0.39694 0.18648 0.86813 0.27173 1.2908 0.01 0.0571 0.0266 0.0857 0.0266 0.14279 0.0799 0.4769 0.1332 0.93953 0.18648 1.445 0.0799 0.83101 0.15984 1.6992 0.15984 2.5844v12.162h1.2361v-10.568c0-0.81388-0.0533-1.5821-0.10656-2.356-0.0533-0.77389-0.1332-1.4507-0.23976-2.1275l-0.0266-0.22846c-0.1332-0.69965-0.29037-1.3308-0.46353-1.9762-0.18648-0.64539-0.38895-1.3022-0.61805-1.9019l-0.7326-1.6706c-0.54345-1.0423-1.1642-1.9819-1.8541-2.6615l-1.0815-0.83672zm-97.573 178.32v9.7297c0 8.0851 3.3066 14.594 7.4136 14.594h88.964c4.1071 0 7.4136-6.509 7.4136-14.594v-9.7297h-1.2361v7.2978c0 6.7663-2.741 12.162-6.1781 12.162h-88.962c-3.4374 0-6.1781-5.3956-6.1781-12.162v-7.2978h-1.236z" fill="url(#g)" opacity=".2"/>
 <path d="m7.7523 9.8825c-4.1071 0-7.4136 6.509-7.4136 14.594v9.7294h1.2361v-7.2978c0-6.7663 2.7407-12.162 6.1781-12.162h88.965c3.4371 0 6.1781 5.3953 6.1781 12.162v7.2978h1.2361v-9.7294c0-8.0851-3.3066-14.594-7.4136-14.594h-88.971zm-7.4136 180v9.7297c0 0.81388 0.0533 1.5821 0.10656 2.356 0.0533 0.7739 0.10656 1.4507 0.23976 2.1275l0.0266 0.22846c0.1332 0.69965 0.29037 1.3308 0.46353 1.9762 0.18648 0.64539 0.38895 1.3022 0.61805 1.899l0.7326 1.6734c0.54345 1.0423 1.1642 1.9819 1.8541 2.6615l1.0816 0.83672-0.88711-0.91097h-0.0266l-0.10656-0.14278-0.42357-0.60827-0.38628-0.60827c-0.21312-0.39409-0.42891-0.83958-0.61805-1.2936l-0.38628-0.98808-0.0799-0.3027-0.23976-0.75962-0.34632-1.5192c-0.0101-0.0571-0.0266-0.0857-0.0266-0.14279l-0.0799-0.68537-0.10656-0.75962c-0.0799-0.83102-0.15984-1.6992-0.15984-2.5844v-12.162h-1.2359zm102.56 0v12.162c0 0.88527-0.0533 1.7534-0.15984 2.5844-0.0533 0.50261-0.10656 0.96809-0.18648 1.445-0.01 0.0571-0.0266 0.0857-0.0266 0.14279l-0.27172 1.2908-0.15984 0.60827-0.23976 0.68537-0.38628 0.98808-0.57809 1.2165-0.0266 0.0857-0.54079 0.83672-0.38628 0.53116h-0.0266l-0.88711 0.91098 1.0816-0.83673c0.68731-0.67966 1.3107-1.6192 1.8541-2.6615l0.7326-1.6734c0.23976-0.59685 0.43956-1.2365 0.61805-1.899 0.18648-0.66253 0.34099-1.2765 0.46353-1.9762l0.0266-0.22846c0.10656-0.6768 0.15984-1.4107 0.23976-2.1275 0.0799-0.71678 0.10656-1.5421 0.10656-2.356v-9.7297h-1.2361z" fill="url(#p)" opacity=".2"/>
 <path d="m55.663 214.05h6.1781v-204.32h-6.1781z" fill="url(#q)" opacity=".1"/>
 <path d="m51.804 45.298v4.8647h41.03v-4.8651h-41.03zm0 19.459v4.8645h41.03v-4.8647h-41.03zm0 19.459v4.8647h41.03v-4.8651h-41.03zm0 19.459v4.8647h41.03v-4.8647h-41.03zm0 19.459v4.8647h41.03v-4.8647h-41.03zm0 19.459v4.8647h41.03v-4.8647h-41.03zm0 19.459v4.8647h41.03v-4.8647h-41.03z" fill="#fff51f" opacity=".9122" stroke="#98fc66" stroke-width=".61039"/>
 <path d="m26.111 98.81v29.188h15.435l-15.435 38.918v-29.192h-15.435l15.435-38.918z" fill="#ffef42" opacity=".951" stroke="#98fc66" stroke-width=".87186"/>
</svg>
