<?xml version="1.0" encoding="UTF-8"?>
<svg width="500mm" height="500mm" version="1.1" viewBox="0 0 1771.6535 1771.6535" xmlns="http://www.w3.org/2000/svg" xmlns:xlink="http://www.w3.org/1999/xlink">
 <defs>
  <linearGradient id="i" x1="91.623" x2="53.447" y1="-877.45" y2="-121.56" gradientUnits="userSpaceOnUse">
   <stop stop-color="#abc837" offset="0"/>
   <stop stop-color="#112b00" offset="1"/>
  </linearGradient>
  <linearGradient id="h" x1="292.05" x2="57.264" y1="-801.1" y2="-150.19" gradientUnits="userSpaceOnUse">
   <stop stop-color="#aad400" offset="0"/>
   <stop stop-color="#250" offset="1"/>
  </linearGradient>
  <linearGradient id="g" x1="-288.23" x2="36.267" y1="-846.91" y2="-155.92" gradientUnits="userSpaceOnUse" xlink:href="#a"/>
  <linearGradient id="a">
   <stop stop-color="#8a0" offset="0"/>
   <stop stop-color="#250" offset="1"/>
  </linearGradient>
  <linearGradient id="j" x1="494.38" x2="41.994" y1="-610.22" y2="-155.92" gradientUnits="userSpaceOnUse" xlink:href="#a"/>
  <linearGradient id="k" x1="296.18" x2="294.6" y1="856.11" y2="702.25" gradientTransform="matrix(1.1431 0 0 1.1431 -356.69 -1232.4)" gradientUnits="userSpaceOnUse">
   <stop stop-color="#250" offset="0"/>
   <stop stop-color="#aad400" offset="1"/>
  </linearGradient>
 </defs>
 <g transform="translate(0 719.29)">
  <g transform="matrix(1.9068 0 0 1.9068 692.42 1397.5)">
   <path d="m0.47223-435.24c-5.6206 0.3997-13.697 12.623-14.914 13.941-2.5647 2.7785-6.0452-4.1151-7.875-2.1328-1.2111 1.3121-1.3519 22.003-5.9082 17.067-1.6351-1.7715-13.712-14.975-17.725-12.801-0.4881 0.26439-4.7953 8.5334-5.9062 8.5334-2.6044 0-4.852-13.787-5.9082-14.932-2.435-2.638-0.84272 17.064-3.9414 17.064-1.4678 0-0.65587-3.5543-1.9688-4.2655-1.8194-0.98554-3.8957-1.0437-5.9062-2.1328-8.872-4.8059-4.4297 18.131-5.9082 21.335-1.4439 3.1285-6.6347 1.3272-9.957-0.81358-8e-3 0.30411 0.0059 0.58979 0.10938 0.81358 1.3142 2.8476 13.774 10.682 7.8789 17.069-4.7054 5.0978-23.38-6.4029-23.631-6.4029-0.95049 0 1.0423 11.674 0 12.803-0.52187 0.56537-6.7282 4.8888-7.8789 4.2655-4.1178-2.2306-9.825-21.359-13.785-17.069-1.6411 1.7779 1.6411 8.8928 0 10.671-0.98464 1.0668-4.9236-1.0668-5.9082 0-4.9756 5.3905 6.2729 17.069-5.9082 17.069-0.87602 0-6.6548 0.66201-7.877 0-21.741-11.777-1.6864-17.982-11.816-23.47-1.355-0.734-10.02-8.1587-11.814-4.2701-3.3282 7.2114 7.2161 15.652-1.9707 25.605-1.6411 1.7779-8.2046-1.7779-9.8457 0-2.87 3.1094 8.6212 14.934-1.9688 14.934-6.8711 0-12.785-10.143-19.693-6.4006-1.7508 0.94841-7.6033 8.83-9.8457 6.4006-2.193-2.3759 3.8195-19.138-3.9414-14.934-5.2008 2.8173-1.7528 10.551-5.9062 12.801-3.4415 1.8642-0.73691-2.1328-3.9394-2.1328-0.58734 0 0.81726 16.184 0 17.069-4.4421 4.8125-7.9276 1.039-9.8457 0-8.3875-4.5435-7.5141 6.3983-7.8789 6.3983-3.2516 0-8.7856-6.8926-11.814-8.5333-7.6219-4.1288-11.556 23.382-13.785 27.737 0 1.2769 0.90469 4.7956 1.8555 8.531h738.24c0.95077-3.7354 1.8555-7.2542 1.8555-8.531-2.2289-4.3554-6.1652-31.866-13.787-27.737-3.0289 1.6407-8.5628 8.5333-11.814 8.5333-0.36481 0 0.50857-10.942-7.8789-6.3983-1.9181 1.039-5.4036 4.8125-9.8457 0-0.81727-0.88544 0.58734-17.069 0-17.069-3.2026 0-0.49604 3.997-3.9375 2.1328-4.1534-2.2499-0.70738-9.9839-5.9082-12.801-7.7609-4.204-1.7465 12.558-3.9394 14.934-2.2424 2.4294-8.0949-5.4522-9.8457-6.4006-6.9082-3.7422-12.822 6.4006-19.693 6.4006-10.59 0 0.90126-11.825-1.9688-14.934-1.6411-1.7779-8.2046 1.7779-9.8457 0-9.1868-9.9529 1.3555-18.393-1.9727-25.605-1.7946-3.8885-10.459 3.5361-11.814 4.2701-10.13 5.4874 9.9242 11.693-11.816 23.47-1.2221 0.66201-7.0009 0-7.877 0-12.181 0-0.93062-11.678-5.9062-17.069-0.98465-1.0668-4.9255 1.0668-5.9102 0-1.6411-1.778 1.6411-8.8928 0-10.671-3.9601-4.2904-9.6654 14.838-13.783 17.069-1.1507 0.62332-7.357-3.7002-7.8789-4.2655-1.0423-1.1292 0.95049-12.803 0-12.803-0.25093 0-18.927 11.501-23.633 6.4029-5.8951-6.3867 6.5647-14.221 7.8789-17.069 0.10317-0.22379 0.11737-0.50947 0.10937-0.81358-3.3224 2.1408-8.5132 3.9421-9.957 0.81358-1.4785-3.2035 2.9657-26.14-5.9062-21.335-2.0105 1.0891-4.0888 1.1472-5.9082 2.1328-1.3129 0.71119-0.50091 4.2655-1.9688 4.2655-3.0987 0-1.5064-19.702-3.9414-17.064-1.0562 1.1443-3.3019 14.932-5.9062 14.932-1.1109 0-5.4201-8.269-5.9082-8.5334-4.0131-2.1739-16.089 11.03-17.725 12.801-4.5563 4.9363-4.6951-15.755-5.9062-17.067-1.8298-1.9823-5.3123 4.9113-7.877 2.1328-1.2167-1.3181-9.2916-13.539-14.912-13.941h-2e-3c-1.0401-0.0734-1.9958 0.25704-2.8086 1.1376-0.61651 0.66793-5.2112 6.2639-5.9102 8.5356-0.62274 2.024 1.3925 4.892 0 6.4006-2.7565 2.9864-9.7983-12.851-13.783-8.5333-1.9143 2.0739-0.6227 11.297-0.18555 13.858-1.234-4.5766-9.0294-14.888-13.602-7.4578-0.72826 1.1835 0.58714 2.9933 0 4.2655-0.56626 1.227-6.5824 5.7285-7.877 8.5334-1.8686 4.0489 2.8406 16.127 0 19.204-7.8707 8.527-17.462-10.668-17.723-10.668-0.61214 0 1.705 14.651-1.9707 10.668-1.0604-1.1489-2.6008-16.382-5.9062-12.801-2.3668 2.5642 1.3784 10.666-1.9688 10.666-1.6034 0-9.2061-4.9628-11.818-2.1328-2.8152 3.05 3.427 11.459 5.9082 12.803-2.869 0-20.229 9.3073-9.8457 14.932 1.8424 0.99805-0.6155 0.72661-3.4102 0.3976-0.0123-0.1445-0.0204-0.37736-0.0391-0.3976-1.5622-1.6925-3.5274-1.2353-5.4316-0.13329-1.0653-0.22856-2.1881-0.60526-2.8945 0.10343 0.0709-4.0997 0.0525-12.871-2.0098-10.636-1.2088 1.3096-2.0839 4.5347-2.709 7.6554-0.62506-3.1207-1.4983-6.3458-2.707-7.6554-2.0623-2.2343-2.0807 6.5366-2.0098 10.636-0.70649-0.70876-1.8311-0.32968-2.8965-0.10108-1.9045-1.1024-3.8692-1.5617-5.4316 0.131-0.01868 0.0202-0.02671 0.253-0.03906 0.3976-2.7947 0.32901-5.2526 0.60045-3.4102-0.3976 10.383-5.6244-6.9767-14.932-9.8457-14.932 2.4812-1.344 8.7234-9.7535 5.9082-12.803-2.6123-2.8301-10.213 2.1328-11.816 2.1328-3.3472 0 0.39807-8.1019-1.9688-10.666-3.3054-3.581-4.8478 11.652-5.9082 12.801-3.6757 3.9822-1.3566-10.668-1.9688-10.668-0.26044 0-9.8539 19.195-17.725 10.668-2.8406-3.0775 1.8686-15.155 0-19.204-1.2945-2.8049-7.3107-7.3064-7.877-8.5334-0.58714-1.2722 0.72826-3.082 0-4.2655-4.5722-7.4302-12.368 2.8812-13.602 7.4578 0.43715-2.561 1.7307-11.784-0.18359-13.858-3.9849-4.3172-11.027 11.52-13.783 8.5334-1.3925-1.5086 0.62274-4.3765 0-6.4006-0.69897-2.2717-5.2936-7.8677-5.9102-8.5356-0.81333-0.88115-1.7697-1.2116-2.8105-1.1376zm293.89 40.863c2.5273-1.6284 3.976-3.452 1.8594-3.452-2.6925 0-1.8964 2.0234-1.8594 3.452zm-379.8 0c0.03704-1.4286 0.83316-3.452-1.8594-3.452-2.1166 0-0.66791 1.8235 1.8594 3.452z" fill="#250"/>
   <g transform="translate(55.356 -167.98)">
    <path d="m142.21-827.77s-15.908 8.2273-37.531 23.678c-22.058 15.761-48.51 38.347-69.678 68.662-10.519 15.15-18.886 31.626-23.994 48.779-0.08464 0.28424-0.16889 0.56791-0.25195 0.85156-5.1673 17.663-6.9432 34.059-6.5312 48.277 0.56783 18.316 4.9068 32.694 10.066 42.594 7.863 15.017 17.82 20.776 26.236 21.107-2.0306-8.0212-3.5624-16.172-4.502-24.4-1.4083-12.381-1.4422-24.857-0.14062-37.141 1.4752-13.873 4.6116-27.438 8.9668-40.496 5.1843-15.542 12.038-30.378 19.895-44.555 6.0943-10.995 12.741-21.613 19.826-31.916-6.6768 10.561-12.894 21.402-18.531 32.57-7.2666 14.395-13.489 29.348-18.002 44.83-3.7909 13.004-6.3524 26.386-7.2734 39.9-0.81514 11.962-0.32901 24.012 1.4688 35.865 1.6894 11.139 4.5258 22.091 8.2266 32.73 7.2646 20.886 17.781 40.476 28.781 59.654 10.976 19.137 22.502 37.998 31.98 57.916 4.7181 9.9148 8.9171 20.089 12.23 30.557 3.3831 10.688 5.8279 21.683 7.0762 32.824 1.3387 11.948 1.2931 24.046-0.0606 35.992-1.5453 13.639-4.767 27.064-9.1836 40.061-5.3041 15.609-12.3 30.613-20.293 45.031-9.8456 17.76-21.202 34.654-33.385 50.9-5.4539 7.2732-10.476 14.918-14.295 23.168-3.7544 8.1111-6.2749 16.863-6.6816 25.791 3.9467-0.10452 7.8896-0.14991 11.83-0.13672 0.27888-6.8586 2.3241-13.937 5.3496-20.793 3.2267-7.2639 7.7694-14.273 12.848-21.24 12.271-16.667 23.744-34.095 33.729-52.48 8.1122-14.928 15.219-30.57 20.629-46.932 4.5086-13.635 7.761-27.795 9.2812-42.254 1.3245-12.676 1.2566-25.501-0.27344-38.17-1.4355-11.809-4.1116-23.377-7.7637-34.549-3.5761-10.933-8.0206-21.453-12.973-31.605-4.015-8.2239-8.3383-16.206-12.787-24.051-2.0452-9.2257-4.5924-24.847-4.8516-30.518-0.29993-6.1526 0.2001-12.383 1.4824-18.459 2.3632-11.716 8.0594-23.194 14.809-34.445 7.1647-11.813 15.665-23.368 23.695-35.715 8.4407-12.911 16.219-26.738 21.549-41.812 1.3655-3.9416 2.5498-7.9121 3.5801-11.9 0.15458 0.019 0.31024 0.0378 0.46485 0.0566v-6e-3c8.8503 1.0374 17.38-0.88475 24.467-7.5078 7.0198-6.5608 12.346-17.65 13.529-32.717 0.28965-3.6889 0.0708-7.5019-0.55859-11.344-2.3868-16.062-11.47-31.95-19.264-44.393-7.7722-12.409-14.389-21.988-14.389-21.988s-8.7554 7.6527-18.18 19.951c-9.4045 12.273-19.226 28.548-23.309 42.012-1.0464 3.2664-1.7448 6.4113-2.002 9.3965-1.048 12.168 1.1848 20.607 5.5723 27.242 4.3448 6.5712 11.195 11.818 19.457 15.334 6.0622-15.511 9.5133-32.648 12.17-49.902 1.2561-8.2126 2.3291-16.497 3.4394-24.771-0.3361 8.3057-0.63338 16.615-1.1191 24.908-1.2502 21.336-3.7199 42.86-11.219 62.869-5.2808 14.092-13.04 27.132-21.523 39.566-8.1055 11.88-16.901 23.289-24.66 35.4-7.4 11.551-13.824 23.916-17.004 37.262-1.6524 6.9356-2.416 14.083-2.2578 21.211 0.02181 0.98215 0.06159 1.9629 0.11719 2.9434-1.3503-2.2774-2.7127-4.5621-4.0469-6.8359-11.077-18.954-21.568-37.983-28.729-58.047-1.0815-3.0185-2.0904-6.0595-3.0195-9.1211 0.13344-0.0937 0.26683-0.18778 0.40039-0.28125l-0.0059-0.0137c6.9885-4.983 11.462-13.262 15.162-25.037 2.6286-8.4074 4.4358-17.2 7.1406-29.119 2.0004-8.9788 4.462-19.243 8.0195-31.498 0.05736-0.19786 0.11383-0.39493 0.17188-0.59375 4.2393-14.522 6.4337-22.51 11.586-39.416 9.4175-30.982 18.792-56.731 29.037-83.133 9.2814-23.92 15.998-40.6 15.998-40.6z" fill="url(#i)"/>
    <path d="m204.15-619.79c-5.63 18.539-9.4193 29.247-12.989 42.061-3.0406 11.291-4.938 20.235-4.9679 28.532-0.029 8.0576 1.7869 14.545 5.4396 19.618 9.1027-10.842 17.623-22.064 24.938-34.034 9.9073-16.177 17.786-33.731 23.663-52.02 5.4468-16.94 9.2133-34.521 12.355-52.222 1.1195-6.3091 2.1658-12.637 3.1989-18.968-0.77051 6.3626-1.5543 12.723-2.4125 19.074-2.4081 17.819-5.4505 35.586-10.23 52.919l-1e-5 2e-5c-5.1619 18.717-12.405 36.877-21.832 53.851l-1e-5 1e-5c-8.7339 15.725-19.393 30.31-30.688 44.312l-2e-5 2e-5c-12.472 15.46-25.788 30.219-39.249 44.828-27.936 30.319-56.792 59.93-81.758 92.74-11.698 15.373-22.527 31.472-31.299 48.684 2e-6 0-7e-6 1e-5 -7e-6 1e-5 -8.1529 15.998-14.49 33.03-17.438 50.742-2.934 17.626-2.3041 35.849 2.0284 53.184 5.0598 20.244 14.894 39.086 27.098 56.011 3.0385-2.519 6.0866-5.0268 9.1442-7.5233-11.445-15.742-20.681-32.951-25.382-51.201-4.1352-15.745-4.8959-32.481-2.3763-48.72 2.502-16.4 8.3358-32.501 15.94-47.898 8.2108-16.582 18.569-32.299 29.874-47.503 24.145-32.461 52.543-62.171 80.271-92.893l1e-5 -2e-5c13.356-14.784 26.642-29.812 39.14-45.615 2.294-2.8968 4.5647-5.8247 6.8012-8.7877 0.15416 0.053 0.30834 0.10599 0.46255 0.1589l8e-3 -0.0124c5.7694 1.9229 12.756 1.688 20.768-1.7803 7.8927-3.4167 17.34-10.273 26.884-21.933 9.9206-12.217 20.027-29.866 27.043-53.037 0.72158-2.3829 1.3851-4.8117 1.9896-7.2815 4.6978-19.377 5.6255-39.436 4.4863-58.96-1.0996-19.331-4.1652-38.78-6.5702-54.489-2.6954-17.658-4.1984-28.099-5.4939-39.981-1.1031-10.117-1.5232-16.33-1.5232-16.33s-3.9235 4.8021-9.6178 13.629c-5.9205 9.178-12.863 21.417-20.029 37.386-7.3324 16.283-13.692 33.364-20.026 51.23-5.4277 15.176-12.044 34.62-15.988 46.889-0.57313 1.799-1.1291 3.5797-1.6634 5.339l-6e-5 -4.7e-4z" fill="url(#h)"/>
    <path d="m-217.45-824.16s1.5698 11.081 6.2344 28.318c4.867 17.985 12.367 39.803 23.6 64.311 12.748 27.891 29.057 56.55 45.713 78.061 1.1364 1.4677 2.2594 2.9054 3.3691 4.3125 17.481 22.231 32.186 37.518 44.203 46.836 12.189 9.4521 22.441 13.456 31.275 12.941 1.332-0.078 2.6293-0.25911 3.8906-0.54102-0.23888-0.44577-0.47843-0.89084-0.71875-1.3359-14.832-27.453-32.389-53.664-50.674-79.424-17.612-24.805-35.961-49.206-53.506-74.139 18.474 24.224 37.708 47.859 56.285 72.002 19.289 25.068 37.931 50.704 54.045 77.92 15.921 26.89 29.315 55.415 37.902 85.461 6.0424 21.141 9.6365 42.941 11.422 64.857 1.7344 21.29 1.8125 42.684 1.3496 64.041-0.010779 0.49723-0.027776 0.99492-0.039063 1.4922-3.7805-11.92-8.561-23.57-14.473-34.711-8.3914-15.743-18.966-30.161-31.107-42.971-11.87-12.504-24.983-23.438-38.521-33.389-14.093-10.37-28.612-19.788-42.986-29.07-15.289-9.8818-30.479-19.666-45.109-30.047-15.783-11.2-30.987-23.121-45.141-36.125-8.5228-7.8266-16.683-16.055-24.428-24.66 0.088-0.13371 0.17557-0.26675 0.26368-0.40039l-8e-3 -8e-3c5.9272-9.1364 6.6264-21.298 1.5527-37.439-3.6265-11.478-9.9746-24.555-19.412-41.557-3.6293-6.5383-7.9781-13.278-12.678-20.076-8.691-13.097-25.902-33.788-33.357-44.365-9.1098-12.677-15.055-24.008-19.145-34.693-3.8247-9.9917-5.1973-16.951-5.1973-16.951s-4.4429 5.4282-9.2441 16.268c-4.8818 11.021-9.623 27.123-9.7539 47.078-0.23323 22.018 3.9294 44.754 10.252 64.441 2.9979 9.3114 6.711 18.125 11.129 26.072 11.33 20.379 23.711 34.322 34.758 42.789 16.343 12.506 30.05 13.543 39.777 8.668-6.3811-8.0025-12.424-16.254-18.098-24.73-14.354-21.454-26.332-44.26-36.217-67.793-5.3736-12.783-10.664-25.717-14.77-38.936 4.7388 12.987 10.624 25.579 16.596 38.062 10.952 22.893 23.891 44.86 39.002 65.25 12.993 17.532 27.593 33.865 43.486 48.816 14.3 13.453 29.629 25.781 45.506 37.33 8.9062 6.4788 17.992 12.704 27.133 18.848-0.1525-0.0214-0.30445-0.0478-0.45703-0.0684-12.72-1.6588-25.2-0.7864-36.998 1.3672-12.888 2.3157-25.217 5.9321-37.135 9.9453-12.536 4.2074-24.732 8.8632-36.84 13.344-9.7809 3.6134-19.491 7.1366-29.26 10.182-0.062-0.14281-0.12354-0.28686-0.18554-0.42969l-4e-3 4e-3c-2.6935-6.141-6.3201-11.325-10.83-15.246-7.7926-6.7807-17.006-9.0862-27.979-8.3809-0.72539 0.0466-1.448 0.13291-2.1719 0.25391-6.6088 1.0269-13.201 6.2051-21.256 9.916-4.6438 2.2156-9.699 3.8302-14.99 4.7949-11.39 2.085-21.564 0.6289-21.564 0.6289s-1.2574 10.073 4.8652 23.92c2.8655 6.4369 7.3313 13.346 13.889 19.582 12.044 11.186 28.101 18.447 42.553 18.547 1.4514 0.0227 2.8741-0.0194 4.2617-0.125 20.519-1.5617 31.095-10.401 35.305-19.643 2.7528-5.9974 3.2386-12.704 2.1953-19.604-2.3259 0.42269-4.6596 0.82214-6.998 1.1953-11.964 1.9232-24.228 3.1168-36.375 2.4961-10.191-0.51097-20.337-2.4641-29.455-6.3906 9.4171 2.9846 19.442 3.8747 29.32 3.4258 11.795-0.53585 23.447-2.8517 34.867-5.834 12.341-3.2225 24.452-7.2572 36.518-11.389 12.267-4.2005 24.49-8.5348 36.877-12.363 11.794-3.6449 23.751-6.8662 35.949-8.752 11.156-1.7245 22.574-2.312 33.725-0.55664 7.734 1.2174 20.016 3.7914 29.658 7.4902 11.042 7.3768 22.003 14.873 32.602 22.869 13.097 9.8809 25.639 20.564 36.785 32.602 11.389 12.3 21.242 26.045 28.953 40.93 8.4688 16.348 19.01 49.791 23.213 69.064-0.89569 29.677-1.4245 59.35 1.2637 88.891 0.75598 8.3072 2.9425 16.442 5.9375 24.227 3.1522 8.1934 7.2036 16.024 11.779 23.516 8.7932 14.397 19.452 27.618 31.248 39.678 2.6149-2.9582 5.2391-5.907 7.873-8.8476-11.135-11.258-21.177-23.495-29.434-36.744-4.3537-6.9963-8.1789-14.181-11.102-21.588-2.7564-7.0391-4.7901-14.168-5.4746-21.225-4.2803-41.956-1.7591-85.058-1.2402-128.66 0.27537-21.524-0.012883-43.244-1.9746-64.986-2.0209-22.396-5.9219-44.733-12.33-66.445-9.0013-30.361-22.647-58.959-38.756-85.75 0.10473-0.12641 0.20979-0.25436 0.31445-0.38085l-0.0078-0.0117c0.64205-0.79095 1.2352-1.6364 1.7793-2.5371 4.5943-7.5983 5.633-19.322 0.85742-35.527-4.8083-16.316-15.317-36.534-33.428-60.574-1.1275-1.5009-2.2836-3.0148-3.4668-4.543-17.561-22.679-41.646-43.98-64.418-62.896-148.11-123.37 91.042 76.827-50.951-41.646-13.277-11.078-21.67-18.533-21.67-18.533z" fill="url(#g)"/>
    <path d="m410.61-642.12s-2.3858 5.5095-5.1836 15.303c-3.6874 12.907-4.9497 20.739-8.9688 38.969-3.6724 15.694-7.8674 32.017-14.936 42.779-7.8092 14.597-15.656 26.058-23.158 38.029-1.8276 2.9161-3.6366 5.6969-5.3828 8.3242-15.402 23.636-25.159 35.079-29.291 51.061-1.8683 7.1522-1.778 13.495 0.20703 19.129 3.2082-2.0619 6.3798-4.1763 9.5117-6.3496 17.687-12.285 34.132-26.472 47.615-43.287 13.931-17.344 24.564-37.584 31-59.281 1.9403-6.5185 3.1623-13.236 3.877-20.053-0.41874 6.8348-1.3506 13.616-3.0137 20.27-5.5097 22.048-15.331 43.004-28.764 61.336-13.002 17.744-29.15 33.028-46.66 46.348-18.246 13.879-37.953 25.734-58.059 36.752-20.717 11.352-41.906 21.815-62.953 32.547-20.795 10.603-41.495 21.451-61.344 33.736-18.963 11.737-37.191 24.825-53.23 40.32-15.667 15.135-29.109 32.699-38.613 52.299-5.013 10.338-8.9442 21.195-11.791 32.326-3.1248 12.218-4.9514 24.755-5.6992 37.344 3.946-0.0196 7.8925-0.0252 11.838-0.0176 0.6105-11.679 2.1803-23.259 4.9277-34.494 2.5482-10.442 6.1065-20.635 10.678-30.332 8.6084-18.367 21.131-35.069 35.867-49.662 15.13-14.985 32.664-27.835 51.113-39.559 11.583-7.3488 23.546-14.22 35.711-20.875 24.277-2.1422 59.463-1.6939 82.846-0.12109 23.278 1.6017 47.051 4.0502 71.24 3.8867 11.649-0.0815 23.394-0.84096 35.057-2.6777 0.68472-0.10802 1.3691-0.22012 2.0527-0.33593 0.0453 0.1494 0.0913 0.29985 0.13672 0.44922l6e-3 -2e-3c2.3255 7.5269 6.5918 13.986 13.68 17.98 6.9993 3.9448 17.037 5.5354 29.66 2.3887 3.2487-0.82206 6.6401-1.9545 10.129-3.4336 10.637-4.5095 20.068-13.407 27.156-23.906 8.3467-12.43 12.691-25.66 14.943-36.16 2.2124-10.315 2.3945-17.416 2.3945-17.416s-7.1254 0.48021-17.072 1.0352c-14.745 0.82264-17.734 0.76857-33.637 1.3457-9.3872 0.3338-17.98 0.90323-24.141 3.5156-2.0982 0.88995-4.0072 1.8138-5.7637 2.793-6.8983 3.8995-11.748 8.81-15.02 15.084-3.2336 6.2021-4.8206 13.637-4.6621 21.691 10.473-0.49419 20.969-1.9546 31.271-4.5684 11.89-3.0104 23.553-7.57 34.684-13.404 1.6269-0.85269 3.2435-1.7322 4.8476-2.6367-1.5045 1.0476-3.0244 2.0744-4.5605 3.0762-10.511 6.8548-21.775 12.575-33.582 16.826-10.844 3.9049-22.124 6.5613-33.547 8.1094-11.226 1.5214-22.578 1.9921-33.906 1.8242-23.555-0.34905-46.983-3.324-70.445-5.4766-20.046-1.8393-40.212-3.046-60.312-2.3848 0.38341-0.20095 0.76289-0.40462 1.1465-0.60546 20.866-10.916 42.029-21.645 62.832-33.324 16.79-9.4167 33.389-19.495 49.166-30.896 0.12973 0.0972 0.25884 0.19582 0.38867 0.29297l0.0117-0.01c4.5871 3.3718 10.66 5.2572 18.373 4.8457 14.171-0.75993 39.659-10.715 64.064-41.635 3.0544-3.9221 6.0466-8.1727 8.918-12.76 11.469-18.322 18.388-40.547 20.098-63.59 1.8815-25.246-4.1471-45.9-10.793-62-4.7097-11.764-14.129-30.886-16.629-36.279-4.1148-8.8772-6.3301-14.482-6.3301-14.482z" fill="url(#j)"/>
   </g>
   <path d="m0.47223-414.24c-5.6206 0.33968-13.697 10.727-14.914 11.848-2.5647 2.3613-6.0452-3.4972-7.875-1.8125-1.2111 1.1151-1.3519 18.699-5.9082 14.504-1.6351-1.5055-13.712-12.726-17.725-10.879-0.4881 0.22469-4.7953 7.252-5.9062 7.252-2.6044 0-4.852-11.717-5.9082-12.689-2.435-2.2419-0.84272 14.502-3.9414 14.502-1.4678 0-0.65587-3.0206-1.9688-3.625-1.8194-0.83755-3.8957-0.88696-5.9062-1.8125-8.872-4.0842-4.4297 15.408-5.9082 18.131-1.4439 2.6587-6.6347 1.1279-9.957-0.69141-8e-3 0.25845 0.0059 0.50123 0.10938 0.69141 1.3142 2.42 13.774 9.0782 7.8789 14.506-4.7054 4.3323-23.38-5.4414-23.631-5.4414-0.95049 0 1.0423 9.9212 0 10.881-0.52187 0.48047-6.7282 4.1547-7.8789 3.625-4.1178-1.8956-9.825-18.152-13.785-14.506-1.6411 1.511 1.6411 7.5574 0 9.0684-0.98464 0.90658-4.9236-0.90658-5.9082 0-4.9756 4.5811 6.2729 14.506-5.9082 14.506-0.87602 0-6.6548 0.5626-7.877 0-21.741-10.008-1.6864-15.282-11.816-19.945-1.355-0.62378-10.02-6.9335-11.814-3.6289-3.3282 6.1285 7.2161 13.301-1.9707 21.76-1.6411 1.511-8.2046-1.511-9.8457 0-2.87 2.6424 8.6212 12.691-1.9688 12.691-6.8711 0-12.785-8.6197-19.693-5.4394-1.7508 0.806-7.6033 7.504-9.8457 5.4394-2.193-2.0191 3.8195-16.264-3.9414-12.691-5.2008 2.3942-1.7528 8.9669-5.9062 10.879-3.4415 1.5843-0.73691-1.8125-3.9394-1.8125-0.58734 0 0.81726 13.753 0 14.506-4.4421 4.0899-7.9276 0.88301-9.8457 0-8.3875-3.8612-7.5141 5.4375-7.8789 5.4375-3.2516 0-8.7856-5.8576-11.814-7.252-7.6219-3.5088-11.556 19.871-13.785 23.572 0 1.0851 0.90469 4.0755 1.8555 7.25h738.24c0.95077-3.1745 1.8555-6.1649 1.8555-7.25-2.2289-3.7014-6.1652-27.081-13.787-23.572-3.0289 1.3944-8.5628 7.252-11.814 7.252-0.36481 0 0.50857-9.2987-7.8789-5.4375-1.9181 0.88301-5.4036 4.0899-9.8457 0-0.81727-0.75248 0.58734-14.506 0-14.506-3.2026 0-0.49604 3.3968-3.9375 1.8125-4.1534-1.912-0.70738-8.4847-5.9082-10.879-7.7609-3.5727-1.7465 10.672-3.9394 12.691-2.2424 2.0646-8.0949-4.6334-9.8457-5.4394-6.9082-3.1802-12.822 5.4394-19.693 5.4394-10.59 0 0.90126-10.049-1.9688-12.691-1.6411-1.511-8.2046 1.511-9.8457 0-9.1868-8.4583 1.3555-15.631-1.9727-21.76-1.7946-3.3046-10.459 3.0051-11.814 3.6289-10.13 4.6634 9.9242 9.937-11.816 19.945-1.2221 0.5626-7.0009 0-7.877 0-12.181 0-0.93062-9.9248-5.9062-14.506-0.98465-0.90658-4.9255 0.90658-5.9102 0-1.6411-1.511 1.6411-7.5574 0-9.0684-3.9601-3.6461-9.6654 12.61-13.783 14.506-1.1507 0.52972-7.357-3.1445-7.8789-3.625-1.0423-0.95963 0.95049-10.881 0-10.881-0.25093 0-18.927 9.7737-23.633 5.4414-5.8951-5.4277 6.5647-12.086 7.8789-14.506 0.10317-0.19018 0.11737-0.43296 0.10937-0.69141-3.3224 1.8193-8.5132 3.3501-9.957 0.69141-1.4785-2.7225 2.9657-22.215-5.9062-18.131-2.0105 0.92554-4.0888 0.97495-5.9082 1.8125-1.3129 0.60439-0.50091 3.625-1.9688 3.625-3.0987 0-1.5064-16.744-3.9414-14.502-1.0562 0.97245-3.3019 12.689-5.9062 12.689-1.1109 0-5.4201-7.0273-5.9082-7.252-4.0131-1.8474-16.089 9.3734-17.725 10.879-4.5563 4.195-4.6951-13.389-5.9062-14.504-1.8298-1.6847-5.3123 4.1738-7.877 1.8125-1.2167-1.1202-9.2916-11.506-14.912-11.848h-2e-3c-1.0401-0.0624-1.9958 0.21844-2.8086 0.96679-0.61651 0.56763-5.2112 5.3233-5.9102 7.2539-0.62274 1.7201 1.3925 4.1574 0 5.4394-2.7565 2.5379-9.7983-10.921-13.783-7.252-1.9143 1.7625-0.6227 9.6009-0.18555 11.777-1.234-3.8894-9.0294-12.652-13.602-6.3379-0.72826 1.0058 0.58714 2.5438 0 3.625-0.56626 1.0427-6.5824 4.8683-7.877 7.252-1.8686 3.4409 2.8406 13.705 0 16.32-7.8707 7.2466-17.462-9.0664-17.723-9.0664-0.61214 0 1.705 12.451-1.9707 9.0664-1.0604-0.97634-2.6008-13.922-5.9062-10.879-2.3668 2.1791 1.3784 9.0645-1.9688 9.0645-1.6034 0-9.2061-4.2176-11.818-1.8125-2.8152 2.592 3.427 9.7386 5.9082 10.881-2.869 0-20.229 7.9097-9.8457 12.689 1.8424 0.84818-0.6155 0.6175-3.4102 0.33789-0.0123-0.1228-0.0204-0.32069-0.0391-0.33789-1.5622-1.4383-3.5274-1.0498-5.4316-0.11328-1.0653-0.19424-2.1881-0.51437-2.8945 0.0879 0.0709-3.4841 0.0525-10.938-2.0098-9.0391-1.2088 1.113-2.0839 3.8537-2.709 6.5059-0.62506-2.652-1.4983-5.3929-2.707-6.5059-2.0623-1.8988-2.0807 5.555-2.0098 9.0391-0.70649-0.60233-1.8311-0.28017-2.8965-0.0859-1.9045-0.93683-3.8692-1.3272-5.4316 0.11133-0.01868 0.0172-0.02671 0.21501-0.03906 0.33789-2.7947 0.27961-5.2526 0.51029-3.4102-0.33789 10.383-4.7798-6.9767-12.689-9.8457-12.689 2.4812-1.1422 8.7234-8.2889 5.9082-10.881-2.6123-2.4051-10.213 1.8125-11.816 1.8125-3.3472 0 0.39807-6.8853-1.9688-9.0645-3.3054-3.0433-4.8478 9.9026-5.9082 10.879-3.6757 3.3842-1.3566-9.0664-1.9688-9.0664-0.26044 0-9.8539 16.313-17.725 9.0664-2.8406-2.6154 1.8686-12.879 0-16.32-1.2945-2.3837-7.3107-6.2092-7.877-7.252-0.58714-1.0812 0.72826-2.6192 0-3.625-4.5722-6.3144-12.368 2.4485-13.602 6.3379 0.43715-2.1764 1.7307-10.015-0.18359-11.777-3.9849-3.6689-11.027 9.7899-13.783 7.252-1.3925-1.2821 0.62274-3.7193 0-5.4394-0.69897-1.9306-5.2936-6.6863-5.9102-7.2539-0.81333-0.74883-1.7697-1.0297-2.8105-0.96679zm293.89 34.727c2.5273-1.3839 3.976-2.9336 1.8594-2.9336-2.6925 0-1.8964 1.7195-1.8594 2.9336zm-379.8 0c0.03704-1.2141 0.83316-2.9336-1.8594-2.9336-2.1166 0-0.66791 1.5497 1.8594 2.9336z" fill="url(#k)"/>
  </g>
 </g>
</svg>
