<?xml version="1.0" encoding="UTF-8"?>
<svg width="37.464mm" height="71.467mm" version="1.1" viewBox="0 0 132.74665 253.22791" xmlns="http://www.w3.org/2000/svg" xmlns:xlink="http://www.w3.org/1999/xlink">
 <defs>
  <radialGradient id="m" cx="-1258.3" cy="562.76" r="226.72" gradientTransform="matrix(-.54933 .53427 -.52509 -.5399 -1657 1595.6)" gradientUnits="userSpaceOnUse">
   <stop stop-color="#2d1d19" offset="0"/>
   <stop stop-color="#2e1e1a" offset=".56127"/>
   <stop stop-color="#523630" offset="1"/>
  </radialGradient>
  <linearGradient id="j" x1="-1286.1" x2="-1393.5" y1="427.67" y2="315.89" gradientUnits="userSpaceOnUse" xlink:href="#a"/>
  <linearGradient id="a">
   <stop stop-color="#bbe22f" offset="0"/>
   <stop stop-color="#d8f27c" offset="1"/>
  </linearGradient>
  <linearGradient id="h" x1="-1246.1" x2="-1165.2" y1="415.4" y2="238.68" gradientUnits="userSpaceOnUse" xlink:href="#a"/>
  <linearGradient id="i" x1="-1220.3" x2="-1139.5" y1="413.44" y2="251.06" gradientUnits="userSpaceOnUse" xlink:href="#a"/>
  <linearGradient id="k" x1="-1257.8" x2="-1260.1" y1="489.5" y2="620.82" gradientUnits="userSpaceOnUse">
   <stop stop-color="#9fc21f" offset="0"/>
   <stop stop-color="#809d19" offset="1"/>
  </linearGradient>
  <linearGradient id="l" x1="-1260.3" x2="-1172.5" y1="573.29" y2="495.97" gradientUnits="userSpaceOnUse">
   <stop stop-color="#8cab1b" offset="0"/>
   <stop stop-color="#bce231" offset=".31078"/>
   <stop stop-color="#d8f27c" offset="1"/>
  </linearGradient>
 </defs>
 <g transform="translate(-18.283 -17.177)">
  <g transform="matrix(.44826 0 0 .44826 656.3 -75.1)">
   <path d="m-1267.5 607.78s-0.4378 2.627-2.4081 2.627-3.5027-1.5324-4.3784-1.7513c-0.8756-0.21892-1.9702 0-3.5026 0-1.5325 0-4.1595 0.21892-5.0351 0-0.8757-0.21892-3.0648-2.627-3.0648-2.627s-4.5973-0.87566-5.0351 0c-0.4379 0.87567-3.0649 3.9405-3.0649 3.9405s0.4379 0.87567-1.3135 0.87567c-1.7513 0-4.3783-1.3135-5.254-0.43784-0.8757 0.87567-1.3136 2.8459-3.0649 3.0648-1.7513 0.21891-3.9405 0-3.9405 0s1.0946-1.5324-0.2189-1.5324-2.8459-1.9703-2.4081 0.87567c0.4378 2.8459 1.0946 3.9405 0.4378 5.0351-0.6567 1.0946 1.7514 0.43784-2.4081 1.3135-4.1594 0.87567-3.5027 0.87567-7.4431 1.3135-3.9406 0.43783-4.8162 1.3135-5.9108 3.9405s-3.0649 3.5027-4.1594 5.0351c-1.0946 1.5324-0.6568 2.4081-2.4082 3.5027-1.7513 1.0946-5.0351-0.65676-6.1296 1.0946-1.0946 1.7513-1.5325 4.3784-2.1892 5.6919s0 1.7513-3.5027 2.1892-3.7216-0.43783-4.3784 0.43783c-0.6567 0.87567-1.7513 3.5027-2.627 4.1594-0.8756 0.65675 0.219 2.1892-2.8459 0.65675-3.0648-1.5324-9.6323-3.5027-10.727-2.627s-1.0946 0.43784-2.1892 2.627-1.5324 1.3135-2.4081 4.5973-1.0945 4.3783-1.7513 6.3486 0.8756 2.8459-2.4081 3.7216c-3.2838 0.87567-4.8162 0.21891-5.6919-0.43784-0.8756-0.65675 8.1-1.9702-2.408-1.7513-10.508 0.21892-9.6324 2.8459-9.4135 5.0351s0.6568 1.7513-1.0946 3.7216c-1.7513 1.9703-4.5973 3.7216-4.5973 3.7216s-2.1891 0.21891-2.1891 1.5324c0 1.3135-0.8757 2.1892-1.9703 3.5027s-2.1892-0.21892-1.5324 1.5324c0.6567 1.7513 0.6567 3.0648 0.4378 3.9405s-0.8757 1.7513-1.3135 3.2838c-0.4379 1.5324-1.0946 2.8459-1.5324 5.4729-0.4379 2.627 0 3.9405 0.8757 5.0351 0.8756 1.0946 0.4378 0-0.2189 3.2838-0.6568 3.2838-1.9703 3.5027-0.6568 5.254s1.7513 2.8459 2.8459 4.5973c1.0946 1.7513-0.4378 0.21891 1.3135 2.4081 1.7514 2.1892 1.5324 2.4081 2.1892 3.5027 0.6567 1.0946-1.7514 0.43783 1.7513 3.0648s5.254 2.4081 6.5676 3.2838c1.3135 0.87567 1.3135 1.9703 1.5324 3.7216s0.2189 1.9702-1.7513 2.4081c-1.9703 0.43784-10.289-3.7216-6.1297 0 4.1594 3.7216 5.254 1.9703 7.881 2.4081 2.627 0.43784 4.3784-2.1892 3.5027 0.21892s-2.4081 1.5324-3.5027 3.5027-2.846 0.87567-2.627 2.4081c0.2189 1.5324 3.7216 5.0351 3.7216 5.0351l-1.7514 3.7216s-4.8162 1.0946-3.7216 1.7513c1.0946 0.65675 8.5378 4.1594 8.5378 4.1594l2.1892 3.9405s-1.0946 1.5324 0.4378 2.1892c1.5324 0.65676 3.5027-0.21891 3.5027-0.21891s1.7514-1.7513 3.2838-1.7513 1.0946-1.0946 2.408 0.21892c1.3136 1.3135 2.4081 1.0946 3.9406 1.9703 1.5324 0.87566 4.8161 1.7513 7.6621 2.627 2.8459 0.87567 4.1594-0.65675 4.5972 2.627 0.4379 3.2838-0.4378 3.5027 1.7514 3.7216s5.254 0.65675 6.5675-1.0946-5.254-1.7513 1.7514-3.0648c7.0053-1.3135 11.165-3.5027 11.165-3.5027s-0.219-1.0946 1.9702-1.0946 7.4432-4.5973 10.07-0.43784c2.627 4.1594 3.2838 4.5973 6.7864 4.8162 3.5027 0.21892 12.259 6.5675 13.135 7.6621s-7.881 1.5324 3.5027 0c11.384-1.5324 11.822-2.627 14.448-1.5324 2.627 1.0946 7.2243 2.4081 7.2243 2.4081s3.7216-0.21892 6.1296-1.3135c2.4081-1.0946 9.1946-3.0648 10.508-3.0648s-0.6567 1.9703 3.0648-0.43784c3.7216-2.4081 6.3486-4.8162 7.6622-4.8162 1.3135 0-0.2189-2.4081 2.1891 0.65675 2.4081 3.0648 4.1594 3.0648 8.9757 4.1594 4.8161 1.0946 7.4431 1.9703 8.3188 0.87568 0.8757-1.0946 1.5324-2.627 1.5324-2.627l7.8811-3.0648s5.254-1.5324 7.0053-1.9702c1.7514-0.43784 7.0054 2.8459 7.0054 2.8459s-2.1892 1.5324 0.2189 2.4081c2.4081 0.87568 6.5675 0 7.6621-0.21892 1.0946-0.21891 5.6919-1.9702 6.5675-2.1892 0.8757-0.21892 4.8162-0.43783 5.6918-0.87567 0.8757-0.43783 4.5973-2.8459 5.692-3.0648 1.0945-0.21892 14.011-0.21892 14.23-1.0946 0.219-0.87567-0.4377-2.4081-0.4377-4.3784 0-1.9702-3.5027-3.5027 1.0945-2.8459 4.5973 0.65676 8.7567 0.87568 9.8513 0.43784s2.627-1.7513 3.0648-3.7216c0.4379-1.9702 0.6568-2.4081 1.0946-4.3784 0.4379-1.9702 0.6568-3.0648 0.4379-4.3783s0-4.5973 1.0945-5.4729c1.0946-0.87567 4.5973-1.5324 5.6919 0s2.4081 3.7216 5.6918 5.4729c3.2838 1.7513 1.3136 5.6918 5.0351 1.5324 3.7217-4.1594 5.2541-6.1297 5.6919-7.0054s0-3.0648 0.4378-4.1594c0.4379-1.0946 0.4379-3.5027 0.4379-8.3189s2.627-1.5324-0.2189-5.6918c-2.846-4.1594-6.3487-4.8162-5.2541-10.727 1.0947-5.9108 1.9703-6.5675 0.8757-7.4432s-5.4729-0.87567-5.4729-1.9703 2.8459-2.1892 5.0351-3.5027 4.3783 0.43784 3.7216-2.4081c-0.6568-2.8459 0.4378-2.8459-1.5324-5.0351-1.9703-2.1892-2.846-0.65675-5.473-5.254s-1.9702-4.5973-4.1594-6.7864c-2.1892-2.1892-3.7216-3.5027-3.7216-3.5027l-5.254-4.3784s-2.1892-2.627-3.9406-4.5973c-1.7513-1.9703-3.9404-3.0648-4.1594-4.3784-0.2189-1.3135 0.8757-0.87567-1.3135-3.0648-2.1892-2.1892-3.7216-3.0648-4.5972-3.9405-0.8757-0.87568-3.7217-4.8162-3.7217-4.8162s2.4081-1.9702 1.3136-3.0648c-1.0946-1.0946 1.0945-1.0946-2.627-1.5324-3.7216-0.43783-3.0649 0.43784-5.254-0.87567-2.1893-1.3135-3.2838-0.21891-3.5027-1.9702-0.219-1.7513-1.5324-2.4081-3.9406-1.7513-2.4081 0.65675-3.2837 1.5324-3.5026 0.21892-0.2189-1.3135 0.8756-3.0648 0-3.7216-0.8757-0.65675-2.8459-0.65675-4.5973-0.65675-1.7513 0-2.8459-1.7513-4.1594-5.0351-1.3136-3.2838 1.9702-2.8459-2.1892-3.9405s-4.1594-0.21891-5.9108-1.5324c-1.7513-1.3135-3.0648-0.21892-3.9405-0.43783-0.8756-0.21892-2.8459-2.627-2.8459-2.627s-1.9703 1.0946-6.1297-1.3135-3.0648-0.87567-5.6918-3.5027-5.9108-4.5973-8.5378-7.0054 1.5324-4.3784-4.1595-1.9703c-5.6918 2.4081-3.0648 3.9405-7.4432 1.5324-4.3783-2.4081-4.5972-2.627-5.6918-3.0648-1.0946-0.43784-4.1594-1.5324-5.254-0.87567-1.0946 0.65675-1.7514 0.21891-1.9703 1.9703-0.2189 1.7513-3.5027 3.2838-3.5027 3.2838s-2.627 1.0946-3.7216 1.9702c-1.0945 0.87567-6.7864 1.5324-6.7864 1.5324z" fill="url(#m)"/>
   <path d="m-1423.3 296.77c57.401 61.088 117 122.09 141.25 157.91 7.8433 11.587 4.0395 14.083 12.802 26.952l8.5863-7.5761c-6.688-5.849-9.0271-13.251-12.627-20.203z" fill="#abd121"/>
   <path d="m-1272.3 455.87c1.1475-1.4621 2.6099-1.9468 3.3089-5.1223 0.4028-1.8298-0.1598-3.3745-0.9098-4.7267-17.917-26.15-36.345-53.69-52.402-67.428-25.024-21.41-42.364-30.646-49.946-37.082-13.983-11.87-17.066-11.103-50.059-43.73z" fill="url(#j)"/>
   <path d="m-1128.3 205.85-0.5051 11.049-8.2075 18.877-83.211 177.66-27.682 32.939-5.625 20-5.1786 1.4286 0.9822-13.482 3.1583-6.6668 8.5381-32.262 67.728-153.99 35.987-28.916 8.8742-11.586 2.9464-6.7188 1.7634-5.4688z" fill="#abd121"/>
   <path d="m-1128.3 205.85c-7.4964 20.666-16.781 29.181-32.325 34.598-61.104 21.293-75.598 59.626-91.924 99.753-11.326 27.839-15.512 58.732-2.5253 91.924 2.1288 5.441 0.1478 21.372-1.0102 34.345 1.688-7.1674 2.9815-17.822 4.1579-21.035 18.062-49.328 38.369-88.218 65.262-138.78 12.494-23.489 38.068-62.598 52.139-81.463 2.4683-1.9193 5.3847-13.362 6.2254-19.343z" fill="url(#h)"/>
   <path d="m-1139.5 285.66c-2.8369 48.158-24.797 81.653-48.487 114.15-13.069 17.926-29.923 32.793-46.972 40.406-11.217 5.009-11.845 15.792-14.142 25.759l-6.0609-1.0102c0.6354-5.5949 1.8057-12.91 4.0082-18.787 13.847-36.945 35.783-78.552 53.648-115.68 16.866-33.183 36.082-67.671 63.562-105.44 1.2115-1.6653 2.74-3.5847 5.5558-19.193 5.3843 22.486-14.12 24.412-11.112 79.802z" fill="url(#i)"/>
   <path d="m-1266.6 466.35c1.0455-0.20911 2.1983-8.8272 2.2728-9.2176 1.2039-6.3084 2.8434-9.7584 8.8298-10.72 1.8523 7.6847 0.2365 14.031-0.6223 20.064-0.4206-1.5604-0.1956-2.8999 1.2627-4.1669 2.4431 0.44329 4.6182 1.2974 5.8084 3.6618-0.5904 4.9883-1.1794 9.3672-1.7678 13.511l-18.435 6.1872c-1.7291-3.5507-3.2199-7.022-3.5355-10.102z" fill="#9fc21f"/>
   <path d="m-1250.7 478.41-2.6353 86.097 2.1428 13.571v50.714l-16.071 2.1429-1.7857-65-2.5-4.6429 2.8571-4.2857-0.5321-72.678z" fill="url(#k)"/>
   <path d="m-1176.8 512.01c-31.215 2.6055-56.114 26.111-66.071 35.714-4.5248 4.3637-7.02 15.822-8.3929 30.357l-5.1786-11.429c2.091-9.5428 0.9718-21.461 5.9452-31.468 6.8232-13.729 21.111-19.536 41.376-22.46 15.986-2.3072 24.072-2.0125 32.321-0.71428z" fill="url(#l)"/>
  </g>
 </g>
</svg>
