<?xml version="1.0" encoding="UTF-8"?>
<svg viewBox="0 0 1024 860" xmlns="http://www.w3.org/2000/svg">
 <g fill-rule="evenodd">
  <path d="m519 126l5-20h4l-2 8q-2 9-3 12v3l-3 16q-4 16-4 20t0 9v4l1 6q1 6 1 12 2 7 1 24-1 18 1 16t4-4q0-1 1-3v-2h1v1h1v-1h1v-1h1l1-1 1-1 17-10q18-10 19-10h1l1 2 1 1v1q-1 0-15 8t-14 11q0 2-1 1-2 0-4 0h-1v1h-1v1h-2v1h-1v1h-1v1l-3 3q-3 2-6 6-3 5-4 16-1 10-1 42v33h1v-1h1v-1h1v-1h1v-2h1v-1h1v-3h2l1-1 1-1h1l11-7q10-7 12-7h1l1-1 1-1h1l1-1h1v4h1v1h-2l-1 1-1 1h-1v1t-11 6l-11 7h-1l-1 1-1 1h-1v1l-5 6q-5 6-5 22v52h-8v-9q0-10-1-13v-21q-1-7-5-12l-5-6-1-1v-1h-1l-1-1-1-1h-1l-1-1q-1-1-5-3l-5-4h-2l-1-1-1-1h-1v-1h-1v-1l1-1v-1h5l1 1 1 1h1l6 4q5 4 5 4h1l1 1 1 1h2t1 0h1v1q0 1 0 2v2h1v1h1v2h1v1h1v1h2v-29q0-29 0-45 0-15-2-19-4-4-6-7l-3-2v-1l-1-1-1-1-1-1h-1l-1-1q-1-1-2-1-2 0-2-1t-8-5l-7-4-1-1-1-1h-1v-1h-1v-2h3v-2h1v1h3v1h1v1l9 5q9 5 9 6h1v1h2v1h1v1h3v2q0 2 1 2v1h1v1l1 1 1 1v2h1v1h1v1h2v-10q0-10 2-33t0-29l-2-5v-5q0-5 2-16t7-32z" fill="#74fc0f" stroke="#74fc0f"/>
  <path d="m356 447l-3-1h-2v-1h1v-1h1v-1h1v-1h1v-1h1v-1l15-10q14-10 33-20t20-10q2 0-8 27-11 27-34 24t-26-4z" fill="#f9fcfa" stroke="#f9fcfa"/>
  <path d="m693 163h2q0 1-5 1l-6 1h-4l-5 1h-3q-2 0-8 2-5 0-23 6t-43 16l-24 10-1 1-1 1h-1l-1 1-2 1h-1q-1 0-19 10l-17 10-1 1-1 1h-1v1h-1v1h-1v-1h-1v-1h-1v-8l7-9q6-9 12-14t24-13 42-16q24-6 30-8 6 0 20 0t23 2 11 3z" fill="#08fd03" stroke="#08fd03"/>
  <path d="m520 145l3-16 15 3q16 2 22 2 6-1 7-1 0-1 1-1h1v2q-1 1-1 4l-2 2v1q0 1-2 4t-7 9-20 14l-15 8-2 1-1 1h-3v-4q0-5 0-9t4-20z" fill="#23b907" stroke="#23b907"/>
  <path d="m672 782h3l1 1h1v1l-1 1v2h-1l-1 1h-1v1h-1q0 1 0 1-1 0-17 12t-35 22l-19 10h-3l-2 1h-1v-1l-1-2v-1h2v-1h-1v-2h1l8-19q8-19 11-27t29-4q25 4 28 4z" fill="#fafdfb" stroke="#fafdfb"/>
  <path d="m724 712h4v5l-1 1q-1 1-9 16-8 14-21 29t-44 9l-31-7 8-30q7-30 44-27 38 2 42 3t8 1z" fill="#fcfdfc" stroke="#fcfdfc"/>
  <path d="m564 15v1q0 1-2 2 0 2-5 11t-3 10q1 1-1 2-2 0-4 7-3 7-3 8-1 0-9 22l-7 22-1 2-1 1v3h-4v-2h-1v-1h1v-1l1-2 1-1 3-12q3-12 4-13v-2h1v-2l1-2 1-1 6-14q6-14 12-25 8-11 8-12 1 0 2-1z" fill="#69f70d" stroke="#69f70d"/>
  <path d="m402 764v1h-2q-1 1-30 7-30 6-40-5t-21-30l-11-18-1-1-1-2v-2h5l43-4q43-4 50 24 8 28 8 30z" fill="#fcfdfc" stroke="#fcfdfc"/>
  <path d="m629 597v10h-4q-4-1-5-1 0 0-49 0l-49-2-1-26q-1-26-1-28v-2l52-2q53-3 55 19 1 22 2 32z" fill="#fcfdfd" stroke="#fcfdfd"/>
  <path d="m498 384h9v3q1 3 1 13v9h1l-1 25q-2 25-2 26v1h-16q-17-1-46-3l-30-2 8-29q7-29 30-35t30-6q8-2 16-2z" fill="#fcfdfc" stroke="#fcfdfc"/>
  <path d="m642 693h-2l3-29q3-28 4-36 0-8 43-11 42-3 48-3h6l-2-1-1-1h-8q-8 0-47-3-39-2-39-9-1-8-3-34l-3-25 35-6q36-5 46-7 9-2 15 15 7 18 9 36 4 18 3 43-1 24-5 43t-8 31q-5 12-40 6t-43-8q-8 0-11-1z" fill="#fcfefd" stroke="#fcfefd"/>
  <path d="m569 6h1v1q0 1-3 5l-3 3q-1 1-2 1 0 1-8 12-6 11-12 25l-6 14-1 1-1 2v2h-1v-2q-1-3-5-6-5-4-6-2l-1 1h-2v-1l1-1v-1l8-13q8-13 19-23t13-10q1-2 2-2h1v-1h1l1-1q1 0 2-2t2-2z" fill="#0dfd07" stroke="#0dfd07"/>
  <path d="m519 726l1-24 52 1q51 1 46 29-4 27-5 29v2h-3q-4-1-11-1-7-2-43-4l-37-2v-1h-1v-3q0-3 1-26z" fill="#fcfdfd" stroke="#fcfdfd"/>
  <path d="m332 180h2v-1h1v2l11 1q12 0 23 4 11 2 14 4 3 0 5 1l1 1v3h-3l-2-1h-2q-2 0-8-2t-22-6l-15-4h-3q-2 0-3-1h-1v-1h2z" fill="#62f811" stroke="#62f811"/>
  <path d="m652 429l16 11v1h1v1h1v1h1v1h1v1h1v1h-3l-2 1q-3 1-26 4t-34-24q-10-27-8-27 1 0 19 10 18 8 33 19z" fill="#f9fcfa" stroke="#f9fcfa"/>
  <path d="m405 278l-3 1q-2 1-2 2t0 5v6h1q1 1 1 2h-1q-1 0-3-1l-1-1h-2q-2 0-9-3-8-3-22-5l-13-2h-1t-8 0l-8-2h-4v-2h5l1-1 2-1 12-2q11-2 24-1t22 3 9 2z" fill="#10fd06" stroke="#10fd06"/>
  <path d="m566 305h1l3 1q2 1 9 13 6 11 9 15 4 4 4 4h1l2 1 2 1h-1v1l-1 1h-3l-2 1q-2 1-6 1-5 2-14 0-10 0-25-6l-15-6-1-1-1-1h-1v-1h-1v-1h1l1-1 1-1h1l11-7q11-6 11-6v-1h1l1-1 1-1h2v-1h1l1-1h2l1-1 1-1h1q1 0 2-1z" fill="#22b808" stroke="#22b808"/>
  <path d="m0 430v-430h1024v860h-1024v-430zm569-298v2q-1 1-1 4l-2 2v1q0 1-2 4t-7 9-20 14l-15 8-2 1-1 1h-3l1 6q1 6 1 12 2 7 1 24-1 18 1 16t4-4q0-1 1-3v-3h-1v-8l7-9q6-9 12-14t24-13 42-16q24-6 30-8 6 0 20 0t23 2 11 3h3v1h6v1h-1v1h-1v1h-1v1h-1v1h-1v1h-1q-1 0-4 3-4 3-12 10-8 8-23 21-14 12-27 22-14 10-27 16t-26 6-28-6l-15-6-1-1-1-1h-1v-1h-1l-3 3q-3 2-6 6-3 5-4 16-1 10-1 42v33h1v-1h1v-1h1v-1h1v-2h1v-1h1v-4l-1-1-1-2v-1l3-6q3-6 7-12 5-7 16-13 11-8 31-16t41-12q20-6 35-6t25 2q9 2 10 3h2q1 1 3 1h2l2 1 2 1h-1l-1 1-1 1h-1v1h-1v1h-1q-1 0-5 3-3 3-16 15-12 12-30 27t-32 22l-13 7q-1 1-1 1l-1 1h-3l-2 1q-2 1-6 1-5 2-14 0-10 0-25-6l-15-6-1-1-1-1h-1v-1h-1l-5 6q-5 6-5 22v16h2q3 1 12 1 8 0 23 3t34 9 35 14q17 8 34 19 16 11 28 23 12 11 22 24 11 14 20 30 10 16 18 35 8 20 12 41 4 20 4 40 0 19 0 29-2 10-5 26t-11 35q-6 18-16 34-10 17-20 30-10 12-13 16-4 3-4 4-1 1-6 6t-22 18q-17 12-38 23t-41 17-70 6q-51 0-67-4t-35-13q-20-9-37-19-17-12-31-24-14-13-25-27-12-15-22-32-11-17-17-36-8-19-12-39t-4-40q0-19 1-32 1-12 7-32 4-19 12-36t18-34q12-18 24-31t22-23q12-9 27-19 15-11 33-19t38-13 40-8l21-2v-7q-1-7-5-12l-5-6h-1v1h-1v1h-2l-1 1-1 1h-1q-1 0-11 4t-21 6q-10 2-16 2l-6-2h-4l-1-1h-1q-1-1-1-1h-1q-1 0-11-6-10-4-23-14-14-10-30-26-16-15-25-22l-9-8h-2v-1h-1v-1h-1v-1h-1v-1h-1l3-1h3v-1h5l1-1 2-1 12-2q11-2 24-1t22 3 9 2l18 5q18 5 36 14 17 8 25 13 8 6 12 14 6 8 6 10v8q0 1-1 1v1l1 2v1h1v1h1v2h1v1h1v1h2v-29q0-29 0-45 0-15-2-19-4-4-6-7l-3-2h-1l-1 1-1 1h-1l-1 1q-1 1-16 6-14 5-24 6-9 1-14-1h-4l-2-1-2-1h-2v-1h-2q0-1 0-1h-1q-1 0-9-4t-22-14q-13-10-30-27-18-16-26-23l-9-6v-1h-1v-1h-1v-1h-1v-1h-1l3-1h2v-1h4v-1h2l1-1h4l13-2q12-2 26-1 15 1 39 9 24 6 42 15t25 15 11 12q5 7 5 8v12q0 2 1 2v1h1v1l1 1 1 1v2h1v1h1v1h2v-10q0-10 2-33t0-29l-2-5h-1l-1-1h-3v-1h-1v-1h-1v-1h-1v-1h-1v-1q-1 0-3-7t-3-18 4-29 12-37l8-19q0-1 1-1v-2l8-13q8-13 19-23t13-10q1-2 2-2h1v-1h1l1-1q1 0 1-1h1q0-1 1-1 0 0 0-1h1q0-1 1-1h1q1-1 1 17t2 27q0 9 0 36 0 28-3 37-2 9-2 9z" fill="#fefefe" stroke="#fefefe"/>
  <path d="m689 259h1q1 1 3 1h2l2 1 2 1h-1l-1 1-1 1h-1v1h-1v1h-1q-1 0-5 3-3 3-16 15-12 12-30 27t-32 22l-14 8v-1q0-1-2-1l-1-1h-1t-4-4q-3-4-9-15-7-12-9-13l-3-1v-1h2l1-1 1-1 21-9q22-9 52-19 31-10 36-11 4-1 3-1t-1-1l4-1q3 0 3-1z" fill="#22b807" stroke="#22b807"/>
  <g fill="#08fd03" stroke="#08fd03">
   <path d="m402 279l3-1 18 5q18 5 36 14 17 8 25 13 8 6 12 14 6 8 6 10v8h-1v1h-1l-1-1h-1l-1-1-1-1h-1t-5-4l-6-4h-1l-1-1-1-1h-2l-1-1-1-1h-1l-2-1-1-1h-1q-1 0-18-9-16-9-34-16l-18-7q0-1-1-2h-1v-6q0-4 0-5t2-2z"/>
   <path d="m533 70v4q-1 1-4 13l-3 12-1 1-1 2v1h-1v1h1v2l-5 20q-5 21-7 32t-2 16v5h-1l-1-1h-3v-1h-1v-1h-1v-1h-1v-1h-1v-1q-1 0-3-7t-3-18 4-29 12-37l8-19q1 0 1-1l2-1q1-1 6 3 4 3 5 6z"/>
  </g>
  <path d="m400 463h2v1q0 2-8 33t-50 27l-43-4h-5v-2l1-2 1-1 11-18q11-19 23-32t14-14q1-1 27 5t27 7z" fill="#fcfdfc" stroke="#fcfdfc"/>
  <path d="m688 259h1q0 1-3 1l-4 1h-4q-5 1-14 2-8 1-34 10-25 9-48 19l-22 10-1 1-1 1h-2v1h-1l-1 1h-1l-1 1-1 1h-1q-2 0-12 7l-11 7h-1l-1 1-1 1h-2v-1l-1-1-1-2v-1l3-6q3-6 7-12 5-7 16-13 11-8 31-16t41-12q20-6 35-6t25 2q9 2 10 3z" fill="#09fd03" stroke="#09fd03"/>
  <path d="m389 194v-2l19 7q20 7 23 7 3 2 19 10 15 8 16 8h1l1 1 1 1h2l1 1v2h-3v2h-1v-1h-2l-1-1-1-1h-1q-1 0-5-2l-4-2-1-1-1-1h-1q-1 0-2-1t-9-4q-9-3-9-4t-19-8l-19-7-1-1q-2-1-4-1l-1-1h2v-1z" fill="#6bf90b" stroke="#6bf90b"/>
  <g fill="#fcfdfd" stroke="#fcfdfd">
   <path d="m616 621h13l-2 31q-1 31-2 35v4h-5q-4-1-52-3l-47-2v-31l1-31 40-2q41 0 54-1z"/>
   <path d="m490 472h15v1h1l-1 16q-1 16-1 29v14h-23q-23 0-51-2l-29-1 4-27q5-28 5-32 1-5 34-2 32 4 46 4z"/>
   <path d="m516 396v-12l16 1q17 1 40 7t30 33q8 27 8 29v2h-3q-3 0-13 2-11 0-44 2-33 0-35-22l-1-23-1-3v-3h3v-13z"/>
   <path d="m623 526v4h-3q-2 0-51 1l-49 1v-5q0-5-2-29v-26l34-2q33-2 47-3 13-1 19 27 4 27 5 32z"/>
  </g>
  <path d="m324 280l3-1h3v1h4l8 2q8 0 8 0h1l37 13q37 13 50 20 14 6 14 6v1h3v1h-1l-1 1-9 14q-8 14-10 15-2 2-2 2v1h-1v1h-1v1q0 1 0 2v1h-1q-1-1-11-6-11-5-24-15-14-10-30-26-16-15-25-22l-9-8h-2v-1h-1v-1h-1v-1h-1v-1h-1z" fill="#22b807" stroke="#22b807"/>
  <path d="m346 534l37 6-3 25q-2 25-3 34 0 9-41 11-40 2-47 3l-7 1h-1l48 4q47 3 51 34 2 31 3 34t1 6v2h-2q-2 0-6 1t-44 8q-39 7-44-7-4-13-8-32t-5-42q-1-22 3-41 2-19 9-38 6-19 15-17 8 2 44 8z" fill="#fcfefd" stroke="#fcfefd"/>
  <path d="m503 655v31h-1q-2 0-52 3l-51 3-2-36q-2-35 52-34 53 2 54 33z" fill="#fcfdfd" stroke="#fcfdfd"/>
  <path d="m423 819l1 1v2l1 2 1 1v2h1v1h1t1 0v2h-1v1h2v3h1v1h-1v1h-2l-2-1-1-1h-1q-1 0-6-2t-23-12-31-21l-12-10h-1v-1h-1l-1-1-1-1-1-2v-1h1l1-1 23-4q24-4 29-4t13 22 9 23z" fill="#fafcfb" stroke="#fafcfb"/>
  <path d="m481 702h23l1 20q1 19 1 26v8h-14q-14 0-48 4l-33 3v-2q-1-2-5-28l-4-26-1-1v-1l29-1q28-2 51-2z" fill="#fcfdfc" stroke="#fcfdfc"/>
  <path d="m492 767h15l2 31q1 31 2 38l1 8v1l1-7q1-8 3-39t17-31 46 2l31 2-7 26q-7 27-7 28v2h-1v3h-1v3q0 1-1 2 0 1-5 2-4 2-24 6-21 4-52 4t-52-4q-20-4-24-7l-5-2v-1h-1v-3h-1v-3q-1 0-1 0v-3l-1-2-1-2v-1q0-2-6-25l-6-23 32-2q31-2 46-3z" fill="#fcfdfd" stroke="#fcfdfd"/>
  <path d="m727 516l1 1v5h-4q-3 0-17 2t-41 3-36-31l-8-33 28-6q27-7 31-4 3 3 16 18t21 29q8 15 9 16z" fill="#fcfdfc" stroke="#fcfdfc"/>
  <path d="m502 234v10h-3v-1h-1v-1h-2v-1h-1q0-1-9-6l-9-5v-1h-1v-1h-3v-1h-1l-1-1h-2l-1-1-1-1h-1q-1 0-16-8-16-8-19-10-3 0-23-7l-19-7-1-1q-2-1-5-1-3-2-14-4-11-4-23-4l-11-1v-2h1l1-1h4l13-2q12-2 26-1 15 1 39 9 24 6 42 15t25 15 11 12q5 7 5 8z" fill="#08fd03" stroke="#08fd03"/>
  <path d="m444 338l9-14 1-1h1l7 3q6 4 7 4h1l1 1 1 1h1l1 1h2v1h1l1 1 1 1h2l5 4q4 2 5 3l1 1h1l1 1 1 1h1v1l1 1h-1v1h-1v1h-2l-1 1-1 1h-1q-1 0-11 4t-21 6q-10 2-16 2l-6-2h-4l-1-1h-1v-1h-1v-1l1-1v-1h1v-1h1v-1t2-2q2-1 10-15z" fill="#22b808" stroke="#22b808"/>
  <path d="m678 261h4q0 1 1 1t-3 1q-5 1-36 11-30 10-52 19l-21 9-1 1-1 1h-2v1h-1q-1 1-2 1h-1l-1 1-1 1h-2l-1 1h-2v-5h2l1-1 1-1 22-10q23-10 48-19 26-9 34-10 9-1 14-2z" fill="#6af90c" stroke="#6af90c"/>
  <path d="m486 375l21-2v11h-9q-8 0-16 2-7 0-30 6t-30 35l-8 29 30 2q29 2 46 3h16v-1q0-1 2-26l1-25h4v3l1 3 1 23q2 22 35 22 33-2 44-2 10-2 13-2h3v-2q0-2-8-29-7-27-30-33t-40-7l-16-1v-11h2q3 1 12 1 8 0 23 3t34 9 35 14q17 8 34 19 16 11 28 23 12 11 22 24 11 14 20 30 10 16 18 35 8 20 12 41 4 20 4 40 0 19 0 29-2 10-5 26t-11 35q-6 18-16 34-10 17-20 30-10 12-13 16-4 3-4 4-1 1-6 6t-22 18q-17 12-38 23t-41 17-70 6q-51 0-67-4t-35-13q-20-9-37-19-17-12-31-24-14-13-25-27-12-15-22-32-11-17-17-36-8-19-12-39t-4-40q0-19 1-32 1-12 7-32 4-19 12-36t18-34q12-18 24-31t22-23q12-9 27-19 15-11 33-19t38-13 40-8zm-130 72l-3-1h-2v-1h1v-1h1v-1h1v-1h1v-1h1v-1l15-10q14-10 33-20t20-10q2 0-8 27-11 27-34 24t-26-4zm296-18l16 11v1h1v1h1v1h1v1h1v1h1v1h-3l-2 1q-3 1-26 4t-34-24q-10-27-8-27 1 0 19 10 18 8 33 19zm-252 34h2v1q0 2-8 33t-50 27l-43-4h-5v-2l1-2 1-1 11-18q11-19 23-32t14-14q1-1 27 5t27 7zm327 53l1 1v5h-4q-3 0-17 2t-41 3-36-31l-8-33 28-6q27-7 31-4 3 3 16 18t21 29q8 15 9 16zm-237-44h15v1h1l-1 16q-1 16-1 29v14h-23q-23 0-51-2l-29-1 4-27q5-28 5-32 1-5 34-2 32 4 46 4zm133 54v4h-3q-2 0-51 1l-49 1v-5q0-5-2-29v-26l34-2q33-2 47-3 13-1 19 27 4 27 5 32zm-277 8l37 6-3 25q-2 25-3 34 0 9-41 11-40 2-47 3l-7 1h-1l48 4q47 3 51 34 2 31 3 34t1 6v2h-2q-2 0-6 1t-44 8q-39 7-44-7-4-13-8-32t-5-42q-1-22 3-41 2-19 9-38 6-19 15-17 8 2 44 8zm296 159h-2l3-29q3-28 4-36 0-8 43-11 42-3 48-3h6l-2-1-1-1h-8q-8 0-47-3-39-2-39-9-1-8-3-34l-3-25 35-6q36-5 46-7 9-2 15 15 7 18 9 36 4 18 3 43-1 24-5 43t-8 31q-5 12-40 6t-43-8q-8 0-11-1zm-245-131l2-20 51 3q50 3 52 3h1v28l-1 28-22 1q-23 1-54 1l-31 1v-12q1-12 2-33zm232 35v10h-4q-4-1-5-1 0 0-49 0l-49-2-1-26q-1-26-1-28v-2l52-2q53-3 55 19 1 22 2 32zm-126 58v31h-1q-2 0-52 3l-51 3-2-36q-2-35 52-34 53 2 54 33zm113-34h13l-2 31q-1 31-2 35v4h-5q-4-1-52-3l-47-2v-31l1-31 40-2q41 0 54-1zm-135 81h23l1 20q1 19 1 26v8h-14q-14 0-48 4l-33 3v-2q-1-2-5-28l-4-26-1-1v-1l29-1q28-2 51-2zm38 24l1-24 52 1q51 1 46 29-4 27-5 29v2h-3q-4-1-11-1-7-2-43-4l-37-2v-1h-1v-3q0-3 1-26zm205-14h4v5l-1 1q-1 1-9 16-8 14-21 29t-44 9l-31-7 8-30q7-30 44-27 38 2 42 3t8 1zm-322 52v1h-2q-1 1-30 7-30 6-40-5t-21-30l-11-18-1-1-1-2v-2h5l43-4q43-4 50 24 8 28 8 30zm90 3h15l2 31q1 31 2 38l1 8v1l1-7q1-8 3-39t17-31 46 2l31 2-7 26q-7 27-7 28v2l8-19q8-19 11-27t29-4q25 4 28 4h3l1 1h1v1l-1 1v2h-1l-1 1h-1v1h-1q0 1 0 1-1 0-17 12t-35 22l-19 10h-3l-2 1h-1v-1l-1-2v2q0 1-1 2 0 1-5 2-4 2-24 6-21 4-52 4t-52-4q-20-4-24-7l-5-2h-1v1h-2l-2-1-1-1h-1q-1 0-6-2t-23-12-31-21l-12-10h-1v-1h-1l-1-1-1-1-1-2v-1h1l1-1 23-4q24-4 29-4t13 22 9 23l1 1v2l1 2 1 1v2h1v1h1v-3l-1-2-1-2v-1q0-2-6-25l-6-23 32-2q31-2 46-3z" fill="#55cc7d" stroke="#55cc7d"/>
  <g fill="#22b807" stroke="#22b807">
   <path d="m453 225v-1h1l4 2q4 2 5 2h1l1 1 1 1h2v1h2v1h1l1 1 1 1 7 4q8 4 8 5t2 1q1 0 2 1l1 1h1l1 1 1 1 1 1v1h-1l-1 1-1 1h-1l-1 1q-1 1-16 6-14 5-24 6-9 1-14-1h-4l-2-1-2-1h-2v-1h-1v-1h-1l2-1 2-1 5-5q5-5 11-17 6-11 7-11z"/>
   <path d="m695 163h1v1h6v1h-1v1h-1v1h-1v1h-1v1h-1v1h-1q-1 0-4 3-4 3-12 10-8 8-23 21-14 12-27 22-14 10-27 16t-26 6-28-6l-15-6-1-1-1-1h-1v-1h-1v-1h1v-1h1v-1h2v-1h1v-1l17-10q17-10 18-10h1l1-1 2-1h1l9-4q8-4 10-5 2 0 2-1t36-13q35-13 44-15 8-2 8-3l6-1q5 0 5-1zm-155 66q0-1 0-1 0 1 0 1z"/>
  </g>
  <path d="m672 166h3l5-1h4q0 1-8 3-9 2-44 15-36 12-36 13t-2 1q-2 1-10 5l-9 4h-1l-2 1-1 1h-1v-1l-1-1-1-2 2-1 1-1h1l1-1 1-1 24-10q25-10 43-16t23-6q6-2 8-2z" fill="#6af90c" stroke="#6af90c"/>
  <path d="m395 292h2l1 1q2 1 3 1h1l18 7q18 7 34 16 17 9 18 9h1l1 1 2 1h1l1 1 1 1h-3v1l-1 1v1h-1l-1-1h-1l-1-1-1-1h-1q-1 0-7-4l-7-3v-1h-3v-1t-14-6q-13-7-50-20l-37-13 13 2q14 2 22 5 7 3 9 3z" fill="#6af90b" stroke="#6af90b"/>
  <path d="m397 562l2-20 51 3q50 3 52 3h1v28l-1 28-22 1q-23 1-54 1l-31 1v-12q1-12 2-33z" fill="#fcfdfd" stroke="#fcfdfd"/>
  <path d="m325 182l3-1h3q1 1 3 1h3l15 4q16 4 22 6t8 2h2l2 1h1l1 1q2 0 4 1l1 1 19 7q19 7 19 8t9 4q8 3 9 4t2 1h1l1 1 1 1h-1v1q-1 0-7 11-6 12-11 17l-5 5-2 1q-1 0-1 1v1h-1q-1-1-10-5-8-4-22-14-13-10-30-27-18-16-26-23l-9-6v-1h-1v-1h-1v-1h-1v-1h-1z" fill="#21b807" stroke="#21b807"/>
  <path d="m569 132h-1q-1 0-1 1-1 0-7 1-6 0-22-2l-15-3v-3q1-3 3-12l2-8v-3l1-1 1-2 7-22q8-22 9-22 0-1 3-8 2-7 4-7 2-1 1-2-2-1 3-10t5-11q2-1 2-2v-1l1-1q1-2 2-4v-1q1 0 1-1 0 0 1 0v-1q1 0 1-1h1q1-1 1 17t2 27q0 9 0 36 0 28-3 37-2 9-2 9z" fill="#23b807" stroke="#23b807"/>
 </g>
</svg>
