<?xml version="1.0" encoding="UTF-8"?>
<svg viewBox="0 0 607.3241 265.71689" xmlns="http://www.w3.org/2000/svg" xmlns:xlink="http://www.w3.org/1999/xlink">
 <defs>
  <linearGradient id="a">
   <stop stop-color="#fff" offset="0"/>
   <stop stop-color="#fff" stop-opacity="0" offset="1"/>
  </linearGradient>
  <linearGradient id="d" x1="-344.15" x2="-395.85" y1="274.71" y2="425.4" gradientTransform="matrix(-1.206 0 0 1.206 13.267 -334.34)" gradientUnits="userSpaceOnUse" xlink:href="#a"/>
  <linearGradient id="c" x1="-344.15" x2="-395.85" y1="274.71" y2="425.4" gradientTransform="matrix(-1.206 0 0 1.206 -326.45 -334.06)" gradientUnits="userSpaceOnUse" xlink:href="#a"/>
  <radialGradient id="b" cx="-155.86" cy="172.5" r="133.8" gradientUnits="userSpaceOnUse">
   <stop stop-color="#959595" offset="0"/>
   <stop offset="1"/>
  </radialGradient>
 </defs>
 <g transform="translate(-22.052 -39.504)">
  <path transform="scale(-1,1)" d="m-217.3 39.789h122.89a72.361 72.361 0 0 1 72.361 72.361v120.71a72.361 72.361 0 0 1 -72.361 72.361h-122.89a72.361 72.361 0 0 1 -72.361 -72.361v-120.71a72.361 72.361 0 0 1 72.361 -72.361" fill="url(#b)" fill-rule="evenodd"/>
  <path transform="scale(-1,1)" d="m-557.02 39.504h122.89a72.361 72.361 0 0 1 72.361 72.361v120.71a72.361 72.361 0 0 1 -72.361 72.361h-122.89a72.361 72.361 0 0 1 -72.361 -72.361v-120.71a72.361 72.361 0 0 1 72.361 -72.361" fill="#000a10" fill-rule="evenodd"/>
  <path d="m558.67 50.851h-126.2c-33.407 0-60.301 26.894-60.301 60.301v122.13c1.0813 26.077 5.2408 9.5916 13.158-19.287 9.2016-33.562 39.168-62.896 75.662-84.88 27.855-16.78 59.033-27.494 115.79-28.514 32.186-0.5781 29.344-41.435-18.1-49.755z" fill="url(#d)" fill-rule="evenodd"/>
  <path d="m218.96 51.137h-126.2c-33.407 0-60.301 26.894-60.301 60.301v122.13c1.0813 26.077 5.2407 9.5916 13.158-19.287 9.2016-33.562 39.168-62.896 75.662-84.88 27.855-16.78 59.033-27.494 115.79-28.514 32.186-0.5781 29.344-41.435-18.1-49.755z" fill="url(#c)" fill-rule="evenodd"/>
  <path d="m146.59955,263.06894c-5.65396-.64385-12.31347-1.96392-12.6462-2.50681-.20191-.32932.71827-.81115 2.04488-1.07072 3.17298-.62072 3.22759-.62089 8.0799-.02259 2.75929.34017 4.35094.23464 4.68528-.31067 .35676-.58208 1.37808-.47431 3.45873.365 2.6473,1.06794 4.71684,1.11788 8.15037.19645 .65264-.17511 1.0267.12848.9001.73064-.15215.72418.17959.86181 1.11681.46282 .73324-.3121 2.33833-.51276 3.56667-.44588l2.2334.12158-1.7941-1.27407-1.79424-1.27398 1.70404-.63551c1.0872-.40553 2.0798-.32125 2.7419.23285 1.332,1.11456 10.4915.31937 14.1698-1.23014 1.4575-.6139 3.6978-1.12828 4.9785-1.1429s3.1662-.50927 4.1899-1.09923c2.0691-1.19257 3.7224-1.4334 3.7224-.54235 0,.67648-7.299,3.95437-13.7729,6.18511-8.7917,3.02953-24.87569,4.49699-35.73524,3.2604zm19.88574-12.04539c-2.67458-1.10793-4.16904-3.7867-2.958-5.30196 .529-.66178.44884-.9417-.27185-.94977s-.76677-.17537-.16416-.56289c.4717-.30332 1.08479-2.24036 1.36238-4.30443s.94224-5.273 1.47703-7.1308 .9672-4.0531.9609-4.8787c-.0121-1.5903.6401-6.5977 1.4009-10.7559 .6097-3.332-.8591-5.9165-4.3958-7.7356-1.56878-.807-3.03454-2.0429-3.25735-2.7468-1.10667-3.4963-3.68064-8.7301-5.73197-11.6549-2.00247-2.8552-.63542-8.9564 2.67429-11.9356 1.99727-1.7978 2.33852-2.5838 2.13875-4.9259-.13072-1.5329-.50801-2.9558-.8385-3.1623s-.63273-.713-.67182-1.1258-.48981-.7507-1.00168-.7507-.8498.4133-.75109.9182c.23276,1.191-4.23043.359-5.62689-1.0488-.54289-.5474-1.29818-.9952-1.67834-.9952s-.69137-.4478-.69137-.9951c0-1.6083-3.14358-4.0544-5.95585-4.6343-1.43313-.2956-3.34002-1.2169-4.23743-2.0474-1.09394-1.0123-2.87621-1.5777-5.40695-1.7154-3.87888-.211-7.86812-2.1255-7.08628-3.4009 .24243-.3955-.56253-.7176-1.79357-.7176-2.78923,0-3.64943-1.2582-1.83749-2.6879 .75763-.5977 1.01253-.9975.56665-.8883-.67577.1655-3.53736-2.7647-5.6701-5.8062-.28952-.4128-1.54431-1.9328-2.78861-3.3777l-2.26222-2.627 1.16738,2.4393c.64196,1.3417 1.46729,2.4395 1.83391,2.4395s.48676.4724.26691,1.0499-.04169,1.273.39558,1.5456 .79529,1.0345.79529,1.6934c0,1.0433-.19214,1.0225-1.48899-.1607-.81886-.7472-1.48889-1.8234-1.48889-2.3916s-.51259-1.2314-1.13895-1.4738c-.6955-.2691-.97353-.9659-.71424-1.7897 .23366-.742.07612-1.5664-.35003-1.8319s-.77475-1.089-.77475-1.8301-.80712-2.2253-1.79356-3.2984c-2.73625-2.9767-3.48895-7.784-1.8548-11.8462 1.50037-3.7296 1.79069-6.6879.65622-6.6879-.42822,0-.56405-.7816-.31193-1.7946 .24576-.987.08464-2.0203-.35801-2.296-.44534-.2775-.80479.0211-.80479.6686 0,.6436-.3477,1.1702-.77269,1.1702s-.70787-.76-.6287-1.6888c.2732-3.205-.09208-4.3159-1.41914-4.3159-1.69063,0-6.94229,2.6762-7.71032,3.9292-.32018.5223-.84558.9538-1.16764.9587-.32206.005-2.13427,1.0894-4.02718,2.4098s-3.63822,2.2024-3.87869,1.96 .63596-1.1698 1.9475-2.0609 2.49919-2.2838 2.63915-3.095 1.48235-2.5718 2.98308-3.9125 2.09652-2.2157 1.3241-1.9445c-2.13857.751-1.12703-1.4218 1.19311-2.5629 1.05171-.5173 2.11257-1.6996 2.35734-2.6272 .58862-2.2299 5.73144-5.808 8.39569-5.8412 1.16298-.0145 4.12463-.4569 6.58141-.9833s5.70086-.8728 7.20903-.77c2.25361.1535 2.72396-.0565 2.64004-1.1793-.08275-1.1078-.34851-1.211-1.40542-.5455-.71683.4513-1.53382.5882-1.81553.3042-.71163-.7175 1.13133-2.8045 2.4765-2.8045 .64825,0 .93767-.4401.70007-1.0644-.26683-.7012.5315-1.4802 2.33995-2.2829 1.50978-.67 2.075-1.0644 1.25613-.8764-1.96507.4513-6.37034,2.0072-7.9931,2.8231-.7111.3575-1.96732.6501-2.79184.6501s-1.49912.2976-1.49912.6616c0,.6522-5.30653,2.7992-8.93373,3.6146-1.61191.3622-1.51212.1764.74445-1.3874 8.06143-5.5865 15.2276-8.6624 26.27327-11.2774 5.66312-1.3406 9.18828-1.6272 20.25691-1.6467 13.35484-.0234 23.37394,1.1858 21.17544,2.5556-.5517.3439-1.2838.4504-1.6267.2368s-4.1024-.4901-8.35458-.6143c-6.48906-.1897-7.66504-.052-7.31923.8563 .22649.5953.83178.9199 1.345.7213 1.27837-.4945 7.29091,2.6686 11.18031,5.8819 1.7638,1.4572 3.4887,2.6494 3.8332,2.6494s1.0611.7021 1.5926,1.5602c.8462,1.3661.7852,1.6079-.4915,1.9445-1.9169.5054-2.44,3.5557-1.2117,7.0659 .5398,1.5424.8194,2.9678.6213,3.1676-.6807.6862-5.0802-2.0125-7.9488-4.876-1.57966-1.5767-3.23022-2.6436-3.66794-2.3708s-.58135.1459-.31677-.2856-.03505-1.2117-.6633-1.7374-.97021-1.4085-.75969-1.9615c.215-.5651-.10661-1.0057-.73396-1.0057-.61426,0-1.30958-.5066-1.54529-1.1259s-.78507-1.1259-1.22081-1.1259-1.33603-.4961-2.0005-1.1023c-.89033-.8124-1.78702-.9281-3.40879-.4398-1.21041.3644-1.75563.6915-1.21166.7269 1.605.1049 6.93503,5.9864 6.70469,7.3986-.11647.7138.00905,1.6517.27893,2.0843s.18739,1.2769-.18326,1.8765c-.57284.9264-1.15205.8362-3.85942-.6009-1.75205-.93-3.75201-1.69-4.44437-1.6889-1.68668.0029-2.46825-1.4003-1.07932-1.9377 .60852-.2354 1.29765-.9306 1.53148-1.545 .31901-.8382.05469-.9984-1.05915-.6419-1.09323.3498-1.48424.132-1.48424-.8266 0-.7158-.22047-1.0793-.4899-.8077s-.85572.1879-1.30285-.1861c-.56145-.4696-.81017.1309-.80389,1.9409 .006,1.7137.46237,2.8766 1.31854,3.3597 .72015.4064 1.15249.9947.96079,1.3075s.555.4363 1.65943.2746c1.35414-.1983 3.09884.4486 5.35818,1.987 2.58266,1.7586 3.40529,2.029 3.59089,1.1805 .36698-1.678 1.06355-1.3637 4.23483,1.9106 1.60402,1.6562 3.24237,2.9016 3.64082,2.7678 .83993-.2823 2.78293,1.5452 4.57573,4.3037 1.2543,1.9301 3.0744,2.7535 2.1848.9885-.2601-.516.2227-.1409 1.0728.8337s1.5406,2.3257 1.5343,3.0024c-.01,1.0686-.1063,1.0823-.7331.1045-.6415-1.0008-.7295-1.0008-.7919,0-.0481.7727-.188.8315-.4457.1877-.6002-1.5-3.8268-1.1734-3.705.3749 .0656.8315-.511,1.4012-1.5716,1.5534-.9213.1321-1.67516.5989-1.67516,1.0374 0,.4969-1.1221.6455-2.97788.3945-2.43159-.3288-2.98102-.1748-2.99447.8394-.00915.6832-.67174,2.0866-1.47249,3.1186s-1.46325,2.3401-1.4724,2.9067c-.01399.8731-.21312.8731-1.30653,0-1.19669-.9557-1.19445-.8795.03094,1.0552 1.45509,2.297 1.20431,3.0559-1.87229,5.6659-2.10028,1.7818-2.78529,4.8561-1.28958,5.788 1.09359.6815 2.29423,4.0689 1.75429,4.9497-.64555,1.0531-2.60328-.8103-3.74528-3.5645-.70563-1.702-1.61236-2.4689-3.32791-2.8148-3.65787-.7376-5.14981-.5695-5.14981.5802 0,.6789-.52075.9183-1.45931.6708-1.6857-.4444-6.21452,2.1565-7.84732,4.5069-1.43411,2.0643-1.41537,4.5382.0581,7.6688 1.3709,2.9128 2.48134,3.4876 5.54386,2.87 1.53274-.3091 2.37429-1.0101 2.67824-2.2314 .24387-.9793.82577-1.8065 1.29326-1.8381s1.43483-.1704 2.14978-.3084c1.94203-.3751 2.25342.7949.90906,3.4159-.66115,1.289-1.01271,2.5344-.78139,2.7677s.03623.8912-.43368,1.462c-.70751.8595-.3712.9843 1.95629.7257 4.60996-.5122 5.52118.0225 5.47752,3.2139-.07379,5.3871 1.66194,7.63 4.6547,6.0152 .98671-.5325 1.88484-.5316 2.87504.0026 1.91541,1.0336 2.00426,1.0153 3.63151-.7457 .77394-.8375 2.04326-1.6528 2.82079-1.8118s2.05492-.5445 2.83862-.8566c.9993-.398 1.2642-.3052.8868.3106-.2961.483-.1836.8782.25.8782s.7885-.3177.7885-.7061 .8972-.2367 1.9939.3369 2.321.8392 2.7207.5901 .5113-.1012.2479.3284 .2711.9839 1.1878,1.2316c2.3428.6331 2.9368.5777 2.4431-.2278-.2356-.3843-.0362-.9432.4433-1.2419 .5444-.3392.6721-.2178.3404.3234-.4938.8057.5429,1.1638 3.093,1.0683 .5118-.0192.9366.5187.944,1.1952 .0188,1.7221 5.0927,5.7636 7.9503,6.3325 2.8802.5732 5.437,2.6436 5.437,4.4026 0,.7095.3568,1.5124.7929,1.7842 .5189.3233.3328,1.0521-.5386,2.1084-.7323.8879-.8585,1.1961-.2805.6849 .8528-.7541 1.9421-.4356 5.7756,1.6889 2.5986,1.44 5.3311,2.6182 6.0725,2.6182s1.9339.6528 2.65,1.4506 1.7732,1.2683 2.3489,1.0456c.7572-.293 1.0468.2231 1.0468,1.8658 0,1.6009-.9773,3.4251-3.3125,6.1832-1.8218,2.1519-3.5392,4.966-3.8164,6.2537-.7646,3.5508-4.105,7.8376-6.8302,8.7649-1.3308.4529-2.4195,1.2961-2.4195,1.8738s-.9214,1.6475-2.0473,2.3775-2.6516,2.0804-3.39,3.0013c-3.6562,4.5595-7.6394,7.7574-9.2966,7.4638-1.2859-.2278-1.6521.0145-1.489.9854 .232,1.3804-1.3718,3.7701-2.5301,3.7701-.3867,0-2.5233,1.5844-4.7481,3.52093-2.687,2.3389-3.746,3.70738-3.1542,4.07606 .6256.38975.3483,1.01791-.9305,2.10809-1.7075,1.45581-1.74,1.61666-.5185,2.57432 .7166.56181 1.3028,1.19813 1.3028,1.41412 0,.95192-2.8126.98124-5.0544.05263zm-2.9953-129.09985c-.53742-.2168-1.17947-.1901-1.42694.0593s.19241.4269.97712.3942c.86737-.0359 1.04373-.2138.44982-.4535zm5.0455-3.4043c.0145-.2967-.4762-.3449-1.0904-.1073-.6526.2525-1.1215.0087-1.1281-.5866-.0093-.8298-.1343-.8228-.67497.0383-.40249.6409-.34367,1.7648.14947,2.8559l.813,1.7991 .9523-1.73c.5237-.9515.9641-1.9727.9787-2.2694zm-23.79719,2.1107c0-.15-.76579-.7786-1.70166-1.3969-1.52655-1.0084-1.86-.995-3.2387.1306-1.49482,1.2204-1.44819,1.2587 1.70166,1.3969 1.78136.0781 3.2387.0194 3.2387-.1306zm-1.79051-3.8638c-1.35091-.996-1.35423-1.0677-.07101-1.5642 .73978-.2862 2.6022-.182 4.13871.2315 2.37007.6377 2.72871.581 2.36523-.3741-.27741-.7287-.12346-.9357.43656-.5867 .47582.2964 1.4541.1932 2.17389-.2295 1.18863-.6978 1.16352-.7704-.27328-.7911-1.21274-.0175-1.58205-.4911-1.58205-2.0284 0-1.1031-.62816-2.4687-1.39592-3.0347s-1.31218-1.1834-1.20978-1.3721c.51536-.9497.06392-1.8442-.93059-1.8442-.61426,0-1.11671-.3659-1.11671-.8131s-.41881-.6618-.93068-.4768-1.52493.0281-2.25136-.3487c-1.02544-.5322-1.74801-.1734-3.23189,1.6046-1.05109,1.2594-2.18053,2.122-2.50977,1.9169s-.78918.1276-1.02203.7396-.18425,1.0376.10813.9461 1.46773.7872 2.61198,1.9529c1.30168,1.3261 2.52527,1.9474 3.26892,1.6596 1.53542-.594 4.10652.2237 3.55125,1.1295-.23482.3831-.9295.6966-1.54368.6966-.65451,0-.89687-.3587-.58548-.8666 .33175-.5412.20389-.6627-.34043-.3234-.47942.2986-.67891.8575-.44337,1.2418s.07352.6988-.36008.6988-.78847-.3378-.78847-.7506c0-1.3206-2.79085-.8024-3.15066.5851-.40921,1.5774 1.32473,3.5742 2.06084,2.3733 .3304-.5389.76588-.5386 1.41071.001 .51313.4293 1.1533.5583 1.42273.2866s.4899-.0435.4899.5069 .25069.748.55715.4391-.07998-1.0315-.85876-1.6057zm5.51293-4.0432c0-.3885.3312-.9127.73602-1.1649 .42203-.263.54674.0383.29256.7063-.49493,1.3003-1.02858,1.5383-1.02858.4586zm-9.34985-1.897c-.79484-.6061-1.05377-1.1127-.57544-1.1258 1.41439-.0389 3.22499.8357 3.22499,1.5575 0,.9838-1.00904.8194-2.64955-.4317zm24.98406,7.3209c0-.0887-.63488-.5038-1.4108-.9225-1.0059-.5428-1.62877-.4965-2.17013.1613-.57105.6937-.22111.9225 1.41071.9225 1.19364,0 2.17022-.0727 2.17022-.1613zm-11.16726-1.7152c0-.4128-.52236-.7507-1.16074-.7507s-.95353.3379-.70051.7507 .77538.7505 1.16065.7505 .7006-.3377.7006-.7505zm2.60562,0c-.25302-.4128-.60781-.7507-.78838-.7507s-.32825.3379-.32825.7507 .35478.7505.78838.7505 .58136-.3377.32825-.7505zm-24.19568-3.778c-.94448-.6365-.80093-1.0344.93067-2.5796 1.12595-1.0049 2.0473-2.2455 2.0473-2.7571s-.4752-.2749-1.05584.5259-1.30661,1.2029-1.61307.894-.16632-.5618.31139-.5618 .86854-.5066.86854-1.1259c0-1.4567-1.40856-1.4599-1.96257-.0043-.23482.6168-.73226.9313-1.10551.6987s-.48587-.7373-.25033-1.1216 .09333-.6987-.31614-.6987-.95488.3433-1.21212.7629-.81528.5462-1.24009.2814c-.49815-.3103-.41369-.7106.23751-1.1266 .82245-.5254.80264-.6425-.1066-.6302-1.41349.0192-5.18083,2.1512-3.86462,2.1871 .53599.0147.78677.3329.55733.7072s.33703.522 1.25891.3283l1.67611-.3524-1.71592,1.0337-1.71582,1.0338 2.06819.95c1.49194.6854 2.14583.7154 2.34667.1079s.57885-.5908 1.35799.0611c.87006.7281.89212,1.0232.11369,1.5211-.62905.4023-.18712.6177 1.26762.6177 1.73913,0 1.98633-.1666 1.11671-.7526zm-2.82115-2.6809c-1.06382-1.1604-.34537-1.3824 1.22556-.3789 .55554.355.72302.8209.37227,1.0357s-1.06982-.0809-1.59783-.6568zm29.2248-.184c-.41952-.4452-1.8357.6831-1.8357,1.4626 0,.4047.46874.3003 1.04167-.232s.93022-1.086.79403-1.2306zm-21.19225,1.0937c0-.1623-.51994-.4962-1.15536-.742-.66259-.2563-.96142-.1305-.7006.295 .43727.7132 1.85596,1.0549 1.85596.447zm-11.32693-7.6161c.6434-.5648.27499-.7656-1.33414-.7267-1.22252.0296-2.81049.7074-3.52858,1.5061-1.279,1.4225-1.27299,1.4248.29543.1147 1.66535-1.3909 3.02361-.6185 2.10997,1.1998-.2592.5161-.01237.4317.54854-.1876s1.41995-1.4771 1.90878-1.9063zm6.11553,1.1115c0-.4372-.33497-.5862-.74445-.3311s-.74453.6129-.74453.795 .33506.3309.74453.3309 .74445-.3577.74445-.7948zm-3.92272-5.73c-.72436-.1904-1.72936-.1778-2.23343.0277s.08859.3614 1.31702.346 1.64078-.1835.91641-.3737zm5.80361-.8361c-.22917-.2312-.82989-.0006-1.33495.5125-.72974.7412-.6442.8274.41674.4201 .73423-.2819 1.14747-.7016.91821-.9326zm8.54192-.9399c0-.3884-.2792-.7063-.62045-.7063s-.62036.4918-.62036,1.0929 .2792.9189.62036.7062 .62045-.7043.62045-1.0928zm-2.98622-1.4724c-.44274-.8341-.55778-1.9319-.25553-2.4394 .3459-.5807.07576-.5351-.72885.1231-1.19786.98-1.19956,1.1337-.02744,2.4395 1.63011,1.816 2.01628,1.769 1.01182-.1232zm-3.77622.4964c-.17062-.1484-1.31522-.4963-2.54365-.7734-1.6311-.3679-1.93227-.2982-1.11672.2582 1.00536.6859 4.40751,1.1647 3.66037.5152zm-6.63825-2.0507c.99263-.7078.99263-.7595 0-.4652-.61426.182-1.78683-.0164-2.6057-.4411-1.331-.6902-1.38058-.6396-.46722.4767 1.18979,1.4542 1.56278,1.5063 3.07292.4296zm3.72242-1.0337c0-.6974-.43315-.9348-1.17921-.6462-.94932.3674-.98563.5799-.18613,1.0908 1.3223.8452 1.36534.8312 1.36534-.4446zm19.6543-.3989c2.92489,0-.06877-1.6456-3.29582-1.8117-1.94544-.1002-3.49898-.6454-4.06581-1.427-1.3267-1.8292-1.86995-1.5629-1.86995.9167 0,1.7885.25983,2.113 1.44263,1.8012 .7934-.2093 2.20357.157 3.13371.8138 1.11689.7888 1.94159.9418 2.42871.4507 .40571-.4091 1.40766-.7437 2.22653-.7437zm-16.67642,0c0-.4128-.35479-.7506-.78838-.7506s-.58136.3378-.32834.7506 .6079.7507.78847.7507 .32825-.3379.32825-.7507zm20.24068-7.2681c-.53742-.2168-1.17957-.1902-1.42694.0593s.19232.4268.97711.3942c.86729-.0359 1.04374-.2138.44983-.4535zm19.73348,164.41292c-.7939-.8004.2215-1.77186 1.852-1.77186 1.2812,0 1.3823.18703.6094,1.12595-1.0007,1.21579-1.7112,1.40219-2.4614.64591zm-79.80405-18.25832c-2.0473-2.406-3.85744-4.2452-4.0226-4.0871s-1.09475-.7985-2.06595-2.1256c-1.80584-2.4677-4.31471-4.2481-6.05322-4.2956-.53599-.0147-.77574.2976-.53285.6939 .26387.4304-.45843.4041-1.79401-.0653-1.74452-.613-2.75077-1.8843-4.58047-5.787-3.77092-8.0427-3.81593-8.2406-2.08728-9.1734 .86844-.4685 1.34831-1.281 1.11644-1.8901-.22361-.5876-.08212-1.0684.31453-1.0684s.72114-.5278.72114-1.173c0-.7857.55311-1.0956 1.67503-.9383 1.16199.1629 1.67799-.1513 1.68462-1.0257 .0052-.6934.25652-1.5096.55832-1.8139s.5489-.1862.5489.2627 1.00509,1.0385 2.23343,1.3105 2.23343.9202 2.23343,1.4404 .92135,1.4114 2.04739,1.9804 2.232,1.1357 2.45767,1.2592 .27275-.9634.10464-2.4153c-.37451-3.2346 1.0293-3.5516 1.71842-.3882 .26988,1.2385.77296,2.2519 1.11816,2.2519s1.03808,1.2666 1.53982,2.8147 1.61648,3.5429 2.47731,4.4328c2.24275,2.3187 3.42627,3.8675 3.42627,4.4835 0,.2945.52792,1.1236 1.17311,1.8423 1.56726,1.7461 1.93818,7.373.61184,9.2821-.5723.8237-1.04041,2.0915-1.04041,2.8175 0,.7887-.76391,1.5131-1.89838,1.8002-1.8756.4746-1.88008.4933-.37218,1.558 1.48998,1.0522 2.08128,2.5447.9677,2.4425-.30708-.0281-2.23343-2.0198-4.28082-4.4257zm5.84055-11.6932c-.24244-.637-.60054-.9973-.79564-.8005s-.13404.718.13592,1.1582c.73405,1.1976 1.16316.965.65972-.3577zm6.85739,14.7371c-.44283-.7225 5.26627-3.813 7.07983-3.8326 .89463-.0096.88674-.1294-.04896-.739-.87965-.5732-.89938-.7301-.09297-.7392 .73915-.0083.89947-.6372.57696-2.2633-.25204-1.2702-.13028-2.2518.27911-2.2518 .39926,0 .72589.3379.72589.7507s.70078,1.457 1.55722,2.3205l1.55721,1.57-1.74335,1.2393c-.95882.6816-1.91083,1.2422-2.11553,1.2459s-1.429.7661-2.72064,1.6943c-2.46898,1.7743-4.35354,2.149-5.05477,1.0052zm7.1798-18.2325c-.49134-.4954-.89337-1.1709-.89337-1.5012 0-1.1059 1.12129-.6158 2.06065.9007 1.0181,1.6436.25607,2.0356-1.16728.6005zm117.10481-.7881c.2988-.9289.8487-5.4043 1.2219-9.9454 .4015-4.8881 1.1528-9.1146 1.8417-10.3597 .9795-1.7707 1.0245-2.6868.2849-5.7953-.4885-2.0531-.6535-5.0348-.3717-6.7164 .4574-2.7292.3551-3.024-1.0478-3.024-.8853,0-1.5542-.4847-1.5542-1.1259 0-1.4189-1.43-1.4071-3.3112.0273-.7975.608-2.0412.9164-2.7637.6851s-1.9606-.0713-2.7513.3554c-1.8676,1.0076-5.0736-1.4179-6.5348-4.9439-.5694-1.374-1.4501-2.415-1.9571-2.3134-.6588.132-.9218-1.2405-.9218-4.8097 0-2.747.2636-4.8305.5857-4.6299s.5155-.7608.4295-2.1362 .4841-3.683 1.267-5.1279 1.4275-3.1337 1.4327-3.753 .3441-1.0785.7529-1.0207c1.0246.1449 5.0226-2.7966 4.5071-3.3161-.2291-.2311.1386-1.0387.817-1.7947s.9734-1.3744.6551-1.3744-.1191-.5911.4429-1.3135c.9261-1.1905.8998-1.217-.281-.2834-.7166.5665-1.3448.8198-1.396.563s-.1424-.8895-.2028-1.4056-.7366-.8278-1.5025-.6929c-1.2347.2174-1.3311-.081-.848-2.6271 .2997-1.5798.5161-3.6662.4812-4.6364-.0996-2.7483.582-3.2024 2.9519-1.9669 2.0401,1.0637 2.1911,1.0476 2.1911-.2322 0-.756-.8374-2.5192-1.8612-3.918-2.2152-3.0273-2.2247-3.0705-.5582-2.5424 1.1788.3738 1.1895.3181.1122-.5864-1.2913-1.084-1.3724-1.29-1.5015-3.8143-.0649-1.2709-.1706-1.3637-.4268-.3753-.1872.7225-.7793,1.3136-1.3158,1.3136-1.3683,0-2.027-2.9978-.7659-3.4858 .5567-.2152.8282-.874.6037-1.4637-.2964-.7787-.0442-.9315.9209-.5582 1.042.4032 1.2225.2347.8359-.781-.3108-.8163-.2021-1.114.2938-.805 .4325.2696.5981.9855.3678,1.5908s.4078,2.5936 1.4183,4.4184 1.6682,3.913 1.4618,4.6406c-.2133.7516-.0045.6152.4836-.3158 .7102-1.3545.5704-2.1096-.8064-4.3555-.9159-1.4941-1.5205-2.8628-1.3435-3.0412 .4386-.4421 4.7805,5.8408 5.4031,7.8187 .2755.8755.745,1.5918 1.043,1.5918 1.1397,0 9.036,17.7209 9.036,20.2788 0,.6575-.5403.4361-1.518-.6218-1.3636-1.4757-2.9489-2.1801-2.9489-1.3103 0,.5166 3.0906,5.6724 3.4003,5.6724 .1515,0 .0647-.5538-.193-1.2307-.3843-1.0098-.2229-1.0921.8999-.4585 .7525.4245 1.4341,1.4006 1.5146,2.1689s.3589,2.41.6186,3.6485 .9628,5.7076 1.5626,9.9314c1.1788,8.3013.5999,19.006-1.5414,28.5032-.5776,2.5618-1.0521,5.7706-1.0544,7.1306-.0069,4.1399-1.4582,8.2358-3.0685,8.6603-.8067.2128-2.2936,2.0319-3.3042,4.0426-1.9102,3.8007-3.1302,4.8979-2.1871,1.9671zm4.978-72.0321c-.5341-.5385-.881-.5828-.881-.1125 0,1.0019.8806,1.8895 1.3774,1.3886 .2115-.2133-.0118-.7875-.4964-1.2761zm-1.9611-.025c-.6226-2.8618-3.1693-7.304-4.1915-7.3106-1.3619-.0089-3.2465,3.1261-2.7614,4.5933 .1811.5478.9739,1.0299 1.7616,1.0715 3.8691.2041 4.7756.377 4.6943.8953-.136.8691.0554,1.6888.3946,1.6888 .1685,0 .2145-.4222.1024-.9383zm-104.63643,68.8045c0-.6536.39783-1.0547.88405-.8913 1.38041.4639 1.6094,2.0797.29472,2.0797-.64834,0-1.17877-.5347-1.17877-1.1884zm2.61314-1.0511c-.25714-.4195.0547-.7628.69308-.7628 1.30769,0 1.50028.4504.46766,1.0938-.38123.2375-.9035.0886-1.16074-.331zm-15.57951-1.9961c-.62323-1.6376.20425-2.3987 1.08372-.9968s.89911,2.2301.05057,2.2301c-.36572,0-.87607-.555-1.13429-1.2333zm-6.39025-7.7503c0-.3999-.50255-.5326-1.11672-.295-1.35692.525-1.47966-.7422-.17744-1.8318 .69594-.5823 1.16002-.3144 1.79123,1.0339 .46848,1.001.54836,1.8199.17735,1.8199s-.67442-.3271-.67442-.727zm-14.53328-.9657c-.81017-.4503-1.91084-1.4358-2.44593-2.1901-1.03566-1.4599-3.12188-1.8748-3.12188-.6207 0,.4128-.66994.7505-1.48889.7505s-1.48899-.3377-1.48899-.7505-.67003-.7506-1.48898-.7506-1.48899-.3378-1.48899-.7506 .33793-.7506.75082-.7506c1.47006,0-1.02536-2.8563-3.56014-4.075-1.69404-.8144-2.40405-1.5923-2.1244-2.3272 .24961-.6558-.01417-1.1037-.64986-1.1037-.64528,0-.89992.4469-.64152,1.1259 .31184.8192-.08805,1.1258-1.46836,1.1258-1.04329,0-2.10397-.3377-2.35699-.7505s.22962-.7507 1.07279-.7507 1.5747-.3377 1.62589-.7505 .13494-1.0602.18614-1.4387c.15089-1.1156 1.20978-1.8981 1.20978-.8939 0,.5059.29704.7348.66017.5086s1.07413.0917 1.58008.7063 .64447,1.1177.30771,1.1177-.22442.391.24953.8689c.65281.6581 1.12613.6478 1.95127-.0427 .87427-.7315 1.80889-.544 4.73136.949 2.0031,1.0234 4.08061,2.3936 4.61687,3.0451s1.89802,1.1844 3.02621,1.1844c2.0724,0 4.12302-1.5976 3.2196-2.5085-.26942-.2716-.1188-.4939.33471-.4939 1.58779,0 1.72003,1.4958.27086,3.0641-.98026,1.0609-1.95334,1.425-2.95323,1.1051-2.60417-.8334-2.76198,1.1822-.26844,3.4285 2.43589,2.1943 2.28741,3.377-.24719,1.9685zm8.86505-2.1982c-.34626-.5649-.13117-.7127.61624-.4235 .63147.2443 1.4862.1034 1.89936-.3132 .50523-.5093.91489-.4902 1.25138.0586 .27508.4489.39666.8411.27015.8718-2.36246.5729-3.60371.5132-4.03713-.1937zm-33.51629-2.2294c-.35488-.5755-1.5548-1.6293-2.66649-2.3419-2.84635-1.8245-3.91161-4.0021-2.26867-4.6378 .69656-.2695 1.02472-.2462.7292.0517-.75377.76 1.7308,3.3597 2.65842,2.7816 .42831-.2668.53411-.1049.24235.371-.31318.5109.22962,1.0337 1.37387,1.3232 2.03985.5162 2.22088.8818 1.22278,2.4702-.54549.8682-.7466.8654-1.29146-.018zm2.41356-.2017c.22352-.5873.92036-1.2667 1.54852-1.5097 .81859-.3167 1.01316-.1032.68688.754-.25033.6577-.45511,1.3371-.45511,1.5097s-.49206.3139-1.09341.3139c-.63954,0-.92466-.4432-.68688-1.0679zm28.58167-.4333c-1.0041-1.8915-.16506-1.8915 2.23343,0 1.84153,1.4523 1.84377,1.468.21232,1.4845-.90691.0091-2.00749-.6588-2.44575-1.4845zm-23.8235-.3309c0-.1821.33506-.5398.74454-.795s.74445-.1062.74445.331-.33497.7949-.74445.7949-.74454-.1489-.74454-.3309zm2.66748-1.0695c-.32072-.5232-.38204-1.1539-.13629-1.4018 .66627-.6717 1.3927.3164 1.03289,1.4048-.25221.7627-.42759.7621-.8966-.003zm-10.34929-2.8417c-.27911-.2814-.54711-2.0598-.59552-3.9519-.07424-2.8969-.16238-3.0914-.55841-1.231-.25866,1.2151-.72158,2.144-1.02867,2.0642s-.85607-.1451-1.21991-.1451c-1.51239,0-1.59586-5.1278-.14229-8.7394 1.42927-3.5513 1.62733-3.4938 1.92464.5586 .21124,2.8812 1.07296,3.8599 3.06118,3.4767 1.1663-.2248 1.77392.0081 1.77392.6799 0,.562-.75377,1.0432-1.67512,1.0694l-1.67503.0476 1.67503.6788c.92135.3733 1.67001,1.1119 1.66374,1.6413-.00879.7407-.15879.7279-.65147-.056-.35201-.5601-.8273-.7129-1.0562-.3395s-.1084,1.1694.26781,1.769 .66259,1.5967.63659,2.2159c-.03712.8819-.13485.9041-.45099.1028-.28413-.7204-.55715-.7727-.92269-.1764-.28548.4657-.7475.6165-1.02661.3351zm74.06499-2.5133c.37469-1.1334 1.57192-1.2502 1.92321-.1876 .17062.5161-.24818.9383-.93059.9383s-1.12918-.3378-.99262-.7507zm-62.60194-1.0632c-.03237-.7913.14363-1.2347.391-.9852s.27383.8968.05873,1.4386c-.2376.5988-.41405.4209-.44973-.4534zm-18.34895-4.3786c-.85284-7.0345-.86504-7.3551-.29435-7.7107 .29032-.1809.75843,1.7756 1.04024,4.3476s.69558,5.4367.91973,6.3656 .06886,1.6888-.34474,1.6888-1.00805-2.1111-1.32088-4.6913zm11.53451,4.5036c-.55993-1.8991-.54818-3.9416.02842-4.9378 .55464-.9583.73145-.5012.74875,1.9355 .01247,1.7544-.14489,3.19-.34967,3.19s-.39711-.0845-.4275-.1877zm33.55709-6.2085c0-.6281-.83761-1.5267-1.86125-1.997-1.61963-.744-2.57836-2.1152-1.47886-2.1152 .68644,0 3.69884,1.8581 4.2593,2.6271 .79341,1.0889.69111,2.6271-.17474,2.6271-.40948,0-.74445-.5139-.74445-1.142zm-37.22419-4.8627c-.54029-1.0178-.54872-1.5013-.02618-1.5013 .42382,0 .77063-.5265.77063-1.1701s.33506-.9614.74454-.7064c.95461.5949.97756,4.879.02618,4.879-.39514,0-1.07691-.6756-1.51517-1.5012zm-3.71103-2.3952c.00627-.5404.33613-1.4891.73306-2.1084 .58673-.9154.72382-.8184.73306.5187 .00628.9044-.32358,1.8532-.73306,2.1084s-.73934.0217-.73306-.5187zm-4.57437-2.2961c-.29498-7.4893 2.33807-24.6594 3.8656-25.2074 .38357-.1376.69738-1.0082.69738-1.9348 0-2.0335 3.4633-10.9267 4.7987-12.3221 .79026-.8258 1.03324-.787 1.41905.2266 .29651.779.16937,1.0386-.35021.7148-.53985-.3364-.65219.0112-.3321,1.028 .32412,1.0294-.00198,1.9924-.98851,2.9189-1.56663,1.4715-3.05803,4.7922-3.05803,6.8087 0,1.0196.18003.9806 1.09313-.2365 .60117-.8013 1.10363-2.3859 1.11672-3.5211s.35864-2.0642.76812-2.0642c1.34607,0 .77753,5.1446-.93058,8.4212-1.43457,2.7516-1.70928,2.9706-1.91299,1.5243-.13082-.9289-.51053-1.689-.84379-1.689-1.45295,0-2.16601,9.2692-.77951,10.1331 1.23839.7717.90996,3.6023-.36088,3.1106-1.64015-.6345-2.40334,1.5378-2.46709,7.0224-.08616,7.4117-.09746,7.506-.89445,7.506-.40948,0-.78775-1.0978-.84056-2.4395zm6.9656-.1191c.22882-1.2064.04376-1.6922-.55607-1.4602-1.17975.4565-2.20519-5.6776-1.13016-6.7614 .53374-.5382.77251-.1073.77251,1.3942 0,1.3287.7674,2.9808 1.97476,4.2512 1.64921,1.7356 1.81822,2.2682 1.02553,3.2311-1.41869,1.7235-2.47462,1.392-2.08657-.6549zm87.53095-12.6035c.69487-.7005 1.09188-.7005 1.78675,0s.49636.9007-.89338.9007-1.58823-.2001-.89337-.9007zm4.61579.1074c0-.4776.47484-.6847 1.05512-.4602s1.24798-.0985 1.48368-.7179c.2596-.6819.7977-.8944 1.3645-.5387 .5147.3231 1.6577.4934 2.5399.3786s1.8232.1489 2.0912.5861-.1081.8155-.8595.8415c-.7408.0258-2.7706.2115-4.5108.4129-2.10853.244-3.1641.0764-3.1641-.5023zm10.2739-.1074c.6949-.7005 1.0919-.7005 1.7867,0s.4964.9007-.8933.9007-1.5883-.2001-.8934-.9007zm-17.17799-4.0414c-1.13573-.6211-2.44378-.8931-2.90687-.6046-.51528.3211-.63578.1884-.31059-.3419 .33766-.5509-.0433-.8667-1.0457-.8667-.8672,0-1.41412.2654-1.21535.5898s-.28386.5898-1.07278.5898c-1.98032,0-1.79679-1.0452.3573-2.0348 1.44559-.664 2.66774-.4805 6.32812.9506 4.4596,1.7434 5.8002,2.9362 3.23368,2.8769-.71656-.0165-2.23209-.5381-3.36781-1.1591zm66.46279-10.0254c0-.4372.3351-.7949.7445-.7949s.7445.1489.7445.331-.3351.5398-.7445.7949-.7445.1061-.7445-.331zm1.489-13.886c0-.182.335-.5397.7444-.7949s.7445-.1062.7445.331-.335.795-.7445.795-.7444-.1491-.7444-.3311zm-147.40777-3.7087c0-.6192.33506-1.3346.74444-1.5897s.74454.0427.74454.6619-.33506,1.3347-.74454,1.5899-.74444-.0428-.74444-.6621zm2.97797-.0443c0-.182.33497-.5397.74445-.7949s.74453-.1061.74453.331-.33506.795-.74453.795-.74445-.1491-.74445-.3311zm4.46686-4.1282c0-.4372.33506-.7949.74445-.7949s.74454.1489.74454.331-.33506.5398-.74454.7948-.74445.1063-.74445-.3309zm1.09978-6.8272c-.25195-.4112-.85384-.5083-1.33729-.2159-.50093.3028-.43951-.0149.14256-.7384 1.06257-1.3206 3.45846-1.7121 4.09747-.6696 .20245.3302-.26476.9988-1.03826,1.4858-.90835.572-1.56852.6209-1.86448.1381zm98.42966-10.5664c-.7414-.4349-1.8476-.5973-2.4582-.3611-.6269.2426-.9122.1066-.6553-.3124 .2501-.4082.0442-.7421-.4576-.7421-1.6506,0 .0339-.9937 2.0522-1.2106 2.3183-.2492 6.4633,1.7031 5.8254,2.7438-.5735.9355-2.6055.88-4.3065-.1176z" fill="#fff"/>
  <path d="m486.59959,263.06894c-5.654-.64385-12.3135-1.96392-12.6462-2.50681-.2019-.32932.7182-.81115 2.0448-1.07072 3.173-.62072 3.2276-.62089 8.0799-.02259 2.7593.34017 4.351.23464 4.6853-.31067 .3568-.58208 1.3781-.47431 3.4588.365 2.6473,1.06794 4.7168,1.11788 8.1503.19645 .6527-.17511 1.0267.12848.9001.73064-.1521.72418.1796.86181 1.1168.46282 .7333-.3121 2.3384-.51276 3.5667-.44588l2.2334.12158-1.7941-1.27407-1.7942-1.27398 1.704-.63551c1.0872-.40553 2.0798-.32125 2.7419.23285 1.332,1.11456 10.4915.31937 14.1698-1.23014 1.4575-.6139 3.6978-1.12828 4.9785-1.1429s3.1662-.50927 4.1899-1.09923c2.0691-1.19257 3.7224-1.4334 3.7224-.54235 0,.67648-7.299,3.95437-13.7729,6.18511-8.7917,3.02953-24.8757,4.49699-35.7352,3.2604zm19.8857-12.04539c-2.6746-1.10793-4.169-3.7867-2.958-5.30196 .529-.66178.4488-.9417-.2718-.94977s-.7668-.17537-.1642-.56289c.4717-.30332 1.0848-2.24036 1.3624-4.30443s.9422-5.273 1.477-7.1308 .9672-4.0531.9609-4.8787c-.0121-1.5903.6401-6.5977 1.4009-10.7559 .6097-3.332-.8591-5.9165-4.3958-7.7356-1.5688-.807-3.0345-2.0429-3.2573-2.7468-1.1067-3.4963-3.6807-8.7301-5.732-11.6549-2.0025-2.8552-.6354-8.9564 2.6743-11.9356 1.9972-1.7978 2.3385-2.5838 2.1387-4.9259-.1307-1.5329-.508-2.9558-.8385-3.1623s-.6327-.713-.6718-1.1258-.4898-.7507-1.0017-.7507-.8498.4133-.7511.9182c.2328,1.191-4.2304.359-5.6269-1.0488-.5428-.5474-1.2981-.9952-1.6783-.9952s-.6914-.4478-.6914-.9951c0-1.6083-3.1435-4.0544-5.9558-4.6343-1.4331-.2956-3.34-1.2169-4.2374-2.0474-1.094-1.0123-2.8763-1.5777-5.407-1.7154-3.8789-.211-7.8681-2.1255-7.0863-3.4009 .2425-.3955-.5625-.7176-1.7935-.7176-2.7893,0-3.6495-1.2582-1.8375-2.6879 .7576-.5977 1.0125-.9975.5666-.8883-.6758.1655-3.5373-2.7647-5.6701-5.8062-.2895-.4128-1.5443-1.9328-2.7886-3.3777l-2.2622-2.627 1.1674,2.4393c.6419,1.3417 1.4672,2.4395 1.8339,2.4395s.4867.4724.2669,1.0499-.0417,1.273.3956,1.5456 .7953,1.0345.7953,1.6934c0,1.0433-.1922,1.0225-1.489-.1607-.8189-.7472-1.4889-1.8234-1.4889-2.3916s-.5126-1.2314-1.139-1.4738c-.6955-.2691-.9735-.9659-.7142-1.7897 .2336-.742.0761-1.5664-.35-1.8319s-.7748-1.089-.7748-1.8301-.8071-2.2253-1.7936-3.2984c-2.7362-2.9767-3.4889-7.784-1.8548-11.8462 1.5004-3.7296 1.7907-6.6879.6563-6.6879-.4283,0-.5641-.7816-.312-1.7946 .2458-.987.0847-2.0203-.358-2.296-.4453-.2775-.8048.0211-.8048.6686 0,.6436-.3477,1.1702-.7727,1.1702-.4249,0-.7078-.76-.6287-1.6888 .2732-3.205-.092-4.3159-1.4191-4.3159-1.6906,0-6.9423,2.6762-7.7103,3.9292-.3202.5223-.8456.9538-1.1677.9587-.322.005-2.1342,1.0894-4.0271,2.4098s-3.6383,2.2024-3.8787,1.96 .6359-1.1698 1.9475-2.0609 2.4992-2.2838 2.6391-3.095 1.4824-2.5718 2.9831-3.9125 2.0965-2.2157 1.3241-1.9445c-2.1386.751-1.127-1.4218 1.1931-2.5629 1.0517-.5173 2.1126-1.6996 2.3574-2.6272 .5886-2.2299 5.7314-5.808 8.3956-5.8412 1.163-.0145 4.1247-.4569 6.5815-.9833s5.7008-.8728 7.209-.77c2.2536.1535 2.7239-.0565 2.64-1.1793-.0827-1.1078-.3485-1.211-1.4054-.5455-.7168.4513-1.5338.5882-1.8155.3042-.7117-.7175 1.1313-2.8045 2.4765-2.8045 .6482,0 .9376-.4401.7-1.0644-.2668-.7012.5315-1.4802 2.34-2.2829 1.5098-.67 2.075-1.0644 1.2561-.8764-1.965.4513-6.3703,2.0072-7.9931,2.8231-.7111.3575-1.9673.6501-2.7918.6501s-1.4991.2976-1.4991.6616c0,.6522-5.3066,2.7992-8.9338,3.6146-1.6119.3622-1.5121.1764.7445-1.3874 8.0614-5.5865 15.2276-8.6624 26.2733-11.2774 5.6631-1.3406 9.1882-1.6272 20.2569-1.6467 13.3548-.0234 23.3739,1.1858 21.1754,2.5556-.5517.3439-1.2838.4504-1.6267.2368s-4.1024-.4901-8.3546-.6143c-6.489-.1897-7.665-.052-7.3192.8563 .2265.5953.8318.9199 1.345.7213 1.2784-.4945 7.2909,2.6686 11.1803,5.8819 1.7638,1.4572 3.4887,2.6494 3.8332,2.6494s1.0611.7021 1.5926,1.5602c.8462,1.3661.7852,1.6079-.4915,1.9445-1.9169.5054-2.44,3.5557-1.2117,7.0659 .5398,1.5424.8194,2.9678.6213,3.1676-.6807.6862-5.0802-2.0125-7.9488-4.876-1.5797-1.5767-3.2302-2.6436-3.6679-2.3708s-.5814.1459-.3168-.2856-.0351-1.2117-.6633-1.7374-.9702-1.4085-.7597-1.9615c.215-.5651-.1066-1.0057-.734-1.0057-.6142,0-1.3095-.5066-1.5452-1.1259s-.7851-1.1259-1.2209-1.1259-1.336-.4961-2.0005-1.1023c-.8903-.8124-1.787-.9281-3.4087-.4398-1.2105.3644-1.7557.6915-1.2117.7269 1.605.1049 6.935,5.9864 6.7047,7.3986-.1165.7138.009,1.6517.2789,2.0843s.1874,1.2769-.1832,1.8765c-.5729.9264-1.1521.8362-3.8595-.6009-1.752-.93-3.752-1.69-4.4443-1.6889-1.6867.0029-2.4683-1.4003-1.0794-1.9377 .6086-.2354 1.2977-.9306 1.5315-1.545 .319-.8382.0547-.9984-1.0591-.6419-1.0933.3498-1.4843.132-1.4843-.8266 0-.7158-.2204-1.0793-.4899-.8077s-.8557.1879-1.3028-.1861c-.5615-.4696-.8102.1309-.8039,1.9409 .006,1.7137.4624,2.8766 1.3185,3.3597 .7202.4064 1.1525.9947.9608,1.3075s.555.4363 1.6595.2746c1.3541-.1983 3.0988.4486 5.3581,1.987 2.5827,1.7586 3.4053,2.029 3.5909,1.1805 .367-1.678 1.0636-1.3637 4.2349,1.9106 1.604,1.6562 3.2423,2.9016 3.6408,2.7678 .8399-.2823 2.7829,1.5452 4.5757,4.3037 1.2543,1.9301 3.0744,2.7535 2.1848.9885-.2601-.516.2227-.1409 1.0728.8337s1.5406,2.3257 1.5343,3.0024c-.01,1.0686-.1063,1.0823-.7331.1045-.6415-1.0008-.7295-1.0008-.7919,0-.0481.7727-.188.8315-.4457.1877-.6002-1.5-3.8268-1.1734-3.705.3749 .0656.8315-.511,1.4012-1.5716,1.5534-.9213.1321-1.6752.5989-1.6752,1.0374 0,.4969-1.1221.6455-2.9778.3945-2.4316-.3288-2.9811-.1748-2.9945.8394-.0092.6832-.6717,2.0866-1.4725,3.1186s-1.4632,2.3401-1.4724,2.9067c-.014.8731-.2131.8731-1.3065,0-1.1967-.9557-1.1945-.8795.0309,1.0552 1.4551,2.297 1.2043,3.0559-1.8723,5.6659-2.1003,1.7818-2.7853,4.8561-1.2896,5.788 1.0936.6815 2.2943,4.0689 1.7543,4.9497-.6455,1.0531-2.6032-.8103-3.7452-3.5645-.7057-1.702-1.6124-2.4689-3.328-2.8148-3.6578-.7376-5.1498-.5695-5.1498.5802 0,.6789-.5207.9183-1.4593.6708-1.6857-.4444-6.2145,2.1565-7.8473,4.5069-1.4341,2.0643-1.4154,4.5382.0581,7.6688 1.3709,2.9128 2.4813,3.4876 5.5439,2.87 1.5327-.3091 2.3743-1.0101 2.6782-2.2314 .2439-.9793.8258-1.8065 1.2933-1.8381s1.4348-.1704 2.1497-.3084c1.9421-.3751 2.2535.7949.9091,3.4159-.6611,1.289-1.0127,2.5344-.7814,2.7677s.0362.8912-.4337,1.462c-.7075.8595-.3712.9843 1.9563.7257 4.61-.5122 5.5212.0225 5.4775,3.2139-.0737,5.3871 1.662,7.63 4.6547,6.0152 .9868-.5325 1.8849-.5316 2.8751.0026 1.9154,1.0336 2.0042,1.0153 3.6315-.7457 .7739-.8375 2.0433-1.6528 2.8208-1.8118s2.0549-.5445 2.8386-.8566c.9993-.398 1.2642-.3052.8868.3106-.2961.483-.1836.8782.25.8782s.7885-.3177.7885-.7061 .8972-.2367 1.9939.3369 2.321.8392 2.7207.5901 .5113-.1012.2479.3284 .2711.9839 1.1878,1.2316c2.3428.6331 2.9368.5777 2.4431-.2278-.2356-.3843-.0362-.9432.4433-1.2419 .5444-.3392.6721-.2178.3404.3234-.4938.8057.5429,1.1638 3.093,1.0683 .5118-.0192.9366.5187.944,1.1952 .0188,1.7221 5.0927,5.7636 7.9503,6.3325 2.8802.5732 5.437,2.6436 5.437,4.4026 0,.7095.3568,1.5124.7929,1.7842 .5189.3233.3328,1.0521-.5386,2.1084-.7323.8879-.8585,1.1961-.2805.6849 .8528-.7541 1.9421-.4356 5.7756,1.6889 2.5986,1.44 5.3311,2.6182 6.0725,2.6182s1.9339.6528 2.65,1.4506 1.7732,1.2683 2.3489,1.0456c.7572-.293 1.0468.2231 1.0468,1.8658 0,1.6009-.9773,3.4251-3.3125,6.1832-1.8218,2.1519-3.5392,4.966-3.8164,6.2537-.7646,3.5508-4.105,7.8376-6.8302,8.7649-1.3308.4529-2.4195,1.2961-2.4195,1.8738s-.9214,1.6475-2.0473,2.3775-2.6516,2.0804-3.39,3.0013c-3.6562,4.5595-7.6394,7.7574-9.2966,7.4638-1.2859-.2278-1.6521.0145-1.489.9854 .232,1.3804-1.3718,3.7701-2.5301,3.7701-.3867,0-2.5233,1.5844-4.7481,3.52093-2.687,2.3389-3.746,3.70738-3.1542,4.07606 .6256.38975.3483,1.01791-.9305,2.10809-1.7075,1.45581-1.74,1.61666-.5185,2.57432 .7166.56181 1.3028,1.19813 1.3028,1.41412 0,.95192-2.8126.98124-5.0544.05263zm-2.9953-129.09985c-.5374-.2168-1.1795-.1901-1.4269.0593s.1924.4269.9771.3942c.8674-.0359 1.0437-.2138.4498-.4535zm5.0455-3.4043c.0145-.2967-.4762-.3449-1.0904-.1073-.6526.2525-1.1215.0087-1.1281-.5866-.0093-.8298-.1343-.8228-.675.0383-.4025.6409-.3436,1.7648.1495,2.8559l.813,1.7991 .9523-1.73c.5237-.9515.9641-1.9727.9787-2.2694zm-23.7972,2.1107c0-.15-.7658-.7786-1.7016-1.3969-1.5266-1.0084-1.86-.995-3.2387.1306-1.4949,1.2204-1.4482,1.2587 1.7016,1.3969 1.7814.0781 3.2387.0194 3.2387-.1306zm-1.7905-3.8638c-1.3509-.996-1.3542-1.0677-.071-1.5642 .7398-.2862 2.6022-.182 4.1387.2315 2.3701.6377 2.7287.581 2.3652-.3741-.2774-.7287-.1234-.9357.4366-.5867 .4758.2964 1.4541.1932 2.1739-.2295 1.1886-.6978 1.1635-.7704-.2733-.7911-1.2127-.0175-1.582-.4911-1.582-2.0284 0-1.1031-.6282-2.4687-1.396-3.0347s-1.3121-1.1834-1.2097-1.3721c.5153-.9497.0639-1.8442-.9306-1.8442-.6143,0-1.1167-.3659-1.1167-.8131s-.4189-.6618-.9307-.4768-1.525.0281-2.2514-.3487c-1.0254-.5322-1.748-.1734-3.2319,1.6046-1.0511,1.2594-2.1805,2.122-2.5097,1.9169s-.7892.1276-1.0221.7396-.1842,1.0376.1082.9461 1.4677.7872 2.6119,1.9529c1.3017,1.3261 2.5253,1.9474 3.269,1.6596 1.5354-.594 4.1065.2237 3.5512,1.1295-.2348.3831-.9295.6966-1.5437.6966-.6545,0-.8968-.3587-.5855-.8666 .3318-.5412.2039-.6627-.3404-.3234-.4794.2986-.6789.8575-.4434,1.2418s.0736.6988-.36.6988-.7885-.3378-.7885-.7506c0-1.3206-2.7909-.8024-3.1507.5851-.4092,1.5774 1.3248,3.5742 2.0609,2.3733 .3304-.5389.7659-.5386 1.4107.001 .5131.4293 1.1533.5583 1.4227.2866s.4899-.0435.4899.5069 .2507.748.5572.4391-.08-1.0315-.8588-1.6057zm5.5129-4.0432c0-.3885.3312-.9127.7361-1.1649 .422-.263.5467.0383.2925.7063-.4949,1.3003-1.0286,1.5383-1.0286.4586zm-9.3498-1.897c-.7949-.6061-1.0538-1.1127-.5755-1.1258 1.4144-.0389 3.225.8357 3.225,1.5575 0,.9838-1.009.8194-2.6495-.4317zm24.984,7.3209c0-.0887-.6348-.5038-1.4108-.9225-1.0059-.5428-1.6287-.4965-2.1701.1613-.571.6937-.2211.9225 1.4107.9225 1.1937,0 2.1702-.0727 2.1702-.1613zm-11.1672-1.7152c0-.4128-.5224-.7507-1.1608-.7507s-.9535.3379-.7005.7507 .7754.7505 1.1607.7505 .7006-.3377.7006-.7505zm2.6056,0c-.253-.4128-.6078-.7507-.7884-.7507s-.3282.3379-.3282.7507 .3548.7505.7884.7505 .5813-.3377.3282-.7505zm-24.1957-3.778c-.9445-.6365-.8009-1.0344.9307-2.5796 1.1259-1.0049 2.0473-2.2455 2.0473-2.7571s-.4752-.2749-1.0558.5259-1.3067,1.2029-1.6131.894-.1663-.5618.3114-.5618 .8685-.5066.8685-1.1259c0-1.4567-1.4085-1.4599-1.9626-.0043-.2348.6168-.7322.9313-1.1055.6987s-.4858-.7373-.2503-1.1216 .0933-.6987-.3161-.6987-.9549.3433-1.2122.7629-.8152.5462-1.24.2814c-.4982-.3103-.4137-.7106.2375-1.1266 .8224-.5254.8026-.6425-.1066-.6302-1.4135.0192-5.1809,2.1512-3.8647,2.1871 .536.0147.7868.3329.5574.7072s.337.522 1.2589.3283l1.6761-.3524-1.7159,1.0337-1.7158,1.0338 2.0681.95c1.492.6854 2.1459.7154 2.3467.1079s.5789-.5908 1.358.0611c.8701.7281.8921,1.0232.1137,1.5211-.6291.4023-.1871.6177 1.2676.6177 1.7391,0 1.9863-.1666 1.1167-.7526zm-2.8211-2.6809c-1.0638-1.1604-.3454-1.3824 1.2255-.3789 .5556.355.7231.8209.3723,1.0357s-1.0698-.0809-1.5978-.6568zm29.2248-.184c-.4195-.4452-1.8357.6831-1.8357,1.4626 0,.4047.4687.3003 1.0416-.232s.9303-1.086.7941-1.2306zm-21.1923,1.0937c0-.1623-.5199-.4962-1.1553-.742-.6626-.2563-.9615-.1305-.7006.295 .4372.7132 1.8559,1.0549 1.8559.447zm-11.3269-7.6161c.6434-.5648.275-.7656-1.3341-.7267-1.2226.0296-2.8105.7074-3.5286,1.5061-1.279,1.4225-1.273,1.4248.2954.1147 1.6654-1.3909 3.0236-.6185 2.11,1.1998-.2592.5161-.0124.4317.5485-.1876s1.42-1.4771 1.9088-1.9063zm6.1155,1.1115c0-.4372-.3349-.5862-.7444-.3311s-.7446.6129-.7446.795 .3351.3309.7446.3309 .7444-.3577.7444-.7948zm-3.9227-5.73c-.7244-.1904-1.7294-.1778-2.2334.0277s.0886.3614 1.317.346 1.6408-.1835.9164-.3737zm5.8036-.8361c-.2292-.2312-.8299-.0006-1.3349.5125-.7298.7412-.6442.8274.4167.4201 .7342-.2819 1.1475-.7016.9182-.9326zm8.5419-.9399c0-.3884-.2792-.7063-.6204-.7063s-.6204.4918-.6204,1.0929 .2792.9189.6204.7062 .6204-.7043.6204-1.0928zm-2.9862-1.4724c-.4427-.8341-.5578-1.9319-.2555-2.4394 .3459-.5807.0757-.5351-.7289.1231-1.1978.98-1.1995,1.1337-.0274,2.4395 1.6301,1.816 2.0163,1.769 1.0118-.1232zm-3.7762.4964c-.1706-.1484-1.3152-.4963-2.5437-.7734-1.6311-.3679-1.9322-.2982-1.1167.2582 1.0054.6859 4.4075,1.1647 3.6604.5152zm-6.6383-2.0507c.9927-.7078.9927-.7595 0-.4652-.6142.182-1.7868-.0164-2.6057-.4411-1.331-.6902-1.3805-.6396-.4672.4767 1.1898,1.4542 1.5628,1.5063 3.0729.4296zm3.7225-1.0337c0-.6974-.4332-.9348-1.1792-.6462-.9494.3674-.9857.5799-.1862,1.0908 1.3223.8452 1.3654.8312 1.3654-.4446zm19.6543-.3989c2.9249,0-.0688-1.6456-3.2959-1.8117-1.9454-.1002-3.4989-.6454-4.0658-1.427-1.3267-1.8292-1.8699-1.5629-1.8699.9167 0,1.7885.2598,2.113 1.4426,1.8012 .7934-.2093 2.2036.157 3.1337.8138 1.1169.7888 1.9416.9418 2.4287.4507 .4057-.4091 1.4077-.7437 2.2266-.7437zm-16.6765,0c0-.4128-.3547-.7506-.7883-.7506s-.5814.3378-.3284.7506 .6079.7507.7885.7507 .3282-.3379.3282-.7507zm20.2407-7.2681c-.5374-.2168-1.1795-.1902-1.4269.0593s.1923.4268.9771.3942c.8673-.0359 1.0437-.2138.4498-.4535zm19.7335,164.41292c-.7939-.8004.2215-1.77186 1.852-1.77186 1.2812,0 1.3823.18703.6094,1.12595-1.0007,1.21579-1.7112,1.40219-2.4614.64591zm-79.804-18.25832c-2.0473-2.406-3.8575-4.2452-4.0226-4.0871s-1.0948-.7985-2.066-2.1256c-1.8058-2.4677-4.3147-4.2481-6.0532-4.2956-.536-.0147-.7758.2976-.5329.6939 .2639.4304-.4584.4041-1.794-.0653-1.7445-.613-2.7507-1.8843-4.5804-5.787-3.771-8.0427-3.816-8.2406-2.0873-9.1734 .8684-.4685 1.3483-1.281 1.1164-1.8901-.2236-.5876-.0821-1.0684.3145-1.0684s.7212-.5278.7212-1.173c0-.7857.5531-1.0956 1.675-.9383 1.162.1629 1.678-.1513 1.6846-1.0257 .0052-.6934.2566-1.5096.5583-1.8139s.5489-.1862.5489.2627 1.0051,1.0385 2.2335,1.3105 2.2334.9202 2.2334,1.4404 .9214,1.4114 2.0474,1.9804 2.232,1.1357 2.4577,1.2592 .2727-.9634.1046-2.4153c-.3745-3.2346 1.0293-3.5516 1.7184-.3882 .2699,1.2385.773,2.2519 1.1182,2.2519s1.0381,1.2666 1.5398,2.8147 1.6165,3.5429 2.4773,4.4328c2.2428,2.3187 3.4263,3.8675 3.4263,4.4835 0,.2945.5279,1.1236 1.1731,1.8423 1.5673,1.7461 1.9382,7.373.6118,9.2821-.5723.8237-1.0404,2.0915-1.0404,2.8175 0,.7887-.7639,1.5131-1.8983,1.8002-1.8756.4746-1.8801.4933-.3722,1.558 1.4899,1.0522 2.0813,2.5447.9677,2.4425-.3071-.0281-2.2335-2.0198-4.2808-4.4257zm5.8405-11.6932c-.2424-.637-.6005-.9973-.7956-.8005s-.1341.718.1359,1.1582c.734,1.1976 1.1631.965.6597-.3577zm6.8574,14.7371c-.4428-.7225 5.2663-3.813 7.0798-3.8326 .8947-.0096.8868-.1294-.0489-.739-.8797-.5732-.8994-.7301-.093-.7392 .7391-.0083.8995-.6372.577-2.2633-.2521-1.2702-.1303-2.2518.2791-2.2518 .3992,0 .7259.3379.7259.7507s.7007,1.457 1.5572,2.3205l1.5572,1.57-1.7434,1.2393c-.9588.6816-1.9108,1.2422-2.1155,1.2459s-1.429.7661-2.7206,1.6943c-2.469,1.7743-4.3536,2.149-5.0548,1.0052zm7.1798-18.2325c-.4913-.4954-.8934-1.1709-.8934-1.5012 0-1.1059 1.1213-.6158 2.0607.9007 1.0181,1.6436.256,2.0356-1.1673.6005zm117.1048-.7881c.2988-.9289.8487-5.4043 1.2219-9.9454 .4015-4.8881 1.1528-9.1146 1.8417-10.3597 .9795-1.7707 1.0245-2.6868.2849-5.7953-.4885-2.0531-.6535-5.0348-.3717-6.7164 .4574-2.7292.3551-3.024-1.0478-3.024-.8853,0-1.5542-.4847-1.5542-1.1259 0-1.4189-1.43-1.4071-3.3112.0273-.7975.608-2.0412.9164-2.7637.6851s-1.9606-.0713-2.7513.3554c-1.8676,1.0076-5.0736-1.4179-6.5348-4.9439-.5694-1.374-1.4501-2.415-1.9571-2.3134-.6588.132-.9218-1.2405-.9218-4.8097 0-2.747.2636-4.8305.5857-4.6299s.5155-.7608.4295-2.1362 .4841-3.683 1.267-5.1279 1.4275-3.1337 1.4327-3.753 .3441-1.0785.7529-1.0207c1.0246.1449 5.0226-2.7966 4.5071-3.3161-.2291-.2311.1386-1.0387.817-1.7947s.9734-1.3744.6551-1.3744-.1191-.5911.4429-1.3135c.9261-1.1905.8998-1.217-.281-.2834-.7166.5665-1.3448.8198-1.396.563s-.1424-.8895-.2028-1.4056-.7366-.8278-1.5025-.6929c-1.2347.2174-1.3311-.081-.848-2.6271 .2997-1.5798.5161-3.6662.4812-4.6364-.0996-2.7483.582-3.2024 2.9519-1.9669 2.0401,1.0637 2.1911,1.0476 2.1911-.2322 0-.756-.8374-2.5192-1.8612-3.918-2.2152-3.0273-2.2247-3.0705-.5582-2.5424 1.1788.3738 1.1895.3181.1122-.5864-1.2913-1.084-1.3724-1.29-1.5015-3.8143-.0649-1.2709-.1706-1.3637-.4268-.3753-.1872.7225-.7793,1.3136-1.3158,1.3136-1.3683,0-2.027-2.9978-.7659-3.4858 .5567-.2152.8282-.874.6037-1.4637-.2964-.7787-.0442-.9315.9209-.5582 1.042.4032 1.2225.2347.8359-.781-.3108-.8163-.2021-1.114.2938-.805 .4325.2696.5981.9855.3678,1.5908s.4078,2.5936 1.4183,4.4184 1.6682,3.913 1.4618,4.6406c-.2133.7516-.0045.6152.4836-.3158 .7102-1.3545.5704-2.1096-.8064-4.3555-.9159-1.4941-1.5205-2.8628-1.3435-3.0412 .4386-.4421 4.7805,5.8408 5.4031,7.8187 .2755.8755.745,1.5918 1.043,1.5918 1.1397,0 9.036,17.7209 9.036,20.2788 0,.6575-.5403.4361-1.518-.6218-1.3636-1.4757-2.9489-2.1801-2.9489-1.3103 0,.5166 3.0906,5.6724 3.4003,5.6724 .1515,0 .0647-.5538-.193-1.2307-.3843-1.0098-.2229-1.0921.8999-.4585 .7525.4245 1.4341,1.4006 1.5146,2.1689s.3589,2.41.6186,3.6485 .9628,5.7076 1.5626,9.9314c1.1788,8.3013.5999,19.006-1.5414,28.5032-.5776,2.5618-1.0521,5.7706-1.0544,7.1306-.0069,4.1399-1.4582,8.2358-3.0685,8.6603-.8067.2128-2.2936,2.0319-3.3042,4.0426-1.9102,3.8007-3.1302,4.8979-2.1871,1.9671zm4.978-72.0321c-.5341-.5385-.881-.5828-.881-.1125 0,1.0019.8806,1.8895 1.3774,1.3886 .2115-.2133-.0118-.7875-.4964-1.2761zm-1.9611-.025c-.6226-2.8618-3.1693-7.304-4.1915-7.3106-1.3619-.0089-3.2465,3.1261-2.7614,4.5933 .1811.5478.9739,1.0299 1.7616,1.0715 3.8691.2041 4.7756.377 4.6943.8953-.136.8691.0554,1.6888.3946,1.6888 .1685,0 .2145-.4222.1024-.9383zm-104.6364,68.8045c0-.6536.3978-1.0547.884-.8913 1.3804.4639 1.6094,2.0797.2947,2.0797-.6483,0-1.1787-.5347-1.1787-1.1884zm2.6131-1.0511c-.2571-.4195.0547-.7628.6931-.7628 1.3077,0 1.5003.4504.4677,1.0938-.3813.2375-.9035.0886-1.1608-.331zm-15.5795-1.9961c-.6232-1.6376.2043-2.3987 1.0837-.9968s.8991,2.2301.0506,2.2301c-.3657,0-.8761-.555-1.1343-1.2333zm-6.3903-7.7503c0-.3999-.5025-.5326-1.1167-.295-1.3569.525-1.4796-.7422-.1774-1.8318 .6959-.5823 1.16-.3144 1.7912,1.0339 .4685,1.001.5484,1.8199.1774,1.8199s-.6745-.3271-.6745-.727zm-14.5332-.9657c-.8102-.4503-1.9109-1.4358-2.446-2.1901-1.0356-1.4599-3.1218-1.8748-3.1218-.6207 0,.4128-.67.7505-1.4889.7505s-1.489-.3377-1.489-.7505-.67-.7506-1.489-.7506-1.489-.3378-1.489-.7506 .3379-.7506.7508-.7506c1.4701,0-1.0253-2.8563-3.5601-4.075-1.694-.8144-2.4041-1.5923-2.1244-2.3272 .2496-.6558-.0142-1.1037-.6499-1.1037-.6453,0-.8999.4469-.6415,1.1259 .3119.8192-.088,1.1258-1.4683,1.1258-1.0433,0-2.104-.3377-2.357-.7505s.2296-.7507 1.0727-.7507 1.5747-.3377 1.6259-.7505 .135-1.0602.1862-1.4387c.1509-1.1156 1.2098-1.8981 1.2098-.8939 0,.5059.297.7348.6601.5086s1.0742.0917 1.5801.7063 .6445,1.1177.3077,1.1177-.2244.391.2495.8689c.6529.6581 1.1262.6478 1.9513-.0427 .8743-.7315 1.8089-.544 4.7314.949 2.0031,1.0234 4.0806,2.3936 4.6169,3.0451s1.898,1.1844 3.0262,1.1844c2.0724,0 4.123-1.5976 3.2196-2.5085-.2695-.2716-.1188-.4939.3347-.4939 1.5878,0 1.72,1.4958.2708,3.0641-.9802,1.0609-1.9533,1.425-2.9532,1.1051-2.6042-.8334-2.762,1.1822-.2684,3.4285 2.4359,2.1943 2.2874,3.377-.2472,1.9685zm8.865-2.1982c-.3462-.5649-.1311-.7127.6163-.4235 .6314.2443 1.4862.1034 1.8993-.3132 .5053-.5093.9149-.4902 1.2514.0586 .2751.4489.3967.8411.2702.8718-2.3625.5729-3.6038.5132-4.0372-.1937zm-33.5163-2.2294c-.3548-.5755-1.5548-1.6293-2.6665-2.3419-2.8463-1.8245-3.9116-4.0021-2.2686-4.6378 .6965-.2695 1.0247-.2462.7292.0517-.7538.76 1.7308,3.3597 2.6584,2.7816 .4283-.2668.5341-.1049.2423.371-.3131.5109.2297,1.0337 1.3739,1.3232 2.0399.5162 2.2209.8818 1.2228,2.4702-.5455.8682-.7466.8654-1.2915-.018zm2.4136-.2017c.2235-.5873.9204-1.2667 1.5485-1.5097 .8186-.3167 1.0132-.1032.6869.754-.2503.6577-.4551,1.3371-.4551,1.5097s-.4921.3139-1.0934.3139c-.6396,0-.9247-.4432-.6869-1.0679zm28.5817-.4333c-1.0041-1.8915-.1651-1.8915 2.2334,0 1.8415,1.4523 1.8438,1.468.2123,1.4845-.9069.0091-2.0075-.6588-2.4457-1.4845zm-23.8235-.3309c0-.1821.335-.5398.7445-.795s.7444-.1062.7444.331-.3349.7949-.7444.7949-.7445-.1489-.7445-.3309zm2.6674-1.0695c-.3207-.5232-.382-1.1539-.1362-1.4018 .6662-.6717 1.3926.3164 1.0328,1.4048-.2522.7627-.4275.7621-.8966-.003zm-10.3492-2.8417c-.2792-.2814-.5472-2.0598-.5956-3.9519-.0742-2.8969-.1623-3.0914-.5584-1.231-.2586,1.2151-.7216,2.144-1.0286,2.0642s-.8561-.1451-1.22-.1451c-1.5123,0-1.5958-5.1278-.1422-8.7394 1.4292-3.5513 1.6273-3.4938 1.9246.5586 .2112,2.8812 1.073,3.8599 3.0612,3.4767 1.1663-.2248 1.7739.0081 1.7739.6799 0,.562-.7538,1.0432-1.6751,1.0694l-1.6751.0476 1.6751.6788c.9213.3733 1.67,1.1119 1.6637,1.6413-.0088.7407-.1588.7279-.6515-.056-.352-.5601-.8273-.7129-1.0562-.3395s-.1084,1.1694.2679,1.769 .6625,1.5967.6365,2.2159c-.0371.8819-.1348.9041-.4509.1028-.2842-.7204-.5572-.7727-.9227-.1764-.2855.4657-.7475.6165-1.0266.3351zm74.0649-2.5133c.3747-1.1334 1.572-1.2502 1.9233-.1876 .1706.5161-.2482.9383-.9306.9383s-1.1292-.3378-.9927-.7507zm-62.6019-1.0632c-.0324-.7913.1436-1.2347.391-.9852s.2738.8968.0587,1.4386c-.2376.5988-.414.4209-.4497-.4534zm-18.3489-4.3786c-.8529-7.0345-.8651-7.3551-.2944-7.7107 .2903-.1809.7584,1.7756 1.0402,4.3476s.6956,5.4367.9198,6.3656 .0688,1.6888-.3448,1.6888-1.008-2.1111-1.3208-4.6913zm11.5345,4.5036c-.56-1.8991-.5482-3.9416.0284-4.9378 .5546-.9583.7314-.5012.7487,1.9355 .0125,1.7544-.1449,3.19-.3496,3.19s-.3971-.0845-.4275-.1877zm33.5571-6.2085c0-.6281-.8377-1.5267-1.8613-1.997-1.6196-.744-2.5784-2.1152-1.4789-2.1152 .6865,0 3.6989,1.8581 4.2593,2.6271 .7935,1.0889.6911,2.6271-.1747,2.6271-.4095,0-.7444-.5139-.7444-1.142zm-37.2242-4.8627c-.5403-1.0178-.5488-1.5013-.0262-1.5013 .4238,0 .7706-.5265.7706-1.1701s.3351-.9614.7445-.7064c.9547.5949.9776,4.879.0262,4.879-.3951,0-1.0769-.6756-1.5151-1.5012zm-3.7111-2.3952c.0063-.5404.3362-1.4891.7331-2.1084 .5867-.9154.7238-.8184.7331.5187 .0062.9044-.3236,1.8532-.7331,2.1084s-.7393.0217-.7331-.5187zm-4.5743-2.2961c-.295-7.4893 2.338-24.6594 3.8656-25.2074 .3835-.1376.6973-1.0082.6973-1.9348 0-2.0335 3.4633-10.9267 4.7987-12.3221 .7903-.8258 1.0333-.787 1.4191.2266 .2965.779.1694,1.0386-.3502.7148-.5399-.3364-.6522.0112-.3321,1.028 .3241,1.0294-.002,1.9924-.9885,2.9189-1.5667,1.4715-3.0581,4.7922-3.0581,6.8087 0,1.0196.1801.9806 1.0932-.2365 .6011-.8013 1.1036-2.3859 1.1167-3.5211s.3586-2.0642.7681-2.0642c1.3461,0 .7775,5.1446-.9306,8.4212-1.4345,2.7516-1.7093,2.9706-1.913,1.5243-.1308-.9289-.5105-1.689-.8438-1.689-1.4529,0-2.166,9.2692-.7795,10.1331 1.2384.7717.91,3.6023-.3608,3.1106-1.6402-.6345-2.4034,1.5378-2.4671,7.0224-.0862,7.4117-.0975,7.506-.8945,7.506-.4095,0-.7877-1.0978-.8405-2.4395zm6.9656-.1191c.2288-1.2064.0437-1.6922-.5561-1.4602-1.1798.4565-2.2052-5.6776-1.1302-6.7614 .5338-.5382.7725-.1073.7725,1.3942 0,1.3287.7674,2.9808 1.9748,4.2512 1.6492,1.7356 1.8182,2.2682 1.0255,3.2311-1.4187,1.7235-2.4746,1.392-2.0865-.6549zm87.5309-12.6035c.6949-.7005 1.0919-.7005 1.7868,0s.4963.9007-.8934.9007-1.5882-.2001-.8934-.9007zm4.6158.1074c0-.4776.4748-.6847 1.0551-.4602s1.248-.0985 1.4837-.7179c.2596-.6819.7977-.8944 1.3645-.5387 .5147.3231 1.6577.4934 2.5399.3786s1.8232.1489 2.0912.5861-.1081.8155-.8595.8415c-.7408.0258-2.7706.2115-4.5108.4129-2.1085.244-3.1641.0764-3.1641-.5023zm10.2739-.1074c.6949-.7005 1.0919-.7005 1.7867,0s.4964.9007-.8933.9007-1.5883-.2001-.8934-.9007zm-17.178-4.0414c-1.1357-.6211-2.4438-.8931-2.9069-.6046-.5152.3211-.6357.1884-.3105-.3419 .3376-.5509-.0433-.8667-1.0457-.8667-.8672,0-1.4142.2654-1.2154.5898s-.2839.5898-1.0728.5898c-1.9803,0-1.7968-1.0452.3573-2.0348 1.4456-.664 2.6678-.4805 6.3281.9506 4.4596,1.7434 5.8002,2.9362 3.2337,2.8769-.7165-.0165-2.2321-.5381-3.3678-1.1591zm66.4628-10.0254c0-.4372.3351-.7949.7445-.7949s.7445.1489.7445.331-.3351.5398-.7445.7949-.7445.1061-.7445-.331zm1.489-13.886c0-.182.335-.5397.7444-.7949s.7445-.1062.7445.331-.335.795-.7445.795-.7444-.1491-.7444-.3311zm-147.4078-3.7087c0-.6192.3351-1.3346.7445-1.5897s.7445.0427.7445.6619-.335,1.3347-.7445,1.5899-.7445-.0428-.7445-.6621zm2.978-.0443c0-.182.335-.5397.7444-.7949s.7446-.1061.7446.331-.3351.795-.7446.795-.7444-.1491-.7444-.3311zm4.4669-4.1282c0-.4372.335-.7949.7444-.7949s.7446.1489.7446.331-.3351.5398-.7446.7948-.7444.1063-.7444-.3309zm1.0997-6.8272c-.2519-.4112-.8538-.5083-1.3372-.2159-.501.3028-.4396-.0149.1425-.7384 1.0626-1.3206 3.4585-1.7121 4.0975-.6696 .2024.3302-.2648.9988-1.0383,1.4858-.9083.572-1.5685.6209-1.8645.1381zm98.4297-10.5664c-.7414-.4349-1.8476-.5973-2.4582-.3611-.6269.2426-.9122.1066-.6553-.3124 .2501-.4082.0442-.7421-.4576-.7421-1.6506,0 .0339-.9937 2.0522-1.2106 2.3183-.2492 6.4633,1.7031 5.8254,2.7438-.5735.9355-2.6055.88-4.3065-.1176z" fill="#fff"/>
 </g>
</svg>
