<?xml version='1.0' encoding='utf-8'?>
<svg xmlns="http://www.w3.org/2000/svg" version="1.1" x="0px" y="0px" width="484px" height="569px" viewBox="0 0 484 569" enable-background="new 0 0 484 569"> <g id="Layer_4"> <rect x="38" y="37" fill="#FFFFFF" stroke="#FFFFFF" stroke-width="0.7652" stroke-miterlimit="10" width="408" height="506"/> <polygon fill="#51941B" points="410.862,366.184 240.032,301.209 65.77,366.529 238.698,427.004 349.505,390.494 410.672,417.412 "/> <path fill="#51941B" d="M268.406,323.295c0,0-32.365-14.381-31.426-16.609s1.951-7.696,2.762-7.291 c0.811,0.404,32.409,10.105,34.435,11.939s14.255,7.1,21.812,7.707s17.888-0.607,23.356,4.254c1.52,1.35,4.167,3.361,7.294,5.617 c8.126,5.863,13.548,10.449,22.504,13.812c16.361,6.146,61.45,23.459,61.45,23.459s-15.172,6.811-17.055,6.064 s-23.706-5.662-23.935-5.838c-0.229-0.174-39.321-5.035-40.334-5.238s-35.852-10.152-39.295-13.584 C286.532,344.158,268.406,323.295,268.406,323.295z"/> <path fill="#53971C" d="M369.367,350.402c-5.468-2.086-10.654-4.061-14.939-5.684l-6.461-2.457 c-8.264-3.318-13.565-7.75-21.327-13.35c-3.127-2.256-5.774-4.268-7.294-5.617c-5.469-4.861-15.799-3.646-23.356-4.254 s-19.787-5.873-21.812-7.707s-33.624-11.535-34.435-11.939c-0.382-0.191-0.81,0.928-1.252,2.393L65.77,366.529l172.929,60.475 l110.807-36.51l61.167,26.918l0.19-52.58L369.367,350.402z"/> <path fill="#53971C" d="M66.358,361.172c0,0-2.693-1.973-1.767-2.105c0.051-0.008-0.149-0.471,0.078-0.514 c3.907-0.732,32.664-6.137,38.609-7.307c6.291-1.236,23.237-11.182,28.301-13.693c5.064-2.51,15.752-3.078,19.369-3.744 s27.129-10.514,28.794-11.729c1.665-1.217,19.692-8.912,22.123-9.52c2.431-0.609,13.02-2.027,13.02-2.027l24.857-11.139v5.67 c0,0-25.851,15.193-26.699,15.395c-0.848,0.203-53.813,17.094-53.813,17.094S135,349.02,135.113,349.424 c0.113,0.406-38.169,13.449-38.169,13.449l-23.293,1.232L66.358,361.172z"/> <path fill="#5BA61F" d="M410.862,364.832l-41.495-14.43c-1.008-0.385-2.002-0.764-2.987-1.139 c-9.892,9.387-21.338,19.757-25.918,20.398c-8.421,1.18-22.189-0.87-40.432,3.92s-43.549,18-100.021,6.106 s-80.317-17.26-70.381-24.979c-11.906-1.225-1.796-13.463-3.671-14.159c-2.527,1.132-17.03,2.943-28.278,9.214 c-6.142,3.424-29.103,8.057-33.01,8.789c-0.227,0.043-0.027,0.506-0.078,0.514c-0.926,0.133,1.767,2.105,1.767,2.105l6.61,2.659 l-7.198,2.698l172.929,60.475l110.807-36.51l9.423,4.146c19.395-8.209,37.71-16.14,51.907-22.359L410.862,364.832z"/> <path fill="#386613" d="M358.067,373.295l1.963,1.965c0,0,2.121-1.381,1.906-1.965s2.302-1.537,3.928-1.301 c3.727,0.545,7.842-1.59,7.842-1.59s-1.001-1.299-1.85-1.945c-0.85-0.645,7.35-4.01,7.689-4.234c0.339-0.223-9.754,0.76-9.754,0.76 s-5.354,0.102-5.693,0.35s-5.093-0.262-5.093,0.502S358.067,373.295,358.067,373.295z"/> <path fill="#4A8719" d="M78.553,364.889l0.19,1.283l13.9-5.15C92.644,361.021,79.261,364.713,78.553,364.889z M86.562,367.924 l16.86-5.885c0,0-16.342,4.426-17.05,4.6L86.562,367.924z M125.557,377.02l0.19,1.285l16.664-7.227 C142.411,371.078,126.265,376.846,125.557,377.02z M173.442,397.262l0.19,1.285l16.664-7.227 C190.296,391.32,174.15,397.088,173.442,397.262z M212.837,407.186l0.19,1.285l16.664-7.227 C229.691,401.244,213.545,407.012,212.837,407.186z M199.284,404.076l0.19,1.285l16.664-7.227 C216.138,398.135,199.992,403.902,199.284,404.076z"/> <path fill="#64B622" d="M66.418,366.184l-2.015-3.227c0,0-0.279-2.629,0-4.035c0.279-1.404,2.739,1.621,3.087,2.07 c0.038,0.137,0.167,0.625,3.548,1.408c3.381,0.785,5.946,0.297,7.381,1.705s-1.427,1.928,2.465,2.078s3.059-0.721,5.116,0.227 c2.057,0.949-0.976,0.949,2.591,1.564s6.437-0.283,9.103,0.781s2.255,0.449,4.716,1.68s3.065,1.434,6.146,1.844 s2.939-0.41,7.418,0.82s2.719,0.207,6.88,2.256c4.161,2.051,1.974,2.637,6.758,3.779s3.05,1.141,9.761,4.422 s4.01,2.658,8.436,3.994c4.426,1.338,2.334,0.811,5.943,1.895s5.044,2.137,8.325,2.943c3.281,0.805,6.067,1.004,9.492,2.545 s2.504,2.494,5.733,2.939c3.229,0.447,10.405,2.479,12.456,3.104s3.475,1.354,5.223,1.707s5.781,2.025,6.02,1.906 s1.469-0.168,3.109,0.268c1.641,0.434,8.436,1.711,8.934,1.893s1.077,1.617,4.478,2.334c3.401,0.719,7,1.477,8.481,2.02 c1.481,0.545,7.093,3.211,7.772,3.621c0.68,0.408,3.719,1.811,3.719,1.811v4.865l-61.13-15.836L66.418,366.184z"/> <path fill="#964100" d="M65.501,368.756l-1.098-2.346v-3.453c0,0,18.343,7.902,21.597,8.295c3.254,0.391,27.913,5.734,31.631,8.248 c3.718,2.516,29.185,11.631,36.12,14.607s48.753,15.525,53.579,15.904c4.826,0.381,30.164,11.389,30.164,11.389v5.51 c0,0-39.439-9.623-39.923-10.33c-0.484-0.709-67.022-24.074-67.022-24.074l-37.905-13.359L65.501,368.756z"/> <path fill="#6B2700" d="M262.174,418.225"/> <path fill="#4A8719" d="M239.162,422.752l-1.668-1.352v-4.865c0,0,8.666-4.082,12.196-4.734c3.53-0.654,5.102-2.498,8.616-3.695 c3.545-1.209,11.672-0.633,11.672-0.633s-2.832,2.955-3.027,3.086s-13.665,9.922-14.123,9.734S239.162,422.752,239.162,422.752z"/> <path fill="#F4D061" d="M406.419,399.762"/> </g> <g id="Layer_2"> </g> <g id="Layer_1"> <polygon fill="#964100" points="237.403,477.91 64.403,417.41 64.403,366.41 237.403,426.91 "/> <path fill="#853900" d="M237.403,440.158c-0.612-0.117-1.174-0.254-1.577-0.41c-1.577-0.611-6.108-2.043-8.968-3.236 c-2.859-1.191-5.904-0.932-10.273-1.857s-3.599-0.934-8.163-2.078s-7.422-2.76-10.852-4.453c-3.429-1.695-5.034-2.371-7.787-3.797 c-2.753-1.428-11.854-0.963-17.278-1.859c-5.424-0.895-7.59-0.432-12.338-1.197s-4.547-0.297-10.655-2.604 s-9.561-6.457-13.013-8.188s-6.64-3.582-10.941-5.621s-6.056-3.273-7.709-4.729c-1.653-1.457-4.987-1.199-7.366-2.791 s-6.651-0.268-11.039-0.93c-4.388-0.66-5.438,0.396-7.737,0.619s-4.341-0.223-9.122-0.619c-4.781-0.395-1.593-0.4-5.015-3.467 s-6.235-1.92-11.801-4.344c-0.471-0.205-0.923-0.363-1.366-0.504v29.316l173,60.5V440.158z"/> <path fill="#4A8719" d="M265.374,412.33c0,0-7.626-4.062-7.067-4.225s14.706-4.482,19.685-5.539 c4.979-1.055,25.687-3.705,32.317-4.299c6.631-0.596,13.612-4.201,16.985-5.365s23.91-10.818,32.43-12.447 s38.65-11.193,40.512-11.996c1.861-0.801,10.627-3.627,10.627-3.627v1.352l-16.444,11.479c0,0-75.384,26.291-83.76,26.99 c-8.376,0.697-34.318,4.02-36.646,5.033C271.686,410.701,265.374,412.33,265.374,412.33z"/> <path fill="#6B2700" d="M237.494,421.4c0,0,37.448-17.715,50.023-19.135s24.701-1.258,28.907-2.73s23.122-4.602,23.122-4.602 l-16.996,5.463l-39.375,11.527c0,0-24.104,11.92-25.9,12.098c-1.797,0.18-19.872,3.725-19.872,3.725L237.494,421.4z"/> <polygon fill="#6B2700" points="237.403,477.91 410.672,417.412 410.862,366.184 237.403,426.91 "/> <path fill="#561F01" d="M410.672,417.412l-0.078-20.074c-17.7-5.482-46.004,12.645-67.423,17.427 c-15.497,3.46-30.958,17.974-37.438,19.718c-6.48,1.746-24.875,3.334-32.328,3.24c-7.453-0.092-36.001,2.436-36.001,2.436v37.752 L410.672,417.412z"/> <path fill="#612A01" d="M237.403,459.41h-5.5c0,0-26.5-9.5-35-12.5s-32.5-6-38.5-7.5s-15-13.5-30-18.5s-25-7.5-29.5-8s-17-2-27-7 c-2.935-1.467-5.427-2.494-7.5-3.227v14.727l173,60.5V459.41z"/> <path fill="#471A01" d="M410.403,417.41l0.3-8.326c-8.091,6.635-59.664,25.569-88.121,26.499c-8,0.262-24.578,12.661-31.621,12.159 c-7.043-0.504-17.86-3.02-25.91,2.012s-22.147,9.656-27.647,9.656v18.5L410.403,417.41z"/> <path fill="#51941B" d="M152.86,361.873c-0.792-0.596,5.488-5.445,15.644-4.623s18.757,6.984,18.757,6.984v4.521 C187.261,368.756,159.145,366.598,152.86,361.873z"/> <path opacity="0.8" fill="#396813" d="M177.328,367.014c1.999-0.527,30.482-9.856,30.482-9.856l20.958,5.8l53.705-25.709 l-61.283-11.411l-45.926,20.014l16.89,4.269l-24.567,9.655L177.328,367.014z"/> <path opacity="0.8" fill="#396813" d="M244.271,385.421c1.999-0.527,30.481-9.856,30.481-9.856l20.958,5.8 c0,0,21.571-13.199,38.86-20.098c-7.883-9.532-46.438-17.022-46.438-17.022l-45.927,20.014l16.89,4.269l-24.567,9.655 L244.271,385.421z"/> <g> <path opacity="0.8" fill="#396813" d="M242.194,322.795c1.999-0.527,30.481-9.857,30.481-9.857l11.966,3.312 c-4.952-1.764-9.325-3.883-10.465-4.915c-1.657-1.501-23.116-8.27-31.301-10.899l-2.746,1.196l16.89,4.27l-24.567,9.654 L242.194,322.795z"/> <path opacity="0.8" fill="#396813" d="M313.528,324.412l-24.567,9.655l9.742,7.239c1.999-0.527,30.481-9.856,30.481-9.856 l1.495,0.414c-1.287-0.946-2.622-1.929-4.04-2.952c-3.127-2.256-5.774-4.268-7.294-5.617c-4.812-4.278-13.388-3.852-20.527-4.102 l-2.18,0.95L313.528,324.412z"/> <path opacity="0.8" fill="#396813" d="M293.634,318.738l0.009-0.004c-0.023-0.005-0.048-0.009-0.071-0.014L293.634,318.738z"/> </g> <g> <path fill="#828282" d="M251.852,335.302c-2.925,1.636-8.433,3.312-11.333,2.819l-23.646-4.904 c-1.247-0.21-1.954-0.65-2.124-1.213c-0.225-0.747-0.14-2.131,1.528-3.067l0.636,0.423c2.923-1.636,7.643-2.564,10.544-2.069 l25.151,3.648c1.63,0.278,1.624,1.451,1.411,2.272C253.854,333.851,253.13,334.586,251.852,335.302L251.852,335.302z"/> <path fill="#5E5E5E" d="M241.35,338.181c3.027,0.124,7.83-1.384,10.502-2.879c1.278-0.716,2.003-1.451,2.167-2.091 c0.2-0.777,0.2-1.855-1.175-2.209H241.35V338.181z"/> <path fill="#3A3A3A" d="M251.852,334.39c-2.925,1.637-8.433,3.311-11.333,2.817l-23.646-4.901c-2.901-0.495-2.883-2.222,0.04-3.86 l0,0c2.923-1.636,7.643-2.562,10.544-2.069l24.433,4.154C254.789,331.023,254.774,332.752,251.852,334.39L251.852,334.39z"/> <g> <path fill="#2B2B2B" d="M238.396,288.741c0.401,0.453,1.88,45.266,1.88,45.266l3.094-0.652l-0.101-44.614H238.396z"/> <polygon fill="#4F4F4F" points="240.276,334.007 221.874,330.277 221.874,274.119 240.276,274.119 "/> </g> </g> <g> <path fill="#828282" d="M320.058,344.254c-3.354,1.875-9.667,3.797-12.993,3.231l-27.104-5.622c-1.43-0.24-2.24-0.745-2.435-1.39 c-0.258-0.856-0.16-2.443,1.752-3.517l0.729,0.484c3.351-1.875,8.761-2.939,12.088-2.372l28.83,4.183 c1.868,0.319,1.861,1.663,1.617,2.605C322.354,342.59,321.522,343.434,320.058,344.254L320.058,344.254z"/> <path fill="#5E5E5E" d="M308.019,347.554c3.471,0.143,8.976-1.586,12.039-3.3c1.465-0.82,2.296-1.664,2.483-2.396 c0.229-0.892,0.229-2.127-1.347-2.532h-13.176V347.554z"/> <path fill="#3A3A3A" d="M320.058,343.208c-3.354,1.876-9.667,3.795-12.993,3.229l-27.104-5.618 c-3.326-0.567-3.305-2.547,0.046-4.425l0,0c3.351-1.876,8.761-2.938,12.088-2.373l28.007,4.763 C323.425,339.35,323.408,341.331,320.058,343.208L320.058,343.208z"/> <g> <path fill="#2B2B2B" d="M304.633,290.88c0.46,0.519,2.154,51.89,2.154,51.89l3.548-0.748l-0.115-51.142H304.633z"/> <polygon fill="#4F4F4F" points="306.787,342.77 285.693,338.494 285.693,274.119 306.787,274.119 "/> </g> </g> <g> <g> <polygon fill="#787878" points="275.97,207.409 278.765,205.281 279.018,210.069 235.651,303.303 232.699,303.322 "/> <polygon fill="#A6A6A6" points="232.699,303.322 181.581,293.036 217.271,207.034 278.765,205.281 "/> <polygon fill="#E3E3E3" points="232.012,299.039 184.917,290.023 217.896,210.939 273.667,209.888 "/> <g> <g> <polygon points="221.747,239.276 207.542,238.559 218.245,212.961 233.194,212.753 "/> <polygon points="238.613,240.125 223.237,239.351 234.765,212.731 250.977,212.507 "/> <polygon points="256.923,241.051 240.229,240.208 252.684,212.483 270.329,212.239 "/> </g> <g> <polygon points="210.212,265.999 196.739,264.399 206.927,240.032 221.088,240.8 "/> <polygon points="226.179,267.898 211.625,266.168 222.575,240.882 237.903,241.712 "/> <polygon points="243.477,269.958 227.707,268.084 239.514,241.801 256.157,242.705 "/> </g> <g> <polygon points="199.236,291.43 186.443,289.021 196.151,265.806 209.585,267.451 "/> <polygon points="214.371,294.269 200.578,291.678 210.995,267.624 225.504,269.408 "/> <polygon points="230.736,297.348 215.818,294.546 227.028,269.592 242.75,271.522 "/> </g> </g> <g opacity="0.3"> <polygon fill="#E3E3E3" points="187.201,289.796 186.948,289.748 219.659,211.663 219.953,211.657 "/> <polygon fill="#E3E3E3" points="188.258,289.994 188.003,289.946 220.895,211.641 221.19,211.636 "/> <polygon fill="#E3E3E3" points="189.319,290.197 189.064,290.148 222.135,211.62 222.434,211.614 "/> <polygon fill="#E3E3E3" points="190.387,290.4 190.13,290.35 223.385,211.599 223.687,211.593 "/> <polygon fill="#E3E3E3" points="191.462,290.604 191.203,290.555 224.643,211.577 224.944,211.572 "/> <polygon fill="#E3E3E3" points="192.542,290.807 192.283,290.76 225.906,211.555 226.211,211.55 "/> <polygon fill="#E3E3E3" points="193.629,291.013 193.367,290.964 227.179,211.534 227.487,211.529 "/> <polygon fill="#E3E3E3" points="194.721,291.219 194.459,291.169 228.459,211.512 228.768,211.507 "/> <polygon fill="#E3E3E3" points="195.82,291.429 195.555,291.38 229.748,211.491 230.059,211.485 "/> <polygon fill="#E3E3E3" points="196.925,291.639 196.66,291.589 231.045,211.469 231.357,211.463 "/> <polygon fill="#E3E3E3" points="198.037,291.848 197.77,291.799 232.348,211.446 232.665,211.44 "/> <polygon fill="#E3E3E3" points="199.155,292.061 198.886,292.013 233.662,211.423 233.978,211.418 "/> <polygon fill="#E3E3E3" points="200.279,292.275 200.009,292.224 234.982,211.401 235.301,211.396 "/> <polygon fill="#E3E3E3" points="201.411,292.491 201.139,292.44 236.312,211.378 236.633,211.373 "/> <polygon fill="#E3E3E3" points="202.548,292.705 202.275,292.652 237.651,211.355 237.972,211.351 "/> <polygon fill="#E3E3E3" points="203.692,292.921 203.418,292.87 238.994,211.333 239.319,211.328 "/> <polygon fill="#E3E3E3" points="204.844,293.14 204.567,293.086 240.35,211.31 240.677,211.305 "/> <polygon fill="#E3E3E3" points="206.002,293.359 205.724,293.308 241.713,211.287 242.042,211.281 "/> <polygon fill="#E3E3E3" points="207.167,293.581 206.886,293.529 243.085,211.263 243.416,211.258 "/> <polygon fill="#E3E3E3" points="208.337,293.8 208.057,293.749 244.466,211.24 244.797,211.234 "/> <polygon fill="#E3E3E3" points="209.516,294.026 209.234,293.971 245.854,211.216 246.19,211.211 "/> <polygon fill="#E3E3E3" points="210.703,294.251 210.417,294.195 247.254,211.192 247.591,211.188 "/> <polygon fill="#E3E3E3" points="211.896,294.476 211.608,294.424 248.658,211.168 249,211.164 "/> <polygon fill="#E3E3E3" points="213.094,294.705 212.808,294.647 250.078,211.144 250.417,211.14 "/> <polygon fill="#E3E3E3" points="214.302,294.935 214.013,294.876 251.502,211.121 251.845,211.114 "/> <polygon fill="#E3E3E3" points="215.516,295.165 215.224,295.111 252.938,211.096 253.283,211.09 "/> <polygon fill="#E3E3E3" points="216.737,295.395 216.442,295.341 254.383,211.071 254.729,211.066 "/> <polygon fill="#E3E3E3" points="217.967,295.63 217.671,295.571 255.836,211.047 256.187,211.042 "/> <polygon fill="#E3E3E3" points="219.205,295.862 218.906,295.804 257.3,211.022 257.649,211.016 "/> <polygon fill="#E3E3E3" points="220.448,296.098 220.147,296.043 258.775,210.997 259.129,210.99 "/> <polygon fill="#E3E3E3" points="221.699,296.336 221.397,296.281 260.256,210.972 260.612,210.966 "/> <polygon fill="#E3E3E3" points="222.958,296.572 222.655,296.516 261.749,210.947 262.108,210.941 "/> <polygon fill="#E3E3E3" points="224.226,296.815 223.922,296.756 263.25,210.921 263.614,210.915 "/> <polygon fill="#E3E3E3" points="225.499,297.058 225.194,296.997 264.765,210.896 265.126,210.889 "/> <polygon fill="#E3E3E3" points="226.784,297.302 226.475,297.241 266.288,210.869 266.653,210.863 "/> <polygon fill="#E3E3E3" points="228.075,297.543 227.766,297.484 267.823,210.843 268.188,210.837 "/> <polygon fill="#E3E3E3" points="229.375,297.79 229.061,297.733 269.365,210.817 269.737,210.811 "/> <polygon fill="#E3E3E3" points="230.681,298.041 230.366,297.98 270.919,210.79 271.294,210.784 "/> </g> </g> <g opacity="0.3"> <path fill="#FFFFFF" d="M250.977,212.507l-16.211,0.224l-8.186,18.902c2.125-1.301,4.174-2.199,6.236-2.373 c2.891-0.244,6.947-0.509,11.171-1.136L250.977,212.507z"/> <path fill="#FFFFFF" d="M252.684,212.483l-6.896,15.352c4.97-0.86,9.976-2.278,13.395-4.795 c3.074-2.261,7.324-6.639,11.101-10.801L252.684,212.483z"/> <path fill="#FFFFFF" d="M218.245,212.961l-10.703,25.598l8.842,0.447c2.904-2.054,5.544-4.189,8.046-5.946l8.764-20.306 L218.245,212.961z"/> <path fill="#FFFFFF" d="M214.29,240.432l-7.363-0.4l-1.812,4.333c1.507-0.087,3.304-0.575,5.448-1.712 C211.858,241.964,213.095,241.212,214.29,240.432z"/> </g> </g> <g> <g> <polygon fill="#787878" points="357.303,207.409 360.098,205.281 360.351,210.069 316.984,303.303 314.031,303.322 "/> <polygon fill="#A6A6A6" points="314.031,303.322 262.914,293.036 298.604,207.034 360.098,205.281 "/> <polygon fill="#E3E3E3" points="313.346,299.039 266.25,290.023 299.229,210.939 355,209.888 "/> <g> <g> <polygon points="303.08,239.276 288.875,238.559 299.578,212.961 314.527,212.753 "/> <polygon points="319.945,240.125 304.57,239.351 316.098,212.731 332.31,212.507 "/> <polygon points="338.256,241.051 321.562,240.208 334.017,212.483 351.662,212.239 "/> </g> <g> <polygon points="291.545,265.999 278.072,264.399 288.26,240.032 302.422,240.8 "/> <polygon points="307.512,267.898 292.957,266.168 303.908,240.882 319.236,241.712 "/> <polygon points="324.811,269.958 309.04,268.084 320.847,241.801 337.49,242.705 "/> </g> <g> <polygon points="280.569,291.43 267.776,289.021 277.484,265.806 290.918,267.451 "/> <polygon points="295.703,294.269 281.91,291.678 292.328,267.624 306.838,269.408 "/> <polygon points="312.069,297.348 297.151,294.546 308.361,269.592 324.084,271.522 "/> </g> </g> <g opacity="0.3"> <polygon fill="#E3E3E3" points="268.534,289.796 268.281,289.748 300.992,211.663 301.286,211.657 "/> <polygon fill="#E3E3E3" points="269.592,289.994 269.336,289.946 302.228,211.641 302.523,211.636 "/> <polygon fill="#E3E3E3" points="270.652,290.197 270.397,290.148 303.468,211.62 303.768,211.614 "/> <polygon fill="#E3E3E3" points="271.721,290.4 271.463,290.35 304.719,211.599 305.02,211.593 "/> <polygon fill="#E3E3E3" points="272.795,290.604 272.536,290.555 305.976,211.577 306.277,211.572 "/> <polygon fill="#E3E3E3" points="273.875,290.807 273.615,290.76 307.238,211.555 307.544,211.55 "/> <polygon fill="#E3E3E3" points="274.962,291.013 274.7,290.964 308.512,211.534 308.82,211.529 "/> <polygon fill="#E3E3E3" points="276.055,291.219 275.792,291.169 309.793,211.512 310.101,211.507 "/> <polygon fill="#E3E3E3" points="277.152,291.429 276.889,291.38 311.081,211.491 311.393,211.485 "/> <polygon fill="#E3E3E3" points="278.258,291.639 277.992,291.589 312.379,211.469 312.689,211.463 "/> <polygon fill="#E3E3E3" points="279.369,291.848 279.103,291.799 313.682,211.446 313.998,211.44 "/> <polygon fill="#E3E3E3" points="280.488,292.061 280.219,292.013 314.995,211.423 315.311,211.418 "/> <polygon fill="#E3E3E3" points="281.612,292.275 281.342,292.224 316.315,211.401 316.634,211.396 "/> <polygon fill="#E3E3E3" points="282.744,292.491 282.473,292.44 317.646,211.378 317.966,211.373 "/> <polygon fill="#E3E3E3" points="283.881,292.705 283.608,292.652 318.984,211.355 319.305,211.351 "/> <polygon fill="#E3E3E3" points="285.025,292.921 284.751,292.87 320.327,211.333 320.652,211.328 "/> <polygon fill="#E3E3E3" points="286.177,293.14 285.9,293.086 321.683,211.31 322.01,211.305 "/> <polygon fill="#E3E3E3" points="287.335,293.359 287.057,293.308 323.046,211.287 323.375,211.281 "/> <polygon fill="#E3E3E3" points="288.5,293.581 288.219,293.529 324.418,211.263 324.749,211.258 "/> <polygon fill="#E3E3E3" points="289.67,293.8 289.39,293.749 325.799,211.24 326.13,211.234 "/> <polygon fill="#E3E3E3" points="290.85,294.026 290.566,293.971 327.188,211.216 327.523,211.211 "/> <polygon fill="#E3E3E3" points="292.035,294.251 291.75,294.195 328.587,211.192 328.924,211.188 "/> <polygon fill="#E3E3E3" points="293.229,294.476 292.941,294.424 329.991,211.168 330.333,211.164 "/> <polygon fill="#E3E3E3" points="294.427,294.705 294.141,294.647 331.411,211.144 331.75,211.14 "/> <polygon fill="#E3E3E3" points="295.635,294.935 295.346,294.876 332.835,211.121 333.178,211.114 "/> <polygon fill="#E3E3E3" points="296.85,295.165 296.557,295.111 334.271,211.096 334.616,211.09 "/> <polygon fill="#E3E3E3" points="298.07,295.395 297.775,295.341 335.716,211.071 336.062,211.066 "/> <polygon fill="#E3E3E3" points="299.3,295.63 299.004,295.571 337.169,211.047 337.52,211.042 "/> <polygon fill="#E3E3E3" points="300.538,295.862 300.239,295.804 338.633,211.022 338.982,211.016 "/> <polygon fill="#E3E3E3" points="301.781,296.098 301.48,296.043 340.108,210.997 340.462,210.99 "/> <polygon fill="#E3E3E3" points="303.032,296.336 302.73,296.281 341.589,210.972 341.945,210.966 "/> <polygon fill="#E3E3E3" points="304.291,296.572 303.988,296.516 343.082,210.947 343.441,210.941 "/> <polygon fill="#E3E3E3" points="305.559,296.815 305.255,296.756 344.583,210.921 344.947,210.915 "/> <polygon fill="#E3E3E3" points="306.832,297.058 306.527,296.997 346.098,210.896 346.459,210.889 "/> <polygon fill="#E3E3E3" points="308.117,297.302 307.809,297.241 347.621,210.869 347.986,210.863 "/> <polygon fill="#E3E3E3" points="309.408,297.543 309.1,297.484 349.156,210.843 349.521,210.837 "/> <polygon fill="#E3E3E3" points="310.707,297.79 310.394,297.733 350.698,210.817 351.07,210.811 "/> <polygon fill="#E3E3E3" points="312.014,298.041 311.699,297.98 352.252,210.79 352.627,210.784 "/> </g> </g> <g opacity="0.3"> <path fill="#FFFFFF" d="M332.31,212.507l-16.212,0.224l-8.186,18.902c2.125-1.301,4.174-2.199,6.236-2.373 c2.891-0.244,6.947-0.509,11.17-1.136L332.31,212.507z"/> <path fill="#FFFFFF" d="M334.017,212.483l-6.896,15.352c4.97-0.86,9.976-2.278,13.395-4.795 c3.074-2.261,7.324-6.639,11.101-10.801L334.017,212.483z"/> <path fill="#FFFFFF" d="M299.578,212.961l-10.703,25.598l8.842,0.447c2.904-2.054,5.544-4.189,8.047-5.946l8.764-20.306 L299.578,212.961z"/> <path fill="#FFFFFF" d="M295.623,240.432l-7.363-0.4l-1.812,4.333c1.507-0.087,3.304-0.575,5.448-1.712 C293.191,241.964,294.428,241.212,295.623,240.432z"/> </g> </g> <g> <g> <path fill="#828282" d="M261.453,384.861c-3.066,1.715-8.842,3.471-11.882,2.955l-24.79-5.141 c-1.307-0.221-2.048-0.684-2.226-1.273c-0.236-0.783-0.147-2.232,1.602-3.215l0.667,0.443c3.064-1.715,8.013-2.689,11.054-2.17 l26.367,3.826c1.709,0.291,1.702,1.52,1.479,2.381C263.552,383.34,262.792,384.109,261.453,384.861L261.453,384.861z"/> <path fill="#5E5E5E" d="M250.443,387.877c3.173,0.131,8.208-1.449,11.01-3.016c1.339-0.752,2.099-1.521,2.271-2.193 c0.209-0.814,0.209-1.945-1.232-2.316h-12.049V387.877z"/> <path fill="#3A3A3A" d="M261.453,383.904c-3.066,1.715-8.842,3.471-11.882,2.953l-24.79-5.139 c-3.042-0.52-3.022-2.328,0.042-4.047l0,0c3.064-1.715,8.013-2.686,11.054-2.17l25.614,4.355 C264.532,380.375,264.517,382.188,261.453,383.904L261.453,383.904z"/> <g> <path fill="#2B2B2B" d="M247.347,336.047c0.419,0.475,1.971,47.455,1.971,47.455l3.244-0.684l-0.106-46.771H247.347z"/> <polygon fill="#4F4F4F" points="249.317,383.502 230.026,379.594 230.026,320.719 249.317,320.719 "/> </g> <g> <polygon fill="#787878" points="289.249,252.707 291.972,250.79 292.371,255.583 249.498,351.312 246.265,351.334 "/> <polygon fill="#A6A6A6" points="246.265,351.334 187.784,339.645 227.884,247.843 291.972,250.79 "/> <polygon fill="#E3E3E3" points="245.432,346.648 191.732,336.277 228.617,251.968 287.014,255.022 "/> <g> <g> <polygon points="233.209,282.046 217.466,280.504 229.023,254.108 245.171,255.005 "/> <polygon points="251.466,283.833 234.841,282.205 246.847,255.098 263.902,256.046 "/> <polygon points="270.768,285.723 253.191,284.002 265.673,256.144 283.723,257.146 "/> </g> <g> <polygon points="220.733,310.246 205.407,308.045 216.79,282.048 232.509,283.627 "/> <polygon points="238.499,312.801 222.323,310.475 234.14,283.792 250.738,285.458 "/> <polygon points="257.276,315.502 240.178,313.045 252.461,285.633 270.014,287.397 "/> </g> <g> <polygon points="208.449,338.02 193.53,335.17 204.74,309.568 220.044,311.807 "/> <polygon points="225.736,341.311 209.996,338.311 221.631,312.037 237.782,314.404 "/> <polygon points="244,344.797 227.369,341.627 239.458,314.648 256.53,317.145 "/> </g> </g> <g opacity="0.3"> <polygon fill="#E3E3E3" points="194.423,336.051 194.125,335.992 230.549,252.858 230.871,252.875 "/> <polygon fill="#E3E3E3" points="195.665,336.285 195.365,336.229 231.895,252.93 232.217,252.947 "/> <polygon fill="#E3E3E3" points="196.91,336.527 196.611,336.469 233.243,253.002 233.568,253.019 "/> <polygon fill="#E3E3E3" points="198.162,336.768 197.861,336.707 234.599,253.075 234.926,253.091 "/> <polygon fill="#E3E3E3" points="199.419,337.008 199.116,336.949 235.961,253.146 236.287,253.165 "/> <polygon fill="#E3E3E3" points="200.68,337.248 200.377,337.193 237.325,253.22 237.655,253.237 "/> <polygon fill="#E3E3E3" points="201.947,337.49 201.643,337.434 238.698,253.293 239.03,253.312 "/> <polygon fill="#E3E3E3" points="203.219,337.734 202.914,337.676 240.076,253.367 240.408,253.385 "/> <polygon fill="#E3E3E3" points="204.496,337.982 204.188,337.924 241.46,253.441 241.794,253.459 "/> <polygon fill="#E3E3E3" points="205.778,338.229 205.47,338.17 242.851,253.516 243.185,253.534 "/> <polygon fill="#E3E3E3" points="207.066,338.473 206.757,338.414 244.245,253.59 244.582,253.608 "/> <polygon fill="#E3E3E3" points="208.359,338.723 208.048,338.664 245.646,253.665 245.984,253.683 "/> <polygon fill="#E3E3E3" points="209.657,338.971 209.345,338.912 247.055,253.74 247.393,253.758 "/> <polygon fill="#E3E3E3" points="210.961,339.223 210.648,339.164 248.468,253.816 248.809,253.834 "/> <polygon fill="#E3E3E3" points="212.27,339.473 211.956,339.412 249.888,253.891 250.228,253.911 "/> <polygon fill="#E3E3E3" points="213.583,339.725 213.269,339.666 251.311,253.968 251.654,253.987 "/> <polygon fill="#E3E3E3" points="214.905,339.979 214.587,339.918 252.743,254.045 253.089,254.064 "/> <polygon fill="#E3E3E3" points="216.23,340.232 215.912,340.172 254.181,254.122 254.526,254.14 "/> <polygon fill="#E3E3E3" points="217.562,340.488 217.24,340.428 255.625,254.198 255.973,254.218 "/> <polygon fill="#E3E3E3" points="218.897,340.742 218.577,340.684 257.074,254.277 257.422,254.295 "/> <polygon fill="#E3E3E3" points="220.24,341.004 219.918,340.939 258.53,254.354 258.881,254.374 "/> <polygon fill="#E3E3E3" points="221.588,341.26 221.264,341.195 259.992,254.433 260.345,254.452 "/> <polygon fill="#E3E3E3" points="222.942,341.518 222.616,341.459 261.459,254.511 261.814,254.531 "/> <polygon fill="#E3E3E3" points="224.299,341.783 223.976,341.717 262.938,254.59 263.289,254.61 "/> <polygon fill="#E3E3E3" points="225.667,342.045 225.339,341.979 264.416,254.67 264.771,254.688 "/> <polygon fill="#E3E3E3" points="227.036,342.307 226.707,342.244 265.905,254.749 266.263,254.768 "/> <polygon fill="#E3E3E3" points="228.413,342.57 228.081,342.51 267.399,254.829 267.758,254.849 "/> <polygon fill="#E3E3E3" points="229.795,342.836 229.463,342.77 268.898,254.91 269.261,254.929 "/> <polygon fill="#E3E3E3" points="231.185,343.104 230.851,343.035 270.406,254.99 270.767,255.009 "/> <polygon fill="#E3E3E3" points="232.578,343.369 232.242,343.309 271.923,255.071 272.284,255.089 "/> <polygon fill="#E3E3E3" points="233.978,343.637 233.641,343.576 273.441,255.152 273.807,255.172 "/> <polygon fill="#E3E3E3" points="235.385,343.906 235.046,343.842 274.969,255.234 275.336,255.255 "/> <polygon fill="#E3E3E3" points="236.797,344.18 236.459,344.111 276.502,255.316 276.872,255.336 "/> <polygon fill="#E3E3E3" points="238.214,344.453 237.875,344.385 278.043,255.399 278.412,255.418 "/> <polygon fill="#E3E3E3" points="239.64,344.727 239.298,344.658 279.591,255.481 279.963,255.501 "/> <polygon fill="#E3E3E3" points="241.071,345 240.729,344.932 281.148,255.564 281.517,255.584 "/> <polygon fill="#E3E3E3" points="242.509,345.275 242.162,345.209 282.708,255.648 283.083,255.668 "/> <polygon fill="#E3E3E3" points="243.951,345.555 243.604,345.486 284.274,255.731 284.652,255.752 "/> </g> </g> </g> <g opacity="0.3"> <path fill="#FFFFFF" d="M263.902,256.046l-17.056-0.948l-8.482,19.152c2.28-1.239,4.478-2.056,6.691-2.112 c3.092-0.078,7.41-0.109,11.869-0.502L263.902,256.046z"/> <path fill="#FFFFFF" d="M265.673,256.144l-6.855,15.302c5.189-0.584,10.361-1.734,13.831-4.096 c3.097-2.108,7.317-6.268,11.024-10.207L265.673,256.144z"/> <path fill="#FFFFFF" d="M229.023,254.108l-11.557,26.396l9.84,0.963c3.173-2.021,6.039-4.133,8.745-5.843l9.121-20.619 L229.023,254.108z"/> <path fill="#FFFFFF" d="M225.005,282.874l-8.215-0.826l-1.998,4.563c1.694-0.017,3.706-0.449,6.091-1.559 C222.321,284.383,223.688,283.644,225.005,282.874z"/> </g> </g> <g> <g> <path fill="#828282" d="M185.195,368.82c-2.713,1.518-7.822,3.072-10.512,2.615l-21.933-4.549 c-1.156-0.195-1.812-0.604-1.97-1.125c-0.209-0.693-0.13-1.977,1.417-2.846l0.59,0.393c2.711-1.518,7.089-2.379,9.78-1.92 l23.329,3.385c1.512,0.258,1.506,1.346,1.309,2.107C187.052,367.475,186.38,368.156,185.195,368.82L185.195,368.82z"/> <path fill="#5E5E5E" d="M175.454,371.49c2.808,0.115,7.262-1.283,9.741-2.67c1.186-0.664,1.857-1.346,2.01-1.939 c0.186-0.721,0.186-1.721-1.09-2.049h-10.661V371.49z"/> <path fill="#3A3A3A" d="M185.195,367.975c-2.713,1.518-7.822,3.07-10.512,2.613l-21.933-4.547 c-2.691-0.459-2.674-2.061,0.037-3.58l0,0c2.711-1.518,7.089-2.377,9.78-1.92l22.663,3.854 C187.919,364.852,187.906,366.455,185.195,367.975L185.195,367.975z"/> <g> <path fill="#2B2B2B" d="M172.714,325.633c0.372,0.42,1.744,41.986,1.744,41.986l2.87-0.605l-0.094-41.381H172.714z"/> <polygon fill="#4F4F4F" points="174.458,367.619 157.39,364.16 157.39,312.07 174.458,312.07 "/> </g> <g> <polygon fill="#787878" points="209.788,251.896 212.197,250.201 212.55,254.441 174.618,339.139 171.756,339.158 "/> <polygon fill="#A6A6A6" points="171.756,339.158 120.016,328.816 155.495,247.593 212.197,250.201 "/> <polygon fill="#E3E3E3" points="171.021,335.014 123.509,325.836 156.143,251.243 207.81,253.945 "/> <g> <g> <polygon points="160.207,277.854 146.277,276.49 156.502,253.137 170.79,253.93 "/> <polygon points="176.359,279.435 161.65,277.995 172.272,254.012 187.363,254.851 "/> <polygon points="193.437,281.108 177.885,279.585 188.929,254.938 204.898,255.824 "/> </g> <g> <polygon points="149.168,302.805 135.608,300.857 145.679,277.856 159.586,279.254 "/> <polygon points="164.887,305.064 150.574,303.008 161.03,279.4 175.715,280.874 "/> <polygon points="181.5,307.455 166.372,305.281 177.239,281.028 192.769,282.589 "/> </g> <g> <polygon points="138.299,327.377 125.1,324.855 135.018,302.207 148.558,304.186 "/> <polygon points="153.594,330.289 139.668,327.635 149.962,304.391 164.252,306.484 "/> <polygon points="169.753,333.375 155.039,330.57 165.734,306.699 180.84,308.91 "/> </g> </g> <g opacity="0.3"> <polygon fill="#E3E3E3" points="125.89,325.635 125.626,325.584 157.853,252.031 158.137,252.046 "/> <polygon fill="#E3E3E3" points="126.989,325.844 126.724,325.793 159.043,252.094 159.328,252.109 "/> <polygon fill="#E3E3E3" points="128.09,326.057 127.826,326.006 160.236,252.158 160.524,252.173 "/> <polygon fill="#E3E3E3" points="129.198,326.27 128.932,326.217 161.436,252.222 161.725,252.237 "/> <polygon fill="#E3E3E3" points="130.31,326.482 130.042,326.432 162.641,252.286 162.929,252.302 "/> <polygon fill="#E3E3E3" points="131.426,326.695 131.158,326.646 163.848,252.351 164.14,252.366 "/> <polygon fill="#E3E3E3" points="132.547,326.91 132.277,326.859 165.062,252.416 165.356,252.432 "/> <polygon fill="#E3E3E3" points="133.672,327.125 133.402,327.074 166.282,252.481 166.575,252.497 "/> <polygon fill="#E3E3E3" points="134.802,327.344 134.53,327.293 167.506,252.547 167.802,252.562 "/> <polygon fill="#E3E3E3" points="135.937,327.562 135.664,327.51 168.736,252.613 169.032,252.628 "/> <polygon fill="#E3E3E3" points="137.076,327.779 136.802,327.729 169.97,252.679 170.269,252.694 "/> <polygon fill="#E3E3E3" points="138.22,328 137.945,327.949 171.21,252.744 171.509,252.761 "/> <polygon fill="#E3E3E3" points="139.368,328.221 139.092,328.168 172.456,252.811 172.755,252.827 "/> <polygon fill="#E3E3E3" points="140.522,328.443 140.245,328.391 173.707,252.878 174.008,252.895 "/> <polygon fill="#E3E3E3" points="141.68,328.664 141.402,328.609 174.963,252.945 175.264,252.962 "/> <polygon fill="#E3E3E3" points="142.842,328.887 142.564,328.834 176.222,253.013 176.526,253.029 "/> <polygon fill="#E3E3E3" points="144.011,329.111 143.73,329.057 177.489,253.081 177.794,253.098 "/> <polygon fill="#E3E3E3" points="145.184,329.336 144.903,329.283 178.761,253.149 179.067,253.165 "/> <polygon fill="#E3E3E3" points="146.362,329.562 146.078,329.51 180.039,253.216 180.346,253.234 "/> <polygon fill="#E3E3E3" points="147.543,329.787 147.26,329.734 181.321,253.286 181.628,253.302 "/> <polygon fill="#E3E3E3" points="148.731,330.018 148.447,329.961 182.609,253.354 182.919,253.372 "/> <polygon fill="#E3E3E3" points="149.924,330.246 149.637,330.189 183.903,253.423 184.214,253.441 "/> <polygon fill="#E3E3E3" points="151.123,330.475 150.833,330.422 185.201,253.493 185.515,253.51 "/> <polygon fill="#E3E3E3" points="152.323,330.707 152.037,330.648 186.508,253.562 186.82,253.581 "/> <polygon fill="#E3E3E3" points="153.533,330.939 153.243,330.881 187.816,253.633 188.131,253.649 "/> <polygon fill="#E3E3E3" points="154.745,331.172 154.453,331.117 189.134,253.704 189.451,253.72 "/> <polygon fill="#E3E3E3" points="155.962,331.404 155.668,331.35 190.457,253.774 190.774,253.792 "/> <polygon fill="#E3E3E3" points="157.186,331.641 156.892,331.582 191.783,253.846 192.103,253.863 "/> <polygon fill="#E3E3E3" points="158.416,331.875 158.12,331.816 193.117,253.917 193.436,253.934 "/> <polygon fill="#E3E3E3" points="159.648,332.111 159.351,332.057 194.458,253.988 194.779,254.005 "/> <polygon fill="#E3E3E3" points="160.886,332.35 160.588,332.295 195.802,254.061 196.125,254.078 "/> <polygon fill="#E3E3E3" points="162.131,332.586 161.832,332.529 197.154,254.133 197.478,254.151 "/> <polygon fill="#E3E3E3" points="163.38,332.828 163.081,332.77 198.509,254.205 198.837,254.223 "/> <polygon fill="#E3E3E3" points="164.634,333.07 164.334,333.01 199.874,254.278 200.2,254.296 "/> <polygon fill="#E3E3E3" points="165.896,333.312 165.593,333.252 201.243,254.351 201.572,254.369 "/> <polygon fill="#E3E3E3" points="167.162,333.553 166.859,333.494 202.621,254.425 202.947,254.442 "/> <polygon fill="#E3E3E3" points="168.434,333.797 168.127,333.74 204,254.499 204.333,254.517 "/> <polygon fill="#E3E3E3" points="169.71,334.045 169.403,333.984 205.387,254.572 205.721,254.591 "/> </g> </g> </g> <g opacity="0.3"> <path fill="#FFFFFF" d="M187.363,254.851l-15.091-0.839l-7.505,16.945c2.018-1.096,3.961-1.819,5.92-1.868 c2.736-0.069,6.557-0.096,10.502-0.444L187.363,254.851z"/> <path fill="#FFFFFF" d="M188.929,254.938l-6.066,13.539c4.592-0.517,9.168-1.535,12.237-3.624 c2.74-1.865,6.475-5.545,9.755-9.031L188.929,254.938z"/> <path fill="#FFFFFF" d="M156.502,253.137l-10.226,23.354l8.706,0.853c2.808-1.789,5.343-3.657,7.737-5.169l8.07-18.243 L156.502,253.137z"/> <path fill="#FFFFFF" d="M152.948,278.587l-7.269-0.73l-1.768,4.037c1.499-0.015,3.279-0.397,5.39-1.379 C150.573,279.922,151.782,279.269,152.948,278.587z"/> </g> </g> </g> <g id="Layer_3"> <ellipse fill="#5E2201" cx="75.384" cy="380.91" rx="0.937" ry="0.848"/> <ellipse fill="#5E2201" cx="99.523" cy="386.703" rx="0.937" ry="0.848"/> <ellipse fill="#3D1601" cx="79.948" cy="388.598" rx="0.937" ry="0.848"/> <ellipse fill="#3D1601" cx="92.644" cy="388.959" rx="0.937" ry="0.848"/> <ellipse transform="matrix(0.3077 0.9515 -0.9515 0.3077 420.5708 182.1057)" fill="#5E2201" cx="85.145" cy="380.063" rx="0.937" ry="0.848"/> <ellipse transform="matrix(0.3077 0.9515 -0.9515 0.3077 435.5682 188.0014)" fill="#3D1601" cx="88.592" cy="393.317" rx="0.937" ry="0.848"/> <ellipse fill="#5E2201" cx="99.651" cy="392.08" rx="0.937" ry="0.848"/> <ellipse fill="#5E2201" cx="123.791" cy="397.873" rx="0.937" ry="0.848"/> <ellipse fill="#3D1601" cx="104.215" cy="399.768" rx="0.937" ry="0.848"/> <ellipse fill="#3D1601" cx="116.911" cy="400.129" rx="0.937" ry="0.848"/> <ellipse transform="matrix(0.3077 0.9515 -0.9515 0.3077 447.9994 166.7485)" fill="#5E2201" cx="109.412" cy="391.233" rx="0.937" ry="0.848"/> <ellipse transform="matrix(0.3077 0.9515 -0.9515 0.3077 441.0519 197.0079)" fill="#3D1601" cx="85.145" cy="401.589" rx="0.937" ry="0.848"/> <ellipse fill="#5E2201" cx="129.612" cy="399.91" rx="0.937" ry="0.848"/> <ellipse fill="#5E2201" cx="153.751" cy="405.703" rx="0.937" ry="0.848"/> <ellipse fill="#3D1601" cx="134.176" cy="407.598" rx="0.937" ry="0.848"/> <ellipse fill="#3D1601" cx="146.872" cy="407.959" rx="0.937" ry="0.848"/> <ellipse transform="matrix(0.3077 0.9515 -0.9515 0.3077 476.1913 143.6624)" fill="#5E2201" cx="139.373" cy="399.063" rx="0.937" ry="0.848"/> <ellipse transform="matrix(0.3077 0.9515 -0.9515 0.3077 491.1888 149.5581)" fill="#3D1601" cx="142.82" cy="412.317" rx="0.937" ry="0.848"/> <ellipse fill="#5E2201" cx="155.603" cy="412.734" rx="0.937" ry="0.848"/> <ellipse fill="#5E2201" cx="180.68" cy="414.764" rx="0.937" ry="0.848"/> <ellipse fill="#5E2201" cx="177.301" cy="427.002" rx="0.937" ry="0.848"/> <ellipse fill="#3D1601" cx="160.167" cy="420.422" rx="0.937" ry="0.848"/> <ellipse fill="#3D1601" cx="172.505" cy="418.318" rx="0.937" ry="0.848"/> <ellipse transform="matrix(0.3077 0.9515 -0.9515 0.3077 506.3872 127.8104)" fill="#5E2201" cx="165.364" cy="411.888" rx="0.937" ry="0.848"/> <ellipse transform="matrix(0.3077 0.9515 -0.9515 0.3077 521.3846 133.7061)" fill="#3D1601" cx="168.811" cy="425.142" rx="0.937" ry="0.848"/> <ellipse fill="#5E2201" cx="185.22" cy="423.176" rx="0.937" ry="0.848"/> <ellipse fill="#5E2201" cx="209.359" cy="437.359" rx="0.937" ry="0.848"/> <ellipse fill="#5E2201" cx="209.359" cy="428.969" rx="0.937" ry="0.848"/> <ellipse fill="#5E2201" cx="219.323" cy="443.096" rx="0.937" ry="0.848"/> <ellipse fill="#3D1601" cx="189.784" cy="430.863" rx="0.937" ry="0.848"/> <ellipse fill="#3D1601" cx="201" cy="429.816" rx="0.937" ry="0.848"/> <ellipse fill="#3D1601" cx="217.521" cy="431.225" rx="0.937" ry="0.848"/> <ellipse transform="matrix(0.3077 0.9515 -0.9515 0.3077 536.8258 106.8592)" fill="#5E2201" cx="194.981" cy="422.329" rx="0.937" ry="0.848"/> <ellipse transform="matrix(0.3077 0.9515 -0.9515 0.3077 551.8232 112.7549)" fill="#3D1601" cx="198.428" cy="435.583" rx="0.937" ry="0.848"/> <ellipse transform="matrix(0.3079 0.9514 -0.9514 0.3079 567.9656 84.3502)" fill="#3D1601" cx="226.003" cy="432.575" rx="0.937" ry="0.848"/> <ellipse transform="matrix(0.3079 0.9514 -0.9514 0.3079 592.1562 73.829)" fill="#3D1601" cx="245.331" cy="443.942" rx="0.937" ry="0.848"/> <ellipse transform="matrix(0.3079 0.9514 -0.9514 0.3079 585.1277 61.3897)" fill="#3D1601" cx="250.367" cy="432.892" rx="0.937" ry="0.848"/> <ellipse transform="matrix(0.3079 0.9514 -0.9514 0.3079 601.4463 52.6708)" fill="#3D1601" cx="264.519" cy="439.749" rx="0.937" ry="0.848"/> <ellipse transform="matrix(0.3079 0.9514 -0.9514 0.3079 593.8214 45.8798)" fill="#3D1601" cx="265.375" cy="431.112" rx="0.937" ry="0.848"/> <ellipse transform="matrix(0.3079 0.9514 -0.9514 0.3079 622.4073 -7.598)" fill="#3D1601" cx="316.426" cy="424.022" rx="0.937" ry="0.848"/> <ellipse transform="matrix(0.3079 0.9514 -0.9514 0.3079 632.79 -23.1252)" fill="#3D1601" cx="332.291" cy="423.396" rx="0.937" ry="0.848"/> <ellipse transform="matrix(0.3079 0.9514 -0.9514 0.3079 625.1669 -29.915)" fill="#3D1601" cx="333.146" cy="414.761" rx="0.937" ry="0.848"/> <ellipse transform="matrix(0.0589 0.9983 -0.9983 0.0589 753.1609 22.3572)" fill="#3D1601" cx="364.723" cy="410.623" rx="0.937" ry="0.849"/> <ellipse transform="matrix(0.0594 0.9982 -0.9982 0.0594 767.41 15.643)" fill="#3D1601" cx="375.404" cy="415.035" rx="0.937" ry="0.848"/> <ellipse transform="matrix(-0.3303 -0.9439 0.9439 -0.3303 6.6248 836.0053)" fill="#3D1601" cx="299.908" cy="415.652" rx="0.937" ry="0.848"/> <ellipse transform="matrix(-0.3303 -0.9439 0.9439 -0.3303 -10.2699 846.3497)" fill="#3D1601" cx="295.131" cy="426.818" rx="0.937" ry="0.848"/> <ellipse transform="matrix(-0.3298 -0.9441 0.9441 -0.3298 -23.3427 824.0144)" fill="#3D1601" cx="280.823" cy="420.293" rx="0.937" ry="0.849"/> <ellipse transform="matrix(-0.3298 -0.9441 0.9441 -0.3298 -32.381 834.9026)" fill="#3D1601" cx="280.168" cy="428.945" rx="0.937" ry="0.849"/> <ellipse transform="matrix(-0.3298 -0.9441 0.9441 -0.3298 2.1638 849.583)" fill="#3D1601" cx="302.652" cy="424.023" rx="0.937" ry="0.849"/> <ellipse transform="matrix(-0.3298 -0.9441 0.9441 -0.3298 21.1784 850.5116)" fill="#3D1601" cx="312.489" cy="417.738" rx="0.937" ry="0.849"/> <ellipse transform="matrix(0.3079 0.9514 -0.9514 0.3079 643.138 -79.4741)" fill="#3D1601" cx="376.197" cy="402.334" rx="0.937" ry="0.848"/> <ellipse transform="matrix(-0.3303 -0.9439 0.9439 -0.3303 106.6065 863.5709)" fill="#3D1601" cx="359.679" cy="393.964" rx="0.937" ry="0.848"/> <ellipse transform="matrix(-0.3303 -0.9439 0.9439 -0.3303 89.7119 873.9152)" fill="#3D1601" cx="354.901" cy="405.13" rx="0.937" ry="0.848"/> <ellipse transform="matrix(-0.3298 -0.9441 0.9441 -0.3298 76.6149 851.5997)" fill="#3D1601" cx="340.593" cy="398.604" rx="0.937" ry="0.849"/> <ellipse transform="matrix(-0.3298 -0.9441 0.9441 -0.3298 67.5765 862.4879)" fill="#3D1601" cx="339.939" cy="407.257" rx="0.937" ry="0.849"/> <ellipse transform="matrix(-0.3298 -0.9441 0.9441 -0.3298 -8.239 813.524)" fill="#3D1601" cx="284.651" cy="409.687" rx="0.937" ry="0.849"/> <ellipse transform="matrix(-0.3298 -0.9441 0.9441 -0.3298 121.1359 878.097)" fill="#3D1601" cx="372.259" cy="396.05" rx="0.937" ry="0.849"/> <ellipse transform="matrix(0.3079 0.9514 -0.9514 0.3079 650.4114 -114.8773)" fill="#3D1601" cx="404.168" cy="389.632" rx="0.937" ry="0.848"/> <ellipse transform="matrix(-0.3303 -0.9439 0.9439 -0.3303 155.8054 873.0759)" fill="#3D1601" cx="387.65" cy="381.262" rx="0.937" ry="0.848"/> <ellipse transform="matrix(-0.3303 -0.9439 0.9439 -0.3303 140.6591 889.5886)" fill="#3D1601" cx="385.936" cy="394.892" rx="0.937" ry="0.848"/> <ellipse transform="matrix(-0.3298 -0.9441 0.9441 -0.3298 125.8029 861.1153)" fill="#3D1601" cx="368.565" cy="385.902" rx="0.937" ry="0.849"/> <ellipse transform="matrix(-0.3298 -0.9441 0.9441 -0.3298 180.6637 876.9216)" fill="#3D1601" cx="401.606" cy="374.332" rx="0.937" ry="0.849"/> <ellipse transform="matrix(-0.3298 -0.9441 0.9441 -0.3298 151.3094 886.6838)" fill="#3D1601" cx="390.394" cy="389.633" rx="0.937" ry="0.849"/> <ellipse transform="matrix(-0.3298 -0.9441 0.9441 -0.3298 170.324 887.6125)" fill="#3D1601" cx="400.231" cy="383.348" rx="0.937" ry="0.849"/> <ellipse transform="matrix(0.3079 0.9514 -0.9514 0.3079 653.832 -81.6033)" fill="#3D1601" cx="383.007" cy="408.62" rx="0.937" ry="0.848"/> <ellipse transform="matrix(0.3079 0.9514 -0.9514 0.3079 657.8509 -109.6945)" fill="#3D1601" cx="404.326" cy="397.337" rx="0.937" ry="0.848"/> <ellipse transform="matrix(0.3079 0.9514 -0.9514 0.3079 658.5251 -86.1995)" fill="#3D1601" cx="388.513" cy="409.548" rx="0.937" ry="0.848"/> <ellipse transform="matrix(0.3079 0.9514 -0.9514 0.3079 663.9507 -108.3887)" fill="#3D1601" cx="406.478" cy="402.183" rx="0.937" ry="0.848"/> <ellipse transform="matrix(0.3079 0.9514 -0.9514 0.3079 659.048 -99.7893)" fill="#3D1601" cx="398.116" cy="403.112" rx="0.937" ry="0.848"/> <ellipse transform="matrix(0.3079 0.9514 -0.9514 0.3079 584.9879 87.0898)" fill="#3D1601" cx="232.631" cy="445.646" rx="0.937" ry="0.848"/> <path fill="#5C2101" d="M121.925,389.934c-1,1.143-2.251,1.877-4.279,1.344c-2.026-0.533-3.397-2-3.062-3.277 c0.336-1.275,2.251-1.877,4.278-1.344S122.795,388.941,121.925,389.934z"/> <path fill="#3D1601" d="M77.57,392.941c-0.287,1.287-1.949,1.482-3.659,1.102c-1.709-0.381-2.863-1.732-2.576-3.021 c0.287-1.287,1.407-1.215,3.117-0.834C76.162,390.568,77.857,391.652,77.57,392.941z"/> <path fill="#2D1101" d="M159.562,414.211c-0.401,1.256-2.079,1.844-3.748,1.311c-1.668-0.531-2.697-1.98-2.295-3.24 c0.4-1.256,2.062-1.426,3.731-0.893C158.918,411.92,159.963,412.953,159.562,414.211z"/> <path fill="#3D1601" d="M191.969,435.34c-0.287,1.287-1.905,2.021-3.615,1.641c-1.709-0.381-1.918-1.807-2.576-3.021 c-0.628-1.16,1.905-2.023,3.615-1.643C191.103,432.697,192.256,434.051,191.969,435.34z"/> <path fill="#180900" d="M352.361,415.641c-0.287,1.285,0.689,2.598,2.18,2.932c1.49,0.332,2.22-0.885,3.219-1.73 c0.952-0.809-0.688-2.602-2.18-2.934C354.09,413.576,352.648,414.352,352.361,415.641z"/> <ellipse transform="matrix(0.976 0.2177 -0.2177 0.976 99.583 -38.8232)" fill="#561F01" cx="226.003" cy="432.577" rx="3.172" ry="2.388"/> <ellipse transform="matrix(-0.9988 -0.0496 0.0496 -0.9988 500.929 858.6241)" fill="#301201" cx="261.123" cy="423.094" rx="2.637" ry="2.388"/> <path fill="#1E0C00" d="M319.947,406.386c-0.066,1.316,2.516,2.516,3.97,2.588c1.455,0.074,1.232-1.008,1.298-2.328 c0.066-1.316-1.059-2.443-2.515-2.518C321.246,404.056,320.013,405.065,319.947,406.386z"/> <path fill="#1E0C00" d="M396.337,381.949c-0.066,1.316,2.516,2.516,3.97,2.588c1.455,0.074,1.232-1.008,1.298-2.328 c0.066-1.316-1.059-2.443-2.515-2.518C397.636,379.619,396.402,380.629,396.337,381.949z"/> <g> <path fill="#78C01D" d="M360.364,364.984l-4.719-3.051c0,0-6.662-11.752-0.311-17.254 C358.804,349.264,361.388,363.867,360.364,364.984z"/> <path fill="#78C01D" d="M353.456,362.832c-0.404,0.346,6.771-5.322,6.771-5.322s4.885-14.893-0.363-23.793 C356.808,339.088,359.497,357.654,353.456,362.832z"/> <path fill="#285211" d="M364.364,363.717l-4.352-3.557c0,0-5.311-12.42,1.613-17.182 C364.563,347.92,365.505,362.721,364.364,363.717z"/> <path fill="#3F7315" d="M360.03,375.26l-3.844-3.404c0,0-5.822-12.189,0.898-17.232 C360.224,359.438,361.128,374.217,360.03,375.26z"/> <path fill="#3F7315" d="M367.055,370.049l-3.763,0.414c0,0-1.748-19.879,5.508-24.117 C371.364,351.49,368.265,369.141,367.055,370.049z"/> <path fill="#78C01D" d="M357.705,368.887c-0.245,0.18,1.448-1.76,3.847-1.033c1.167,0.354,1.819,1.047,1.819,1.047 s7.471-19.299,2.902-28.568C362.824,345.461,364.116,364.176,357.705,368.887z"/> <path fill="#78C01D" d="M360.03,375.26l-4.09,0.201c0,0-2.743-17.578,4.883-21.104C362.886,359.723,361.321,374.471,360.03,375.26 z"/> <path fill="#285211" d="M354.646,375.609l2.414-0.154c0,0-0.935-17.213-8.865-20.148 C352.249,361.539,353.858,374.842,354.646,375.609z"/> <path fill="#285211" d="M359.724,359.613c0,0-3.811,14.797-3.711,15.699c1.141,0.146,0.733,0.148,0.733,0.148 S359.571,361.967,359.724,359.613z"/> <path fill="#285211" d="M366.456,347.652c-0.01-0.168-1.342,14.037-3.738,17.598C363.61,364.648,366.985,356.592,366.456,347.652z "/> <path fill="#78C01D" d="M367.055,370.049c0,0,1.755-18.801,10.519-23.934c0.643,4.965-6.708,16.104-6.592,23.611 C371.001,371.031,367.055,370.049,367.055,370.049z"/> <path fill="#285211" d="M373.96,352.5c0.09-0.129-5.531,11.91-5.004,15.959C368.409,367.531,369.14,359.391,373.96,352.5z"/> </g> </g> <g id="Warstwa_5"> </g> </svg>