<?xml version="1.0" encoding="UTF-8"?>
<svg viewBox="0 0 1052.4 744.09" xmlns="http://www.w3.org/2000/svg">
 <defs>
  <linearGradient id="a" x1="-.001463" x2="1.0015" y1=".50006" y2=".50006">
   <stop stop-color="#828282" offset="0"/>
   <stop stop-color="#fff" offset=".24496"/>
   <stop stop-color="#fff" offset=".48531"/>
   <stop stop-color="#bababa" offset=".62234"/>
   <stop offset=".82854"/>
   <stop stop-color="#fff" offset="1"/>
  </linearGradient>
 </defs>
 <rect transform="scale(-1 1)" x="-828.76" y="248.2" width="53.404" height="495.17" fill="url(#a)" opacity=".498"/>
 <path transform="scale(-1 1)" d="m-828.51 244.95l53.154-0.25-0.5 260.67-52.904-62 0.25-198.42z" opacity=".119"/>
 <path d="m796.5 374.34l2.25 4.25-434.65 104.75-0.1-2 432.5-107z" fill="#301e2e"/>
 <path d="m527.06 319.54l422.24-124.95-154.95 176.97-421.66 102.45 154.36-154.47z" fill="#272747" stroke="#ae9fab" stroke-linecap="round" stroke-width="8"/>
 <g stroke="#7c7a8e">
  <path d="m460.67 390.76l409.04-110.58" fill="#7c7a8e"/>
  <path d="m541.75 320.34l-137.42 141.58" fill="none"/>
  <path d="m554.38 323.59s1.1042-2.7917 0.95831-4.5833c-0.14581-1.7917-1.5416-1.9583-1.5416-1.9583l10.125-2.9583-138.92 142.25" fill="#68647c"/>
  <path d="m583.62 307.84l-140.79 144.42" fill="none"/>
  <path d="m594.75 312.34s0.99115-2.9687 0.71875-4.3229-2.2812-2.9479-2.2812-2.9479l12.688-3.8958-142.38 145.96" fill="#67647d"/>
  <path d="m625 296.09l-141.83 146" fill="none"/>
  <path d="m635.6 300.69s0.57031-3.426 0.070801-5.025c-0.38147-1.2213-2.2292-3.125-2.2292-3.125l14.142-4.15-144.92 149.7" fill="#68637a"/>
  <path d="m667.83 282.36l-143.08 150.23" fill="none"/>
  <path d="m678.83 287.49s-0.18121-2.8491-0.73749-4.1333c-0.51794-1.1957-2.3375-3.1333-2.3375-3.1333l14.125-4.2667-143.55 150.97" fill="#6a667c"/>
  <path d="m710.97 269.66l-144.05 153.02" fill="none"/>
  <path d="m721.87 275.36s-0.060913-3.0423-0.73334-4.35c-0.7204-1.4009-3.3333-3.35-3.3333-3.35l16.033-4.9-142.33 153.5" fill="#736e83"/>
  <path d="m755.5 256.93l-143.25 154" fill="none"/>
  <path d="m767.63 262.43s-0.27014-3.3407-1.1146-4.7188c-0.89386-1.4586-3.9146-3.3187-3.9146-3.3187l17.171-5.1375-143.86 155.92" fill="#746d82"/>
  <path d="m803.12 242.64l-145.79 157.62" fill="none"/>
  <path d="m813.54 250.22s0.55206-4.4638-0.22919-6c-0.78119-1.5362-3.7291-3.75-3.7291-3.75l17.667-5.25-144.92 158.38" fill="#898193"/>
  <path d="m849.42 228.59l-143.67 160.17" fill="none"/>
  <path d="m862.79 235.55s-0.37158-4.3239-1.3698-5.9062c-0.99817-1.5823-4.6198-3.2812-4.6198-3.2812l19.76-5.6875-144.98 161.46" fill="#6d647c"/>
  <path d="m899.08 214.09l-144.16 162.25" fill="none"/>
 </g>
 <g fill="#4d2d19">
  <path d="m762.83 437.34l44.833-8.5833-0.1666-49.333-44.542 7.9583-0.125 49.958z"/>
  <path d="m718 398.43l-0.5 21.167 5.6667 8.3333 40.208 9.75 0.375-50.208-45.75 10.958z"/>
 </g>
 <path d="m764 390.43l-0.5 21.167 5.6667 8.3333 38.375 7.75-0.0417-47.75-43.5 10.5z" fill="#66697c"/>
 <g stroke="#000">
  <path d="m568.33 465.09l46.667-17-6.3334-9-47.667 12 7.3333 14z" fill="#322131"/>
  <path d="m559.75 450.47l7.5-6.25 46.875-11.25-6.375 5.125-48 12.375z" fill="#19132b"/>
 </g>
 <path d="m568.33 465.76l-8-15 46.667-11.667 10.667 14.333" fill="none" stroke="#221026" stroke-width="2.1"/>
 <g stroke="#000">
  <path d="m607.83 438.05l5.5-4.2917 121.67-29.333-7 7.6667-110 40.667-10.167-14.708z" fill="#66697c"/>
  <path d="m363.33 484.09l5.3333 7.6667 435.67-104.67-5-8.3333-436 105.33z" fill="#49393d" stroke-width=".5"/>
 </g>
 <path d="m958.38 189.72c0.5 3.5 1.875 4.25 1.875 4.25l-161 184.62-2.5-3.625 161.62-185.25z" fill="#e2e2e2"/>
 <path d="m804.38 386.97l163.38-188.62-4.5-8-163.75 188.25 4.875 8.375z" fill="#afaeb4" stroke="#000" stroke-width=".5"/>
 <path d="m801 414.01a3.3333 4.9167 0 1 1 -6.6667 0 3.3333 4.9167 0 1 1 6.6667 0z" fill="#0c050f" opacity=".512"/>
 <path d="m754.67 423.76a3 4.6667 0 1 1 -6 0 3 4.6667 0 1 1 6 0z" fill="#5e7cae" opacity=".512"/>
 <g fill="none" stroke="#000" stroke-width="2">
  <path d="m716.88 416.22l-0.125 4 6.125 8.625 40.625 7.875"/>
  <path d="m762.5 397.34v12.5l6 9.75"/>
 </g>
</svg>
