<?xml version="1.0" encoding="UTF-8"?>
<svg viewBox="0 0 1052.3622 744.09448" xmlns="http://www.w3.org/2000/svg">
 <defs>
  <linearGradient id="b" x1="-828.84" x2="-775.28" gradientUnits="userSpaceOnUse">
   <stop stop-color="#828282" offset="0"/>
   <stop stop-color="#fff" offset=".24496"/>
   <stop stop-color="#fff" offset=".48531"/>
   <stop stop-color="#bababa" offset=".62234"/>
   <stop offset=".82854"/>
   <stop stop-color="#fff" offset="1"/>
  </linearGradient>
  <linearGradient id="a" x1="771.07" x2="833.06" gradientUnits="userSpaceOnUse">
   <stop offset="0"/>
   <stop stop-color="#fff" offset="1"/>
  </linearGradient>
 </defs>
 <path transform="scale(-1,1)" d="m-828.76 235.2h53.404v508.17h-53.404z" fill="url(#b)" opacity=".49814"/>
 <path transform="scale(-1,1)" d="m-828.51 128.2h53.154v97.669h-53.154z" fill="#552e32" opacity=".49814"/>
 <path transform="matrix(1.0142 -.07356 .0485 .95993 -10.017 154.79)" d="m845.5 137.09a42.833 11.333 0 1 1 -85.667 0 42.833 11.333 0 1 1 85.667 0z" fill="#745050" opacity=".6803"/>
 <path d="m777.58 219.04h48.952a6.4195 6.4195 0 0 1 6.4195 6.4195v13.483a6.4195 6.4195 0 0 1 -6.4195 6.4195h-48.952a6.4195 6.4195 0 0 1 -6.4195 -6.4195v-13.483a6.4195 6.4195 0 0 1 6.4195 -6.4195" fill="url(#a)"/>
 <path transform="scale(-1,1)" d="m-828.51 244.95 53.154-0.25-0.5 260.67-52.904-62 0.25-198.42z" opacity=".11896"/>
 <path d="m796.5 374.34 2.25 4.25-434.65 104.75-0.1-2 432.5-107z" fill="#301e2e"/>
 <path d="m527.06 319.54 422.24-124.95-154.95 176.97-421.66 102.45 154.36-154.47z" fill="#272747" stroke="#ae9fab" stroke-linecap="round" stroke-width="8"></path>
 <path d="m460.67 390.76 409.04-110.58" fill="#7c7a8e" stroke="#7c7a8e"/>
 <path d="m541.75 320.34-137.42 141.58" fill="none" stroke="#7c7a8e"/>
 <path d="m554.38 323.59s1.1042-2.7917 0.95834-4.5833-1.5417-1.9583-1.5417-1.9583l10.125-2.9583-138.92 142.25" fill="#68647c" stroke="#7c7a8e"/>
 <path d="m583.62 307.84-140.79 144.42" fill="none" stroke="#7c7a8e"/>
 <path d="m594.75 312.34s0.99117-2.9687 0.71875-4.3229-2.2812-2.9479-2.2812-2.9479l12.688-3.8958-142.38 145.96" fill="#67647d" stroke="#7c7a8e"/>
 <path d="m625 296.09-141.83 146" fill="none" stroke="#7c7a8e"/>
 <path d="m635.6 300.69s0.57029-3.426 0.0708-5.025c-0.3815-1.2213-2.2292-3.125-2.2292-3.125l14.142-4.15-144.92 149.7" fill="#68637a" stroke="#7c7a8e"/>
 <path d="m667.83 282.36-143.08 150.23" fill="none" stroke="#7c7a8e"/>
 <path d="m678.83 287.49s-0.18123-2.8491-0.7375-4.1333c-0.51793-1.1957-2.3375-3.1333-2.3375-3.1333l14.125-4.2667-143.55 150.97" fill="#6a667c" stroke="#7c7a8e"/>
 <path d="m710.97 269.66-144.05 153.02" fill="none" stroke="#7c7a8e"/>
 <path d="m721.87 275.36s-0.0609-3.0423-0.73333-4.35c-0.72038-1.4009-3.3333-3.35-3.3333-3.35l16.033-4.9-142.33 153.5" fill="#736e83" stroke="#7c7a8e"/>
 <path d="m755.5 256.93-143.25 154" fill="none" stroke="#7c7a8e"/>
 <path d="m767.63 262.43s-0.27013-3.3407-1.1146-4.7188c-0.89382-1.4586-3.9146-3.3188-3.9146-3.3188l17.171-5.1375-143.86 155.93" fill="#746d82" stroke="#7c7a8e"/>
 <path d="m803.12 242.64-145.79 157.62" fill="none" stroke="#7c7a8e"/>
 <path d="m813.54 250.22s0.55204-4.4638-0.22917-6-3.7292-3.75-3.7292-3.75l17.667-5.25-144.92 158.38" fill="#898193" stroke="#7c7a8e"/>
 <path d="m849.42 228.59-143.67 160.17" fill="none" stroke="#7c7a8e"/>
 <path d="m862.79 235.55s-0.37159-4.3239-1.3698-5.9062-4.6198-3.2812-4.6198-3.2812l19.76-5.6875-144.98 161.46" fill="#6d647c" stroke="#7c7a8e"/>
 <path d="m899.08 214.09-144.16 162.25" fill="none" stroke="#7c7a8e"/>
 <path d="m762.83 437.34 44.833-8.5833-0.16667-49.333-44.542 7.9583-0.125 49.958z" fill="#4d2d19"/>
 <path d="m718 398.43-0.5 21.167 5.6667 8.3333 40.208 9.75 0.375-50.208-45.75 10.958z" fill="#4d2d19"/>
 <path d="m764 390.43-0.5 21.167 5.6667 8.3333 38.375 7.75-0.04167-47.75-43.5 10.5z" fill="#66697c"/>
 <path d="m568.33 465.09 46.667-17-6.3333-9-47.667 12 7.3333 14z" fill="#322131" stroke="#000"/>
 <path d="m559.75 450.47 7.5-6.25 46.875-11.25-6.375 5.125-48 12.375z" fill="#19132b" stroke="#000"/>
 <path d="m568.33 465.76-8-15 46.667-11.667 10.667 14.333" fill="none" stroke="#221026" stroke-width="2.1"/>
 <path d="m607.83 438.05 5.5-4.2917 121.67-29.333-7 7.6667-110 40.667-10.167-14.708z" fill="#66697c" stroke="#000"/>
 <path d="m363.33 484.09 5.3333 7.6667 435.67-104.67-5-8.3333-436 105.33z" fill="#49393d" stroke="#000" stroke-width=".5"/>
 <path d="m958.38 189.72c0.5 3.5 1.875 4.25 1.875 4.25l-161 184.62-2.5-3.625 161.62-185.25z" fill="#e2e2e2"/>
 <path d="m804.38 386.97 163.38-188.62-4.5-8-163.75 188.25 4.875 8.375z" fill="#afaeb4" stroke="#000" stroke-width=".5"/>
 <path d="m801 414.01a3.3333 4.9167 0 1 1 -6.6667 0 3.3333 4.9167 0 1 1 6.6667 0z" fill="#0c050f" opacity=".5122"/>
 <path transform="translate(-.83333,-.33333)" d="m755.5 424.09a3 4.6667 0 1 1 -6 0 3 4.6667 0 1 1 6 0z" fill="#5e7cae" opacity=".5122"/>
 <path d="m716.88 416.22-0.125 4 6.125 8.625 40.625 7.875" fill="none" stroke="#000" stroke-width="2"/>
 <path d="m762.5 397.34v12.5l6 9.75" fill="none" stroke="#000" stroke-width="2"/>
 <path transform="matrix(1.0142 -.07356 .0485 .95993 -18.017 68.787)" d="m845.5 137.09a42.833 11.333 0 1 1 -85.667 0 42.833 11.333 0 1 1 85.667 0z" fill="#745050" opacity=".6803"/>
 <path transform="matrix(1.0142 -.07356 .0485 .95993 -16.017 88.787)" d="m845.5 137.09a42.833 11.333 0 1 1 -85.667 0 42.833 11.333 0 1 1 85.667 0z" fill="#745050" opacity=".6803"/>
 <path transform="matrix(1.0142 -.07356 .0485 .95993 -16.017 110.79)" d="m845.5 137.09a42.833 11.333 0 1 1 -85.667 0 42.833 11.333 0 1 1 85.667 0z" fill="#745050" opacity=".6803"/>
 <path transform="matrix(1.0142 -.07356 .0485 .95993 -14.017 132.79)" d="m845.5 137.09a42.833 11.333 0 1 1 -85.667 0 42.833 11.333 0 1 1 85.667 0z" fill="#745050" opacity=".6803"/>
 <path d="m767.27 229.46s13.958-8.5296 22-9.5c8.402-1.014 45.839-2.5293 52.09 2.1623 3.2408-0.90106 4.9022-1.454 7.4931-2.329 0 0-6.3449-8.6811-9.5833-13.5-16.619-6.6054-34.543-6.8167-52.333-1.1667 0 0-11.709 10.305-16.083 16.667-1.5984 2.3244-3.5833 7.6667-3.5833 7.6667z" fill="#efe2d9"/>
 <path d="m759.17 142.76s13.976-7.9951 21.708-9.7917c16.879-3.9219 34.907-4.7956 51.958-1.7083 4.5531 0.82437 12.833 5.2917 12.833 5.2917l-14.5-16.958-0.66667-4.6667s-8.1931-5.17-12.833-6.1667c-6.5743-1.4121-13.491-0.30875-20.167 0.5-5.1386 0.62256-15.167 3.3333-15.167 3.3333l-3.5 5.8333-19.667 24.333z" fill="#efe2d9"/>
 <path d="m759.87 163.76s13.957-8.7786 21.833-10.667c16.804-4.0279 34.801-3.746 51.833-0.83333 4.847 0.82885 13.833 5.125 13.833 5.125l-15.5-16.792c-16.794-7.3874-45.108-3.7382-58 3.6667-8.5584 9.9048-14 19.5-14 19.5z" fill="#efe2d9"/>
 <path d="m760.67 186.06s13.957-8.7786 21.833-10.667c16.804-4.0279 34.72-3.2296 51.833-0.83333 4.5993 0.64402 13.333 4.0417 13.333 4.0417s-9.1197-10.596-14-16.708c-18.528-8.2104-47.48-2.5072-60.167 5.3333l-12.833 18.833z" fill="#efe2d9"/>
 <path d="m763.27 207.46s13.957-8.7786 21.833-10.667c16.804-4.0279 34.823-3.8726 51.833-0.83333 4.6922 0.83835 13.333 5.1667 13.333 5.1667s-9.0101-12.516-15-17.667c-15.577-5.8392-48.71-5.65-62.833 7.8333l-9.1667 16.167z" fill="#efe2d9"/>
 <path d="m756 215.93-11.667 18.167-3.3333 1.1667-5 8.6667 1.3333 8.8333 19.167-5.8333 1.5-7-1-3.3333 10.5-16.167 7-0.33334 2.1667-5.1667 5.3333-5.5-4.6667-9.5-9.1667 0.83333-6.5 3.1667-5.5 6.5-0.16667 5.5z" fill="#eadbcf"/>
 <path d="m747.17 242.26 1.6667-3.8333 4.6667 1.1667 2.1667 4.8333v2.3333l-5.6667 1.5-2.8333-6z" fill="#8b8997"/>
 <path d="m772.67 211.09 3.5 1.6667 3.8333-4-2.3333-5.5-3.8333-1.5-3.5 3.3333 2.3333 6z" fill="#816667"/>
</svg>
