<?xml version="1.0" encoding="UTF-8"?>
<svg enable-background="new 0 0 595.28 841.89" viewBox="0 0 595.28 841.89" xmlns="http://www.w3.org/2000/svg">
 <defs>
  <linearGradient id="ah" x2="0" y1="858.26" y2="315.32" gradientTransform="matrix(-.3385 .3596 .2549 .8737 -123.46 25.92)" gradientUnits="userSpaceOnUse">
   <stop stop-color="#ffed00" offset=".1538"/>
   <stop stop-color="#fe0" offset=".2173"/>
   <stop stop-color="#ffef2a" offset=".3229"/>
   <stop stop-color="#fff268" offset=".4575"/>
   <stop stop-color="#fff6a4" offset=".616"/>
   <stop stop-color="#fffcdf" offset=".7925"/>
   <stop stop-color="#fff" offset=".8956"/>
  </linearGradient>
  <linearGradient id="ag" x2="0" y1="1137.2" y2="526.99" gradientTransform="matrix(-.2833 .5042 .3574 .7313 -194.21 81.961)" gradientUnits="userSpaceOnUse">
   <stop stop-color="#ffed00" offset=".1538"/>
   <stop stop-color="#fe0" offset=".2173"/>
   <stop stop-color="#ffef2a" offset=".3229"/>
   <stop stop-color="#fff268" offset=".4575"/>
   <stop stop-color="#fff6a4" offset=".616"/>
   <stop stop-color="#fffcdf" offset=".7925"/>
   <stop stop-color="#fff" offset=".8956"/>
  </linearGradient>
  <linearGradient id="af" x2="0" y1="595.29" y2="165.51" gradientTransform="matrix(-.5187 .1428 .0749 .9897 26.27 8.1539)" gradientUnits="userSpaceOnUse">
   <stop stop-color="#ffed00" offset=".1538"/>
   <stop stop-color="#fe0" offset=".2173"/>
   <stop stop-color="#ffef2a" offset=".3229"/>
   <stop stop-color="#fff268" offset=".4575"/>
   <stop stop-color="#fff6a4" offset=".616"/>
   <stop stop-color="#fffcdf" offset=".7925"/>
   <stop stop-color="#fff" offset=".8956"/>
  </linearGradient>
  <linearGradient id="ae" x2="0" y1="669.77" y2="490.45" gradientUnits="userSpaceOnUse">
   <stop stop-color="#9b9b9a" offset="0"/>
   <stop stop-color="#7e7e7d" offset=".9505"/>
  </linearGradient>
  <linearGradient id="z" x2="0" y1="589.39" y2="561.08" gradientUnits="userSpaceOnUse">
   <stop stop-color="#474746" offset="0"/>
   <stop stop-color="#727271" offset=".9505"/>
  </linearGradient>
  <linearGradient id="t" x1="487.65" x2="97.646" y1="559.02" y2="410.02" gradientUnits="userSpaceOnUse">
   <stop stop-color="#878787" offset="0"/>
   <stop stop-color="#8f8f8e" offset=".2396"/>
   <stop stop-color="#a1a1a1" offset=".9066"/>
  </linearGradient>
  <linearGradient id="b" x2="0" y1="411.66" y2="387.46" gradientUnits="userSpaceOnUse">
   <stop stop-color="#9fc8de" offset="0"/>
   <stop stop-color="#3abff0" offset="1"/>
  </linearGradient>
  <linearGradient id="a" x2="0" y1="439.91" y2="415.73" gradientUnits="userSpaceOnUse">
   <stop stop-color="#9fc8de" offset="0"/>
   <stop stop-color="#3abff0" offset="1"/>
  </linearGradient>
  <linearGradient id="f" x2="0" y1="468.18" y2="443.99" gradientUnits="userSpaceOnUse">
   <stop stop-color="#9fc8de" offset="0"/>
   <stop stop-color="#3abff0" offset="1"/>
  </linearGradient>
  <linearGradient id="e" x2="0" y1="496.45" y2="472.25" gradientUnits="userSpaceOnUse">
   <stop stop-color="#9fc8de" offset="0"/>
   <stop stop-color="#3abff0" offset="1"/>
  </linearGradient>
  <linearGradient id="d" x2="0" y1="524.71" y2="500.52" gradientUnits="userSpaceOnUse">
   <stop stop-color="#9fc8de" offset="0"/>
   <stop stop-color="#3abff0" offset="1"/>
  </linearGradient>
  <linearGradient id="c" x2="0" y1="552.97" y2="528.78" gradientUnits="userSpaceOnUse">
   <stop stop-color="#9fc8de" offset="0"/>
   <stop stop-color="#3abff0" offset="1"/>
  </linearGradient>
  <linearGradient id="ad" x2="0" y1="711.04" y2="773" gradientTransform="matrix(-.9845 .1753 .1753 .9845 136.41 -83.239)" gradientUnits="userSpaceOnUse">
   <stop stop-color="#d9e28b" offset=".309"/>
   <stop stop-color="#51982c" offset=".6742"/>
   <stop stop-color="#52982c" offset=".7735"/>
   <stop stop-color="#56972c" offset=".8234"/>
   <stop stop-color="#5d952c" offset=".8622"/>
   <stop stop-color="#66912c" offset=".8953"/>
   <stop stop-color="#708b2c" offset=".9248"/>
   <stop stop-color="#7c822c" offset=".9517"/>
   <stop stop-color="#88742b" offset=".9761"/>
   <stop stop-color="#95602a" offset=".999"/>
   <stop stop-color="#955f2a" offset="1"/>
  </linearGradient>
  <linearGradient id="i" x2="0" y1="642.9" y2="669.77" gradientUnits="userSpaceOnUse">
   <stop stop-color="#d9e28b" offset=".309"/>
   <stop stop-color="#93b91f" offset=".6742"/>
   <stop stop-color="#93b920" offset=".7735"/>
   <stop stop-color="#93b521" offset=".8234"/>
   <stop stop-color="#93b022" offset=".8622"/>
   <stop stop-color="#94a725" offset=".8953"/>
   <stop stop-color="#949c27" offset=".9248"/>
   <stop stop-color="#958c29" offset=".9517"/>
   <stop stop-color="#95782a" offset=".9761"/>
   <stop stop-color="#95602a" offset=".999"/>
   <stop stop-color="#955f2a" offset="1"/>
  </linearGradient>
  <linearGradient id="ac" x2="0" y1="716.4" y2="767.83" gradientTransform="matrix(-.9845 .1753 .1753 .9845 168.97 -83.239)" gradientUnits="userSpaceOnUse">
   <stop stop-color="#d9e28b" offset=".309"/>
   <stop stop-color="#87af20" offset=".6742"/>
   <stop stop-color="#88af21" offset=".7735"/>
   <stop stop-color="#88ac21" offset=".8234"/>
   <stop stop-color="#8aa723" offset=".8622"/>
   <stop stop-color="#8ba125" offset=".8953"/>
   <stop stop-color="#8e9727" offset=".9248"/>
   <stop stop-color="#908929" offset=".9517"/>
   <stop stop-color="#93772a" offset=".9761"/>
   <stop stop-color="#95602a" offset=".999"/>
   <stop stop-color="#955f2a" offset="1"/>
  </linearGradient>
  <linearGradient id="h" x2="0" y1="643.59" y2="669.77" gradientUnits="userSpaceOnUse">
   <stop stop-color="#d9e28b" offset=".309"/>
   <stop stop-color="#b7c600" offset=".6742"/>
   <stop stop-color="#b6c502" offset=".7735"/>
   <stop stop-color="#b5c108" offset=".8234"/>
   <stop stop-color="#b1ba11" offset=".8622"/>
   <stop stop-color="#aeb019" offset=".8953"/>
   <stop stop-color="#a9a21f" offset=".9248"/>
   <stop stop-color="#a39025" offset=".9517"/>
   <stop stop-color="#9d7a28" offset=".9761"/>
   <stop stop-color="#96602a" offset=".999"/>
   <stop stop-color="#955f2a" offset="1"/>
  </linearGradient>
  <linearGradient id="g" x2="0" y1="621.45" y2="669.77" gradientUnits="userSpaceOnUse">
   <stop stop-color="#d9e28b" offset=".309"/>
   <stop stop-color="#b7c600" offset=".6742"/>
   <stop stop-color="#b6c502" offset=".7735"/>
   <stop stop-color="#b5c108" offset=".8234"/>
   <stop stop-color="#b1ba11" offset=".8622"/>
   <stop stop-color="#aeb019" offset=".8953"/>
   <stop stop-color="#a9a21f" offset=".9248"/>
   <stop stop-color="#a39025" offset=".9517"/>
   <stop stop-color="#9d7a28" offset=".9761"/>
   <stop stop-color="#96602a" offset=".999"/>
   <stop stop-color="#955f2a" offset="1"/>
  </linearGradient>
  <linearGradient id="ab" x2="0" y1="627.15" y2="695.65" gradientTransform="matrix(-.9845 .1753 .1753 .9845 577.66 -83.239)" gradientUnits="userSpaceOnUse">
   <stop stop-color="#d9e28b" offset=".309"/>
   <stop stop-color="#b7c000" offset=".6742"/>
   <stop stop-color="#b6bf00" offset=".7735"/>
   <stop stop-color="#b5bc00" offset=".8234"/>
   <stop stop-color="#b2b50a" offset=".8622"/>
   <stop stop-color="#aeac14" offset=".8953"/>
   <stop stop-color="#a99f1c" offset=".9248"/>
   <stop stop-color="#a48e22" offset=".9517"/>
   <stop stop-color="#9d7927" offset=".9761"/>
   <stop stop-color="#96602a" offset=".999"/>
   <stop stop-color="#955f2a" offset="1"/>
  </linearGradient>
  <linearGradient id="aa" x2="0" y1="706.71" y2="768.68" gradientTransform="matrix(-.9845 .1753 .1753 .9845 136.41 -83.239)" gradientUnits="userSpaceOnUse">
   <stop stop-color="#d9e28b" offset=".309"/>
   <stop stop-color="#51982c" offset=".6742"/>
   <stop stop-color="#52982c" offset=".7735"/>
   <stop stop-color="#56972c" offset=".8234"/>
   <stop stop-color="#5d952c" offset=".8622"/>
   <stop stop-color="#66912c" offset=".8953"/>
   <stop stop-color="#708b2c" offset=".9248"/>
   <stop stop-color="#7c822c" offset=".9517"/>
   <stop stop-color="#88742b" offset=".9761"/>
   <stop stop-color="#95602a" offset=".999"/>
   <stop stop-color="#955f2a" offset="1"/>
  </linearGradient>
  <linearGradient id="y" x2="0" y1="712.08" y2="763.51" gradientTransform="matrix(-.9845 .1753 .1753 .9845 168.97 -83.239)" gradientUnits="userSpaceOnUse">
   <stop stop-color="#d9e28b" offset=".309"/>
   <stop stop-color="#87af20" offset=".6742"/>
   <stop stop-color="#88af21" offset=".7735"/>
   <stop stop-color="#88ac21" offset=".8234"/>
   <stop stop-color="#8aa723" offset=".8622"/>
   <stop stop-color="#8ba125" offset=".8953"/>
   <stop stop-color="#8e9727" offset=".9248"/>
   <stop stop-color="#908929" offset=".9517"/>
   <stop stop-color="#93772a" offset=".9761"/>
   <stop stop-color="#95602a" offset=".999"/>
   <stop stop-color="#955f2a" offset="1"/>
  </linearGradient>
  <linearGradient id="x" x2="0" y1="622.83" y2="691.33" gradientTransform="matrix(-.9845 .1753 .1753 .9845 577.66 -83.239)" gradientUnits="userSpaceOnUse">
   <stop stop-color="#d9e28b" offset=".309"/>
   <stop stop-color="#b7c000" offset=".6742"/>
   <stop stop-color="#b6bf00" offset=".7735"/>
   <stop stop-color="#b5bc00" offset=".8234"/>
   <stop stop-color="#b2b50a" offset=".8622"/>
   <stop stop-color="#aeac14" offset=".8953"/>
   <stop stop-color="#a99f1c" offset=".9248"/>
   <stop stop-color="#a48e22" offset=".9517"/>
   <stop stop-color="#9d7927" offset=".9761"/>
   <stop stop-color="#96602a" offset=".999"/>
   <stop stop-color="#955f2a" offset="1"/>
  </linearGradient>
  <linearGradient id="w" x2="0" y1="713.85" y2="775.82" gradientTransform="matrix(-.9845 .1753 .1753 .9845 136.41 -83.239)" gradientUnits="userSpaceOnUse">
   <stop stop-color="#d9e28b" offset=".309"/>
   <stop stop-color="#51982c" offset=".6742"/>
   <stop stop-color="#52982c" offset=".7735"/>
   <stop stop-color="#56972c" offset=".8234"/>
   <stop stop-color="#5d952c" offset=".8622"/>
   <stop stop-color="#66912c" offset=".8953"/>
   <stop stop-color="#708b2c" offset=".9248"/>
   <stop stop-color="#7c822c" offset=".9517"/>
   <stop stop-color="#88742b" offset=".9761"/>
   <stop stop-color="#95602a" offset=".999"/>
   <stop stop-color="#955f2a" offset="1"/>
  </linearGradient>
  <linearGradient id="v" x2="0" y1="719.22" y2="770.64" gradientTransform="matrix(-.9845 .1753 .1753 .9845 168.97 -83.239)" gradientUnits="userSpaceOnUse">
   <stop stop-color="#d9e28b" offset=".309"/>
   <stop stop-color="#87af20" offset=".6742"/>
   <stop stop-color="#88af21" offset=".7735"/>
   <stop stop-color="#88ac21" offset=".8234"/>
   <stop stop-color="#8aa723" offset=".8622"/>
   <stop stop-color="#8ba125" offset=".8953"/>
   <stop stop-color="#8e9727" offset=".9248"/>
   <stop stop-color="#908929" offset=".9517"/>
   <stop stop-color="#93772a" offset=".9761"/>
   <stop stop-color="#95602a" offset=".999"/>
   <stop stop-color="#955f2a" offset="1"/>
  </linearGradient>
  <linearGradient id="u" x2="0" y1="629.97" y2="698.46" gradientTransform="matrix(-.9845 .1753 .1753 .9845 577.66 -83.239)" gradientUnits="userSpaceOnUse">
   <stop stop-color="#d9e28b" offset=".309"/>
   <stop stop-color="#b7c000" offset=".6742"/>
   <stop stop-color="#b6bf00" offset=".7735"/>
   <stop stop-color="#b5bc00" offset=".8234"/>
   <stop stop-color="#b2b50a" offset=".8622"/>
   <stop stop-color="#aeac14" offset=".8953"/>
   <stop stop-color="#a99f1c" offset=".9248"/>
   <stop stop-color="#a48e22" offset=".9517"/>
   <stop stop-color="#9d7927" offset=".9761"/>
   <stop stop-color="#96602a" offset=".999"/>
   <stop stop-color="#955f2a" offset="1"/>
  </linearGradient>
  <linearGradient id="s" x2="0" y1="698.07" y2="760.04" gradientTransform="matrix(-.9845 .1753 .1753 .9845 136.41 -83.239)" gradientUnits="userSpaceOnUse">
   <stop stop-color="#d9e28b" offset=".309"/>
   <stop stop-color="#51982c" offset=".6742"/>
   <stop stop-color="#52982c" offset=".7735"/>
   <stop stop-color="#56972c" offset=".8234"/>
   <stop stop-color="#5d952c" offset=".8622"/>
   <stop stop-color="#66912c" offset=".8953"/>
   <stop stop-color="#708b2c" offset=".9248"/>
   <stop stop-color="#7c822c" offset=".9517"/>
   <stop stop-color="#88742b" offset=".9761"/>
   <stop stop-color="#95602a" offset=".999"/>
   <stop stop-color="#955f2a" offset="1"/>
  </linearGradient>
  <linearGradient id="r" x2="0" y1="703.44" y2="754.86" gradientTransform="matrix(-.9845 .1753 .1753 .9845 168.97 -83.239)" gradientUnits="userSpaceOnUse">
   <stop stop-color="#d9e28b" offset=".309"/>
   <stop stop-color="#87af20" offset=".6742"/>
   <stop stop-color="#88af21" offset=".7735"/>
   <stop stop-color="#88ac21" offset=".8234"/>
   <stop stop-color="#8aa723" offset=".8622"/>
   <stop stop-color="#8ba125" offset=".8953"/>
   <stop stop-color="#8e9727" offset=".9248"/>
   <stop stop-color="#908929" offset=".9517"/>
   <stop stop-color="#93772a" offset=".9761"/>
   <stop stop-color="#95602a" offset=".999"/>
   <stop stop-color="#955f2a" offset="1"/>
  </linearGradient>
  <linearGradient id="q" x2="0" y1="614.19" y2="682.69" gradientTransform="matrix(-.9845 .1753 .1753 .9845 577.66 -83.239)" gradientUnits="userSpaceOnUse">
   <stop stop-color="#d9e28b" offset=".309"/>
   <stop stop-color="#b7c000" offset=".6742"/>
   <stop stop-color="#b6bf00" offset=".7735"/>
   <stop stop-color="#b5bc00" offset=".8234"/>
   <stop stop-color="#b2b50a" offset=".8622"/>
   <stop stop-color="#aeac14" offset=".8953"/>
   <stop stop-color="#a99f1c" offset=".9248"/>
   <stop stop-color="#a48e22" offset=".9517"/>
   <stop stop-color="#9d7927" offset=".9761"/>
   <stop stop-color="#96602a" offset=".999"/>
   <stop stop-color="#955f2a" offset="1"/>
  </linearGradient>
  <linearGradient id="p" x1="254.65" x2="243.78" y1="607.66" y2="668.67" gradientUnits="userSpaceOnUse">
   <stop stop-color="#d9e28b" offset=".309"/>
   <stop stop-color="#51982c" offset=".6742"/>
   <stop stop-color="#52982c" offset=".7735"/>
   <stop stop-color="#56972c" offset=".8234"/>
   <stop stop-color="#5d952c" offset=".8622"/>
   <stop stop-color="#66912c" offset=".8953"/>
   <stop stop-color="#708b2c" offset=".9248"/>
   <stop stop-color="#7c822c" offset=".9517"/>
   <stop stop-color="#88742b" offset=".9761"/>
   <stop stop-color="#95602a" offset=".999"/>
   <stop stop-color="#955f2a" offset="1"/>
  </linearGradient>
  <linearGradient id="o" x1="247.82" x2="238.81" y1="617.69" y2="668.32" gradientUnits="userSpaceOnUse">
   <stop stop-color="#d9e28b" offset=".309"/>
   <stop stop-color="#87af20" offset=".6742"/>
   <stop stop-color="#88af21" offset=".7735"/>
   <stop stop-color="#88ac21" offset=".8234"/>
   <stop stop-color="#8aa723" offset=".8622"/>
   <stop stop-color="#8ba125" offset=".8953"/>
   <stop stop-color="#8e9727" offset=".9248"/>
   <stop stop-color="#908929" offset=".9517"/>
   <stop stop-color="#93772a" offset=".9761"/>
   <stop stop-color="#95602a" offset=".999"/>
   <stop stop-color="#955f2a" offset="1"/>
  </linearGradient>
  <linearGradient id="n" x1="250.06" x2="238.05" y1="600.21" y2="667.65" gradientUnits="userSpaceOnUse">
   <stop stop-color="#d9e28b" offset=".309"/>
   <stop stop-color="#b7c000" offset=".6742"/>
   <stop stop-color="#b6bf00" offset=".7735"/>
   <stop stop-color="#b5bc00" offset=".8234"/>
   <stop stop-color="#b2b50a" offset=".8622"/>
   <stop stop-color="#aeac14" offset=".8953"/>
   <stop stop-color="#a99f1c" offset=".9248"/>
   <stop stop-color="#a48e22" offset=".9517"/>
   <stop stop-color="#9d7927" offset=".9761"/>
   <stop stop-color="#96602a" offset=".999"/>
   <stop stop-color="#955f2a" offset="1"/>
  </linearGradient>
  <linearGradient id="m" x1="354.4" x2="343.54" y1="607.66" y2="668.67" gradientUnits="userSpaceOnUse">
   <stop stop-color="#d9e28b" offset=".309"/>
   <stop stop-color="#51982c" offset=".6742"/>
   <stop stop-color="#52982c" offset=".7735"/>
   <stop stop-color="#56972c" offset=".8234"/>
   <stop stop-color="#5d952c" offset=".8622"/>
   <stop stop-color="#66912c" offset=".8953"/>
   <stop stop-color="#708b2c" offset=".9248"/>
   <stop stop-color="#7c822c" offset=".9517"/>
   <stop stop-color="#88742b" offset=".9761"/>
   <stop stop-color="#95602a" offset=".999"/>
   <stop stop-color="#955f2a" offset="1"/>
  </linearGradient>
  <linearGradient id="l" x1="347.58" x2="338.56" y1="617.69" y2="668.32" gradientUnits="userSpaceOnUse">
   <stop stop-color="#d9e28b" offset=".309"/>
   <stop stop-color="#87af20" offset=".6742"/>
   <stop stop-color="#88af21" offset=".7735"/>
   <stop stop-color="#88ac21" offset=".8234"/>
   <stop stop-color="#8aa723" offset=".8622"/>
   <stop stop-color="#8ba125" offset=".8953"/>
   <stop stop-color="#8e9727" offset=".9248"/>
   <stop stop-color="#908929" offset=".9517"/>
   <stop stop-color="#93772a" offset=".9761"/>
   <stop stop-color="#95602a" offset=".999"/>
   <stop stop-color="#955f2a" offset="1"/>
  </linearGradient>
  <linearGradient id="k" x1="349.81" x2="337.8" y1="600.21" y2="667.65" gradientUnits="userSpaceOnUse">
   <stop stop-color="#d9e28b" offset=".309"/>
   <stop stop-color="#b7c000" offset=".6742"/>
   <stop stop-color="#b6bf00" offset=".7735"/>
   <stop stop-color="#b5bc00" offset=".8234"/>
   <stop stop-color="#b2b50a" offset=".8622"/>
   <stop stop-color="#aeac14" offset=".8953"/>
   <stop stop-color="#a99f1c" offset=".9248"/>
   <stop stop-color="#a48e22" offset=".9517"/>
   <stop stop-color="#9d7927" offset=".9761"/>
   <stop stop-color="#96602a" offset=".999"/>
   <stop stop-color="#955f2a" offset="1"/>
  </linearGradient>
  <linearGradient id="j" x1="220.25" x2="209.39" y1="607.66" y2="668.67" gradientUnits="userSpaceOnUse">
   <stop stop-color="#d9e28b" offset=".309"/>
   <stop stop-color="#51982c" offset=".6742"/>
   <stop stop-color="#52982c" offset=".7735"/>
   <stop stop-color="#56972c" offset=".8234"/>
   <stop stop-color="#5d952c" offset=".8622"/>
   <stop stop-color="#66912c" offset=".8953"/>
   <stop stop-color="#708b2c" offset=".9248"/>
   <stop stop-color="#7c822c" offset=".9517"/>
   <stop stop-color="#88742b" offset=".9761"/>
   <stop stop-color="#95602a" offset=".999"/>
   <stop stop-color="#955f2a" offset="1"/>
  </linearGradient>
  <linearGradient id="an" x1="213.43" x2="204.41" y1="617.69" y2="668.32" gradientUnits="userSpaceOnUse">
   <stop stop-color="#d9e28b" offset=".309"/>
   <stop stop-color="#87af20" offset=".6742"/>
   <stop stop-color="#88af21" offset=".7735"/>
   <stop stop-color="#88ac21" offset=".8234"/>
   <stop stop-color="#8aa723" offset=".8622"/>
   <stop stop-color="#8ba125" offset=".8953"/>
   <stop stop-color="#8e9727" offset=".9248"/>
   <stop stop-color="#908929" offset=".9517"/>
   <stop stop-color="#93772a" offset=".9761"/>
   <stop stop-color="#95602a" offset=".999"/>
   <stop stop-color="#955f2a" offset="1"/>
  </linearGradient>
  <linearGradient id="am" x1="215.66" x2="203.65" y1="600.21" y2="667.65" gradientUnits="userSpaceOnUse">
   <stop stop-color="#d9e28b" offset=".309"/>
   <stop stop-color="#b7c000" offset=".6742"/>
   <stop stop-color="#b6bf00" offset=".7735"/>
   <stop stop-color="#b5bc00" offset=".8234"/>
   <stop stop-color="#b2b50a" offset=".8622"/>
   <stop stop-color="#aeac14" offset=".8953"/>
   <stop stop-color="#a99f1c" offset=".9248"/>
   <stop stop-color="#a48e22" offset=".9517"/>
   <stop stop-color="#9d7927" offset=".9761"/>
   <stop stop-color="#96602a" offset=".999"/>
   <stop stop-color="#955f2a" offset="1"/>
  </linearGradient>
  <linearGradient id="al" x1="268.98" x2="258.12" y1="607.66" y2="668.67" gradientUnits="userSpaceOnUse">
   <stop stop-color="#d9e28b" offset=".309"/>
   <stop stop-color="#51982c" offset=".6742"/>
   <stop stop-color="#52982c" offset=".7735"/>
   <stop stop-color="#56972c" offset=".8234"/>
   <stop stop-color="#5d952c" offset=".8622"/>
   <stop stop-color="#66912c" offset=".8953"/>
   <stop stop-color="#708b2c" offset=".9248"/>
   <stop stop-color="#7c822c" offset=".9517"/>
   <stop stop-color="#88742b" offset=".9761"/>
   <stop stop-color="#95602a" offset=".999"/>
   <stop stop-color="#955f2a" offset="1"/>
  </linearGradient>
  <linearGradient id="ak" x1="262.15" x2="253.14" y1="617.69" y2="668.32" gradientUnits="userSpaceOnUse">
   <stop stop-color="#d9e28b" offset=".309"/>
   <stop stop-color="#87af20" offset=".6742"/>
   <stop stop-color="#88af21" offset=".7735"/>
   <stop stop-color="#88ac21" offset=".8234"/>
   <stop stop-color="#8aa723" offset=".8622"/>
   <stop stop-color="#8ba125" offset=".8953"/>
   <stop stop-color="#8e9727" offset=".9248"/>
   <stop stop-color="#908929" offset=".9517"/>
   <stop stop-color="#93772a" offset=".9761"/>
   <stop stop-color="#95602a" offset=".999"/>
   <stop stop-color="#955f2a" offset="1"/>
  </linearGradient>
  <linearGradient id="aj" x1="264.39" x2="252.38" y1="600.21" y2="667.65" gradientUnits="userSpaceOnUse">
   <stop stop-color="#d9e28b" offset=".309"/>
   <stop stop-color="#b7c000" offset=".6742"/>
   <stop stop-color="#b6bf00" offset=".7735"/>
   <stop stop-color="#b5bc00" offset=".8234"/>
   <stop stop-color="#b2b50a" offset=".8622"/>
   <stop stop-color="#aeac14" offset=".8953"/>
   <stop stop-color="#a99f1c" offset=".9248"/>
   <stop stop-color="#a48e22" offset=".9517"/>
   <stop stop-color="#9d7927" offset=".9761"/>
   <stop stop-color="#96602a" offset=".999"/>
   <stop stop-color="#955f2a" offset="1"/>
  </linearGradient>
  <radialGradient id="ai" cx="1528.5" cy="17073" r="226.97" gradientTransform="matrix(.8724 0 0 .05 -1052.4 -184.82)" gradientUnits="userSpaceOnUse">
   <stop stop-color="#373636" offset="0"/>
   <stop stop-color="#3e3e3d" offset=".0742"/>
   <stop stop-color="#515150" offset=".1777"/>
   <stop stop-color="#6e6e6d" offset=".2987"/>
   <stop stop-color="#939393" offset=".4317"/>
   <stop stop-color="#9b9b9a" offset=".4581"/>
   <stop stop-color="#b9b8b8" offset=".5564"/>
   <stop stop-color="#d2d2d2" offset=".6658"/>
   <stop stop-color="#e2e2e2" offset=".7569"/>
   <stop stop-color="#e7e7e7" offset=".8177"/>
   <stop stop-color="#fff" offset="1"/>
  </radialGradient>
 </defs>
 <path d="m479.14 668.81c0 6.255-88.686 11.342-198.08 11.342-109.4 0-198.08-5.087-198.08-11.342s88.681-11.347 198.08-11.347c109.39 0 198.08 5.092 198.08 11.347z" fill="url(#ai)"/>
 <path d="m243.72 550.22 143.96-84.988-229.97-331.88-72.222 31.497z" fill="url(#ah)"/>
 <path d="m437.29 433.91 70.903-46.884-298.56-263.51-30.504 14.673z" fill="url(#ag)"/>
 <path d="m29.093 586.66 160.05-21.897-119.98-394.53-61.337 10.233z" fill="url(#af)"/>
 <path d="m256.56 490.45h56.72v179.32h-56.72z" fill="url(#ae)"/>
 <path d="m21.369 561.08v21.563c0 3.719 3.017 6.742 6.74 6.742h513.63c3.719 0 6.733-3.023 6.733-6.742v-21.563h-527.1z" fill="url(#z)"/>
 <path d="m548.47 560.92c0.704 2.198-1.746 3.975-5.469 3.975h-516.16c-3.725 0-6.172-1.776-5.471-3.975l57.991-181.4c0.704-2.202 3.603-3.979 6.468-3.979h398.18c2.875 0 5.777 1.776 6.472 3.979l57.991 181.4z" fill="url(#t)"/>
 <path d="m126.22 407.68c-0.519 2.197-3.401 3.979-6.438 3.979h-22.438c-3.032 0-4.982-1.781-4.354-3.979l4.642-16.237c0.629-2.198 3.51-3.979 6.433-3.979h21.641c2.923 0 4.874 1.781 4.357 3.979l-3.843 16.237z" fill="url(#b)"/>
 <path d="m119.54 435.94c-0.517 2.202-3.501 3.97-6.662 3.97h-23.387c-3.156 0-5.217-1.768-4.585-3.97l4.646-16.246c0.628-2.194 3.612-3.971 6.664-3.971h22.573c3.056 0 5.108 1.776 4.587 3.971l-3.836 16.246z" fill="url(#a)"/>
 <path d="m112.855,464.21c-.515,2.185-3.605,3.971-6.889,3.971h-24.321c-3.286,0-5.447-1.786-4.815-3.971l4.644-16.246c.624-2.193 3.714-3.971 6.889-3.971h23.52c3.18,0 5.339,1.777 4.82,3.971l-3.848,16.246z" fill="url(#f)"/>
 <path d="m106.17 492.46c-0.517 2.211-3.705 3.983-7.117 3.983h-25.264c-3.417 0-5.673-1.772-5.045-3.983l4.641-16.233c0.634-2.202 3.821-3.983 7.124-3.983h24.458c3.31 0 5.564 1.781 5.045 3.983l-3.842 16.233z" fill="url(#e)"/>
 <path d="m99.494,520.732c-.519,2.193-3.812,3.979-7.35,3.979h-26.203c-3.544,0-5.908-1.786-5.28-3.979l4.65-16.241c.625-2.194 3.918-3.975 7.35-3.975h25.401c3.427,0 5.792,1.78 5.273,3.975l-3.841,16.241z" fill="url(#d)"/>
 <path d="m92.813 549c-0.521 2.193-3.916 3.97-7.584 3.97h-27.141c-3.668 0-6.134-1.776-5.506-3.97l4.646-16.246c0.632-2.194 4.025-3.975 7.584-3.975h26.335c3.562 0 6.023 1.78 5.506 3.975l-3.84 16.246z" fill="url(#c)"/>
 <path d="m166.68 407.68c-0.38 2.197-3.154 3.979-6.19 3.979h-22.445c-3.034 0-5.087-1.781-4.594-3.979l3.664-16.237c0.501-2.198 3.269-3.979 6.197-3.979h21.639c2.924 0 4.982 1.781 4.592 3.979l-2.863 16.237z" fill="url(#b)"/>
 <path d="m161.7 435.94c-0.382 2.202-3.262 3.97-6.42 3.97h-23.383c-3.161 0-5.319-1.768-4.826-3.97l3.664-16.246c0.495-2.194 3.373-3.971 6.429-3.971h22.575c3.056 0 5.21 1.776 4.826 3.971l-2.865 16.246z" fill="url(#a)"/>
 <path d="m156.72,464.21c-.382,2.185-3.364,3.971-6.648,3.971h-24.324c-3.292,0-5.556-1.786-5.052-3.971l3.662-16.246c.493-2.193 3.475-3.971 6.651-3.971h23.516c3.184,0 5.447,1.777 5.056,3.971l-2.861,16.246z" fill="url(#f)"/>
 <path d="m151.74 492.46c-0.389 2.211-3.466 3.983-6.883 3.983h-25.261c-3.415 0-5.78-1.772-5.287-3.983l3.664-16.233c0.5-2.202 3.582-3.983 6.885-3.983h24.458c3.304 0 5.673 1.781 5.291 3.983l-2.867 16.233z" fill="url(#e)"/>
 <path d="m146.77 520.73c-0.387 2.193-3.573 3.979-7.115 3.979h-26.2c-3.544 0-6.01-1.786-5.517-3.979l3.666-16.241c0.5-2.194 3.682-3.975 7.113-3.975h25.396c3.432 0 5.903 1.78 5.517 3.975l-2.86 16.241z" fill="url(#d)"/>
 <path d="m141.79 549c-0.387 2.193-3.677 3.97-7.343 3.97h-27.143c-3.666 0-6.242-1.776-5.745-3.97l3.668-16.246c0.493-2.194 3.779-3.975 7.339-3.975h26.339c3.56 0 6.129 1.78 5.743 3.975l-2.858 16.246z" fill="url(#c)"/>
 <path d="m208.59 407.68c-0.25 2.197-2.915 3.979-5.951 3.979h-22.438c-3.039 0-5.202-1.781-4.846-3.979l2.652-16.237c0.356-2.198 3.017-3.979 5.94-3.979h21.646c2.923 0 5.084 1.781 4.841 3.979l-1.844 16.237z" fill="url(#b)"/>
 <path d="m205.36 435.94c-0.248 2.202-3.013 3.97-6.173 3.97h-23.387c-3.16 0-5.428-1.768-5.069-3.97l2.649-16.246c0.367-2.194 3.121-3.971 6.177-3.971h22.577c3.052 0 5.326 1.776 5.078 3.971l-1.852 16.246z" fill="url(#a)"/>
 <path d="m202.155,464.21c-.254,2.185-3.119,3.971-6.405,3.971h-24.324c-3.286,0-5.665-1.786-5.304-3.971l2.656-16.246c.354-2.193 3.221-3.971 6.405-3.971h23.514c3.18,0 5.554,1.777 5.306,3.971l-1.848,16.246z" fill="url(#f)"/>
 <path d="m198.94 492.46c-0.248 2.211-3.223 3.983-6.633 3.983h-25.264c-3.412 0-5.89-1.772-5.532-3.983l2.65-16.233c0.363-2.202 3.334-3.983 6.633-3.983h24.46c3.306 0 5.782 1.781 5.534 3.983l-1.848 16.233z" fill="url(#e)"/>
 <path d="m195.73 520.73c-0.248 2.193-3.325 3.979-6.868 3.979h-26.198c-3.538 0-6.125-1.786-5.762-3.979l2.649-16.241c0.354-2.194 3.427-3.975 6.866-3.975h25.396c3.427 0 6.014 1.78 5.756 3.975l-1.839 16.241z" fill="url(#d)"/>
 <path d="m192.51 549c-0.25 2.193-3.425 3.97-7.096 3.97h-27.141c-3.662 0-6.351-1.776-5.995-3.97l2.654-16.246c0.356-2.194 3.536-3.975 7.094-3.975h26.339c3.558 0 6.242 1.78 5.993 3.975l-1.848 16.246z" fill="url(#c)"/>
 <path d="m260.353,407.679c-.076,2.197-2.6,3.979-5.636,3.979h-22.443c-3.032,0-5.336-1.781-5.146-3.979l1.399-16.237c.189-2.198 2.708-3.979 5.634-3.979h21.644c2.921,0 5.228,1.781 5.146,3.979l-.598,16.237z" fill="url(#b)"/>
 <path d="m259.323,435.944c-.078,2.202-2.708,3.97-5.866,3.97h-23.383c-3.165,0-5.573-1.768-5.384-3.97l1.401-16.246c.189-2.194 2.815-3.971 5.866-3.971h22.58c3.056,0 5.465,1.776 5.378,3.971l-.592,16.246z" fill="url(#a)"/>
 <path d="m258.293,464.21c-.089,2.185-2.811,3.971-6.104,3.971h-24.323c-3.284,0-5.801-1.786-5.606-3.971l1.401-16.246c.183-2.193 2.913-3.971 6.09-3.971h23.524c3.178,0 5.688,1.777 5.608,3.971l-.59,16.246z" fill="url(#f)"/>
 <path d="m257.257,492.463c-.085,2.211-2.917,3.983-6.329,3.983h-25.264c-3.412,0-6.031-1.772-5.842-3.983l1.403-16.233c.187-2.202 3.021-3.983 6.329-3.983h24.454c3.31,0 5.918,1.781 5.84,3.983l-.591,16.233z" fill="url(#e)"/>
 <path d="m256.224,520.732c-.081,2.193-3.019,3.979-6.566,3.979h-26.196c-3.545,0-6.264-1.786-6.071-3.979l1.401-16.241c.189-2.194 3.124-3.975 6.557-3.975h25.395c3.434,0 6.155,1.78 6.073,3.975l-.593,16.241z" fill="url(#d)"/>
 <path d="m255.19 549c-0.078 2.193-3.124 3.97-6.792 3.97h-27.136c-3.67 0-6.49-1.776-6.301-3.97l1.397-16.246c0.193-2.194 3.229-3.975 6.792-3.975h26.335c3.558 0 6.379 1.78 6.296 3.975l-0.591 16.246z" fill="url(#c)"/>
 <path d="m300.813,407.679c.055,2.197-2.363,3.979-5.402,3.979h-22.44c-3.032,0-5.445-1.781-5.386-3.979l.417-16.237c.063-2.198 2.474-3.979 5.399-3.979h21.639c2.925,0 5.338,1.781 5.391,3.979l.382,16.237z" fill="url(#b)"/>
 <path d="m301.48,435.944c.057,2.202-2.468,3.97-5.625,3.97h-23.379c-3.165,0-5.682-1.768-5.623-3.97l.419-16.246c.057-2.194 2.578-3.971 5.63-3.971h22.577c3.05,0 5.569,1.776 5.624,3.971l.377,16.246z" fill="url(#a)"/>
 <path d="m302.155,464.21c.051,2.185-2.575,3.971-5.862,3.971h-24.321c-3.288,0-5.905-1.786-5.849-3.971l.417-16.246c.057-2.193 2.685-3.971 5.862-3.971h23.516c3.18,0 5.799,1.777 5.852,3.971l.385,16.246z" fill="url(#f)"/>
 <path d="m302.825,492.463c.05,2.211-2.677,3.983-6.086,3.983h-25.266c-3.421,0-6.134-1.772-6.079-3.983l.417-16.233c.061-2.202 2.782-3.983 6.088-3.983h24.456c3.308,0 6.031,1.781 6.081,3.983l.389,16.233z" fill="url(#e)"/>
 <path d="m303.489,520.732c.05,2.193-2.773,3.979-6.314,3.979h-26.202c-3.544,0-6.37-1.786-6.31-3.979l.417-16.241c.061-2.194 2.887-3.975 6.32-3.975h25.4c3.43,0 6.253,1.78 6.303,3.975l.386,16.241z" fill="url(#d)"/>
 <path d="m304.16 549c0.05 2.193-2.885 3.97-6.553 3.97h-27.141c-3.67 0-6.596-1.776-6.538-3.97l0.415-16.246c0.057-2.194 2.993-3.975 6.555-3.975h26.328c3.566 0 6.488 1.78 6.546 3.975l0.388 16.246z" fill="url(#c)"/>
 <path d="m342.719,407.679c.187,2.197-2.119,3.979-5.151,3.979h-22.44c-3.041,0-5.561-1.781-5.644-3.979l-.595-16.237c-.082-2.198 2.225-3.979 5.147-3.979h21.642c2.928,0 5.451,1.781 5.643,3.979l1.398,16.237z" fill="url(#b)"/>
 <path d="m345.151,435.944c.191,2.202-2.215,3.97-5.387,3.97h-23.378c-3.163,0-5.786-1.768-5.864-3.97l-.596-16.246c-.082-2.194 2.324-3.971 5.382-3.971h22.575c3.055,0 5.678,1.776 5.869,3.971l1.399,16.246z" fill="url(#a)"/>
 <path d="m347.575,464.21c.2,2.185-2.311,3.971-5.604,3.971h-24.321c-3.288,0-6.017-1.786-6.095-3.971l-.6-16.246c-.078-2.193 2.441-3.971 5.617-3.971h23.514c3.18,0 5.907,1.777 6.103,3.971l1.386,16.246z" fill="url(#f)"/>
 <path d="m350.017,492.463c.187,2.211-2.424,3.983-5.838,3.983h-25.265c-3.414,0-6.242-1.772-6.324-3.983l-.6-16.233c-.078-2.202 2.537-3.983 5.838-3.983h24.465c3.302,0 6.139,1.781 6.325,3.983l1.399,16.233z" fill="url(#e)"/>
 <path d="m352.454,520.732c.187,2.193-2.528,3.979-6.073,3.979h-26.202c-3.54,0-6.477-1.786-6.555-3.979l-.6-16.241c-.083-2.194 2.641-3.975 6.072-3.975h25.404c3.423,0 6.364,1.78 6.551,3.975l1.403,16.241z" fill="url(#d)"/>
 <path d="m354.89 549c0.188 2.193-2.628 3.97-6.303 3.97h-27.136c-3.675 0-6.712-1.776-6.79-3.97l-0.6-16.246c-0.078-2.194 2.746-3.975 6.304-3.975h26.337c3.558 0 6.603 1.78 6.785 3.975l1.403 16.246z" fill="url(#c)"/>
 <path d="m394.49 407.68c0.356 2.197-1.807 3.979-4.843 3.979h-22.436c-3.041 0-5.699-1.781-5.947-3.979l-1.854-16.237c-0.243-2.198 1.925-3.979 4.853-3.979h21.637c2.919 0 5.577 1.781 5.942 3.979l2.648 16.237z" fill="url(#b)"/>
 <path d="m399.1 435.94c0.36 2.202-1.911 3.97-5.073 3.97h-23.38c-3.162 0-5.925-1.768-6.177-3.97l-1.842-16.246c-0.257-2.194 2.02-3.971 5.068-3.971h22.576c3.054 0 5.82 1.776 6.177 3.971l2.651 16.246z" fill="url(#a)"/>
 <path d="m403.716,464.21c.36,2.185-2.011,3.971-5.304,3.971h-24.321c-3.284,0-6.155-1.786-6.403-3.971l-1.846-16.246c-.248-2.193 2.124-3.971 5.304-3.971h23.518c3.18,0 6.047,1.777 6.403,3.971l2.649,16.246z" fill="url(#f)"/>
 <path d="m408.34 492.46c0.356 2.211-2.12 3.983-5.538 3.983h-25.26c-3.419 0-6.386-1.772-6.638-3.983l-1.847-16.233c-0.252-2.202 2.229-3.983 5.53-3.983h24.46c3.302 0 6.277 1.781 6.638 3.983l2.655 16.233z" fill="url(#e)"/>
 <path d="m412.94 520.73c0.365 2.193-2.216 3.979-5.76 3.979h-26.198c-3.545 0-6.616-1.786-6.868-3.979l-1.846-16.241c-0.248-2.194 2.328-3.975 5.765-3.975h25.394c3.437 0 6.508 1.78 6.864 3.975l2.649 16.241z" fill="url(#d)"/>
 <path d="m417.56 549c0.352 2.193-2.328 3.97-5.995 3.97h-27.145c-3.671 0-6.842-1.776-7.094-3.97l-1.851-16.246c-0.247-2.194 2.438-3.975 5.995-3.975h26.341c3.563 0 6.733 1.78 7.089 3.975l2.66 16.246z" fill="url(#c)"/>
 <path d="m434.95 407.68c0.481 2.197-1.577 3.979-4.609 3.979h-22.44c-3.036 0-5.804-1.781-6.186-3.979l-2.832-16.237c-0.374-2.198 1.686-3.979 4.604-3.979h21.641c2.928 0 5.695 1.781 6.187 3.979l3.635 16.237z" fill="url(#b)"/>
 <path d="m441.26 435.94c0.495 2.202-1.668 3.97-4.83 3.97h-23.388c-3.158 0-6.029-1.768-6.412-3.97l-2.823-16.246c-0.383-2.194 1.776-3.971 4.83-3.971h22.58c3.049 0 5.925 1.776 6.411 3.971l3.632 16.246z" fill="url(#a)"/>
 <path d="m447.58,464.21c.495,2.185-1.768,3.971-5.064,3.971h-24.317c-3.293,0-6.268-1.786-6.646-3.971l-2.828-16.246c-.378-2.193 1.89-3.971 5.069-3.971h23.509c3.188,0 6.16,1.777 6.646,3.971l3.631,16.246z" fill="url(#f)"/>
 <path d="m453.9 492.46c0.486 2.211-1.886 3.983-5.3 3.983h-25.26c-3.418 0-6.489-1.772-6.876-3.983l-2.828-16.233c-0.378-2.202 1.989-3.983 5.3-3.983h24.46c3.297 0 6.377 1.781 6.872 3.983l3.632 16.233z" fill="url(#e)"/>
 <path d="m460.22 520.73c0.486 2.193-1.99 3.979-5.526 3.979h-26.202c-3.544 0-6.716-1.786-7.106-3.979l-2.823-16.241c-0.383-2.194 2.089-3.975 5.517-3.975h25.403c3.432 0 6.62 1.78 7.106 3.975l3.631 16.241z" fill="url(#d)"/>
 <path d="m466.54 549c0.486 2.193-2.094 3.97-5.756 3.97h-27.149c-3.666 0-6.95-1.776-7.333-3.97l-2.823-16.246c-0.382-2.194 2.189-3.975 5.756-3.975h26.341c3.558 0 6.842 1.78 7.328 3.975l3.636 16.246z" fill="url(#c)"/>
 <path d="m476.85,407.679c.634,2.197-1.329,3.979-4.356,3.979h-22.445c-3.027,0-5.908-1.781-6.429-3.979l-3.845-16.237c-.517-2.198 1.434-3.979 4.357-3.979h21.641c2.928,0 5.808,1.781 6.43,3.979l4.647,16.237z" fill="url(#b)"/>
 <path d="m484.93 435.94c0.63 2.202-1.425 3.97-4.583 3.97h-23.388c-3.157 0-6.15-1.768-6.663-3.97l-3.84-16.246c-0.521-2.194 1.529-3.971 4.587-3.971h22.575c3.054 0 6.042 1.776 6.668 3.971l4.644 16.246z" fill="url(#a)"/>
 <path d="m493.009,464.21c.63,2.185-1.521,3.971-4.813,3.971h-24.326c-3.284,0-6.368-1.786-6.89-3.971l-3.831-16.246c-.521-2.193 1.625-3.971 4.813-3.971h23.519c3.175,0 6.264,1.777 6.885,3.971l4.643,16.246z" fill="url(#f)"/>
 <path d="m501.1 492.46c0.625 2.211-1.634 3.983-5.048 3.983h-25.256c-3.423 0-6.606-1.772-7.124-3.983l-3.849-16.233c-0.521-2.202 1.746-3.983 5.048-3.983h24.461c3.301 0 6.489 1.781 7.124 3.983l4.644 16.233z" fill="url(#e)"/>
 <path d="m509.19 520.73c0.621 2.193-1.737 3.979-5.282 3.979h-26.198c-3.549 0-6.842-1.786-7.362-3.979l-3.832-16.241c-0.521-2.194 1.842-3.975 5.278-3.975h25.386c3.436 0 6.729 1.78 7.354 3.975l4.656 16.241z" fill="url(#d)"/>
 <path d="m517.26 549c0.625 2.193-1.834 3.97-5.509 3.97h-27.132c-3.666 0-7.063-1.776-7.584-3.97l-3.84-16.246c-0.518-2.194 1.945-3.975 5.499-3.975h26.342c3.553 0 6.954 1.78 7.58 3.975l4.644 16.246z" fill="url(#c)"/>
 <path d="m316.95 669.77s-1.455-17.675 0.8-31.623c2.263-13.936 7.362-32.774 7.362-32.774s-7.185 16.676-11.559 30.134c-4.365 13.479-3.531 34.264-3.531 34.264h6.928z" fill="url(#ad)"/>
 <path d="m304.92 669.77s-1.762-10.989-6.703-19.286c-4.939-8.306-15.775-7.106-15.775-7.106s12.595-2.755 19.651 5.025c7.053 7.78 10.232 21.367 10.232 21.367h-7.405z" fill="url(#i)"/>
 <path d="m319.97 669.77s-1.121-16.024 1.12-29.838c2.233-13.826 12.745-24.864 12.745-24.864s-12.893 7.402-17.228 20.751c-4.326 13.349-3.497 33.951-3.497 33.951h6.86z" fill="url(#ac)"/>
 <path d="m320.83 669.77s0.538-7.714 2.976-14.678c2.445-6.989 6.685-11.498 6.685-11.498s-4.773 1.681-8.258 8.219c-3.487 6.542-5.056 17.957-5.056 17.957h3.653z" fill="url(#h)"/>
 <path d="m306.45 669.77s-1.666-17.692-6.333-31.037c-4.681-13.361-13.069-17.279-13.069-17.279s10.056 1.42 16.733 13.943 9.685 34.373 9.685 34.373h-7.016z" fill="url(#g)"/>
 <path d="m316.93 669.77s-1.833-22.253 1.008-39.815c2.85-17.545 19.248-33.365 19.248-33.365s-19.022 13.092-24.521 30.051c-5.508 16.954-4.452 43.13-4.452 43.13h8.717z" fill="url(#ab)"/>
 <path d="m292.29 669.77s-1.458-17.675 0.799-31.623c2.261-13.936 7.365-32.774 7.365-32.774s-7.183 16.676-11.557 30.134c-4.375 13.479-3.532 34.264-3.532 34.264h6.925z" fill="url(#aa)"/>
 <path d="m280.27 669.77s-1.759-10.989-6.703-19.286c-4.941-8.306-15.779-7.106-15.779-7.106s12.597-2.755 19.656 5.025 10.234 21.367 10.234 21.367h-7.408z" fill="url(#i)"/>
 <path d="m295.32 669.77s-1.121-16.024 1.116-29.838c2.239-13.826 12.747-24.864 12.747-24.864s-12.895 7.402-17.224 20.751c-4.335 13.349-3.505 33.951-3.505 33.951h6.866z" fill="url(#y)"/>
 <path d="m296.18 669.77s0.532-7.714 2.972-14.678c2.442-6.989 6.688-11.498 6.688-11.498s-4.78 1.681-8.259 8.219c-3.495 6.542-5.061 17.957-5.061 17.957h3.66z" fill="url(#h)"/>
 <path d="m281.79 669.77s-1.662-17.692-6.333-31.037c-4.681-13.361-13.071-17.279-13.071-17.279s10.061 1.42 16.732 13.943c6.679 12.515 9.689 34.373 9.689 34.373h-7.017z" fill="url(#g)"/>
 <path d="m292.29 669.77s-1.84-22.253 1.001-39.815c2.845-17.545 19.25-33.365 19.25-33.365s-19.018 13.092-24.526 30.051c-5.5 16.954-4.446 43.13-4.446 43.13h8.721z" fill="url(#x)"/>
 <path d="m333 669.77s-1.459-17.675 0.8-31.623c2.259-13.936 7.367-32.774 7.367-32.774s-7.185 16.676-11.555 30.134c-4.379 13.479-3.536 34.264-3.536 34.264h6.924z" fill="url(#w)"/>
 <path d="m320.98 669.77s-1.764-10.989-6.702-19.286c-4.943-8.306-15.779-7.106-15.779-7.106s12.6-2.755 19.654 5.025c7.059 7.78 10.233 21.367 10.233 21.367h-7.406z" fill="url(#i)"/>
 <path d="m336.02 669.77s-1.12-16.024 1.116-29.838c2.242-13.826 12.75-24.864 12.75-24.864s-12.897 7.402-17.229 20.751c-4.335 13.349-3.501 33.951-3.501 33.951h6.864z" fill="url(#v)"/>
 <path d="m336.88 669.77s0.534-7.714 2.972-14.678c2.445-6.989 6.686-11.498 6.686-11.498s-4.778 1.681-8.258 8.219c-3.493 6.542-5.061 17.957-5.061 17.957h3.661z" fill="url(#h)"/>
 <path d="m322.5 669.77s-1.668-17.692-6.334-31.037c-4.683-13.361-13.072-17.279-13.072-17.279s10.058 1.42 16.73 13.943c6.681 12.515 9.687 34.373 9.687 34.373h-7.011z" fill="url(#g)"/>
 <path d="m332.99 669.77s-1.833-22.253 1.004-39.815c2.845-17.545 19.248-33.365 19.248-33.365s-19.014 13.092-24.526 30.051c-5.499 16.954-4.439 43.13-4.439 43.13h8.713z" fill="url(#u)"/>
 <path d="m242.99 669.77s-1.455-17.675 0.801-31.623c2.259-13.936 7.363-32.774 7.363-32.774s-7.183 16.676-11.555 30.134c-4.37 13.479-3.534 34.264-3.534 34.264h6.925z" fill="url(#s)"/>
 <path d="m230.97 669.77s-1.762-10.989-6.703-19.286c-4.943-8.306-15.782-7.106-15.782-7.106s12.6-2.755 19.654 5.025c7.061 7.78 10.238 21.367 10.238 21.367h-7.407z" fill="url(#i)"/>
 <path d="m246.01 669.77s-1.119-16.024 1.121-29.838c2.239-13.826 12.743-24.864 12.743-24.864s-12.89 7.402-17.223 20.751c-4.335 13.349-3.499 33.951-3.499 33.951h6.858z" fill="url(#r)"/>
 <path d="m246.88 669.77s0.539-7.714 2.974-14.678c2.441-6.989 6.683-11.498 6.683-11.498s-4.774 1.681-8.258 8.219c-3.488 6.542-5.059 17.957-5.059 17.957h3.66z" fill="url(#h)"/>
 <path d="m232.49 669.77s-1.659-17.692-6.333-31.037c-4.683-13.361-13.071-17.279-13.071-17.279s10.061 1.42 16.733 13.943c6.679 12.515 9.689 34.373 9.689 34.373h-7.018z" fill="url(#g)"/>
 <path d="m242.98 669.77s-1.833-22.253 1.003-39.815c2.843-17.545 19.246-33.365 19.246-33.365s-19.016 13.092-24.521 30.051c-5.501 16.954-4.446 43.13-4.446 43.13h8.718z" fill="url(#q)"/>
 <path d="m249.94 669.77s1.458-17.675-0.799-31.623c-2.256-13.936-7.361-32.774-7.361-32.774s7.181 16.676 11.557 30.134c4.366 13.479 3.527 34.264 3.527 34.264h-6.924z" fill="url(#p)"/>
 <path d="m261.97 669.77s1.757-10.989 6.701-19.286c4.945-8.306 15.779-7.106 15.779-7.106s-12.595-2.755-19.652 5.025-10.241 21.367-10.241 21.367h7.413z" fill="url(#i)"/>
 <path d="m246.92 669.77s1.119-16.024-1.119-29.838c-2.235-13.826-12.743-24.864-12.743-24.864s12.893 7.402 17.224 20.751c4.335 13.349 3.505 33.951 3.505 33.951h-6.867z" fill="url(#o)"/>
 <path d="m246.05 669.77s-0.53-7.714-2.967-14.678c-2.439-6.989-6.688-11.498-6.688-11.498s4.774 1.681 8.256 8.219c3.488 6.542 5.063 17.957 5.063 17.957h-3.664z" fill="url(#h)"/>
 <path d="m260.44 669.77s1.666-17.692 6.335-31.037c4.676-13.361 13.066-17.279 13.066-17.279s-10.061 1.42-16.73 13.943c-6.676 12.515-9.691 34.373-9.691 34.373h7.02z" fill="url(#g)"/>
 <path d="m249.95 669.77s1.833-22.253-1.008-39.815c-2.841-17.545-19.241-33.365-19.241-33.365s19.016 13.092 24.519 30.051c5.502 16.954 4.451 43.13 4.451 43.13h-8.721z" fill="url(#n)"/>
 <path d="m349.7 669.77s1.46-17.675-0.8-31.623c-2.254-13.936-7.362-32.774-7.362-32.774s7.181 16.676 11.559 30.134c4.37 13.479 3.527 34.264 3.527 34.264h-6.924z" fill="url(#m)"/>
 <path d="m361.72 669.77s1.76-10.989 6.698-19.286c4.952-8.306 15.786-7.106 15.786-7.106s-12.602-2.755-19.651 5.025c-7.063 7.78-10.243 21.367-10.243 21.367h7.41z" fill="url(#i)"/>
 <path d="m346.67 669.77s1.121-16.024-1.116-29.838c-2.237-13.826-12.741-24.864-12.741-24.864s12.894 7.402 17.22 20.751c4.335 13.349 3.506 33.951 3.506 33.951h-6.869z" fill="url(#l)"/>
 <path d="m345.81 669.77s-0.53-7.714-2.967-14.678c-2.441-6.989-6.686-11.498-6.686-11.498s4.774 1.681 8.258 8.219 5.065 17.957 5.065 17.957h-3.67z" fill="url(#h)"/>
 <path d="m360.19 669.77s1.668-17.692 6.342-31.037c4.679-13.361 13.066-17.279 13.066-17.279s-10.061 1.42-16.732 13.943-9.688 34.373-9.688 34.373h7.012z" fill="url(#g)"/>
 <path d="m349.71 669.77s1.829-22.253-1.012-39.815c-2.841-17.545-19.243-33.365-19.243-33.365s19.018 13.092 24.521 30.051c5.504 16.954 4.453 43.13 4.453 43.13h-8.719z" fill="url(#k)"/>
 <path d="m215.54 669.77s1.458-17.675-0.797-31.623c-2.256-13.936-7.365-32.774-7.365-32.774s7.18 16.676 11.563 30.134c4.363 13.479 3.525 34.264 3.525 34.264h-6.926z" fill="url(#j)"/>
 <path d="m227.57 669.77s1.759-10.989 6.703-19.286c4.939-8.306 15.775-7.106 15.775-7.106s-12.598-2.755-19.656 5.025c-7.055 7.78-10.236 21.367-10.236 21.367h7.414z" fill="url(#i)"/>
 <path d="m212.52 669.77s1.123-16.024-1.119-29.838c-2.235-13.826-12.741-24.864-12.741-24.864s12.893 7.402 17.224 20.751 3.501 33.951 3.501 33.951h-6.865z" fill="url(#an)"/>
 <path d="m211.66 669.77s-0.53-7.714-2.965-14.678c-2.448-6.989-6.688-11.498-6.688-11.498s4.772 1.681 8.253 8.219c3.486 6.542 5.059 17.957 5.059 17.957h-3.659z" fill="url(#h)"/>
 <path d="m226.04 669.77s1.675-17.692 6.342-31.037c4.674-13.361 13.068-17.279 13.068-17.279s-10.058 1.42-16.732 13.943c-6.679 12.515-9.685 34.373-9.685 34.373h7.007z" fill="url(#g)"/>
 <path d="m215.56 669.77s1.833-22.253-1.012-39.815c-2.841-17.545-19.243-33.365-19.243-33.365s19.021 13.092 24.519 30.051c5.506 16.954 4.457 43.13 4.457 43.13h-8.721z" fill="url(#am)"/>
 <path d="m264.28 669.77s1.458-17.675-0.799-31.623c-2.259-13.936-7.363-32.774-7.363-32.774s7.183 16.676 11.555 30.134c4.372 13.479 3.532 34.264 3.532 34.264h-6.925z" fill="url(#al)"/>
 <path d="m276.29 669.77s1.761-10.989 6.705-19.286c4.939-8.306 15.777-7.106 15.777-7.106s-12.598-2.755-19.654 5.025-10.236 21.367-10.236 21.367h7.408z" fill="url(#i)"/>
 <path d="m261.25 669.77s1.118-16.024-1.121-29.838c-2.237-13.826-12.745-24.864-12.745-24.864s12.893 7.402 17.223 20.751c4.335 13.349 3.506 33.951 3.506 33.951h-6.863z" fill="url(#ak)"/>
 <path d="m260.39 669.77s-0.537-7.714-2.971-14.678c-2.443-6.989-6.688-11.498-6.688-11.498s4.776 1.681 8.258 8.219c3.49 6.542 5.059 17.957 5.059 17.957h-3.658z" fill="url(#h)"/>
 <path d="m274.77 669.77s1.66-17.692 6.333-31.037c4.681-13.361 13.071-17.279 13.071-17.279s-10.063 1.42-16.733 13.943c-6.679 12.515-9.691 34.373-9.691 34.373h7.02z" fill="url(#g)"/>
 <path d="m264.28 669.77s1.837-22.253-1.001-39.815c-2.843-17.545-19.248-33.365-19.248-33.365s19.016 13.092 24.523 30.051c5.5 16.954 4.446 43.13 4.446 43.13h-8.72z" fill="url(#aj)"/>
</svg>
