<?xml version="1.0" encoding="UTF-8"?>
<svg width="500mm" height="500mm" version="1.1" viewBox="0 0 1771.6535 1771.6535" xmlns="http://www.w3.org/2000/svg" xmlns:xlink="http://www.w3.org/1999/xlink">
 <defs>
  <linearGradient id="g" x1="223.13" x2="269.42" y1="621.84" y2="111.69" gradientUnits="userSpaceOnUse">
   <stop stop-color="#112b00" offset="0"/>
   <stop stop-color="#8a0" offset="1"/>
  </linearGradient>
  <linearGradient id="h" x1="309.24" x2="394.16" y1="252.42" y2="46.652" gradientUnits="userSpaceOnUse">
   <stop stop-color="#6a8a00" offset="0"/>
   <stop stop-color="#8a0" offset="1"/>
  </linearGradient>
  <linearGradient id="i" x1="322.2" x2="500.89" y1="325.56" y2="112.62" gradientUnits="userSpaceOnUse">
   <stop stop-color="#597800" offset="0"/>
   <stop stop-color="#55d400" offset="1"/>
  </linearGradient>
  <linearGradient id="j" x1="266.65" x2="131.47" y1="388.52" y2="100.58" gradientUnits="userSpaceOnUse">
   <stop stop-color="#466400" offset="0"/>
   <stop stop-color="#cf0" offset="1"/>
  </linearGradient>
  <linearGradient id="k" x1="281.46" x2="595.33" y1="447.78" y2="254.27" gradientUnits="userSpaceOnUse">
   <stop stop-color="#3f5d00" offset="0"/>
   <stop stop-color="#abc837" offset="1"/>
  </linearGradient>
  <linearGradient id="a" x1="296.18" x2="294.6" y1="856.11" y2="702.25" gradientUnits="userSpaceOnUse">
   <stop stop-color="#250" offset="0"/>
   <stop stop-color="#aad400" offset="1"/>
  </linearGradient>
 </defs>
 <g transform="translate(0 719.29)">
  <g transform="matrix(1.9172 0 0 1.9172 246.7 -847.25)">
   <path d="m333.37 168.83a379.99 379.99 0 0 0 -379.99 379.99 379.99 379.99 0 0 0 379.99 379.99 379.99 379.99 0 0 0 379.99 -379.99 379.99 379.99 0 0 0 -379.99 -379.99zm0 37.748a342.24 342.24 0 0 1 342.24 342.24 342.24 342.24 0 0 1 -342.24 342.24 342.24 342.24 0 0 1 -342.24 -342.24 342.24 342.24 0 0 1 342.24 -342.24z" fill="#fc0"/>
   <g transform="matrix(1.016 0 0 1.016 -46.779 -12.82)">
    <g transform="translate(64.81 164.8)">
     <path d="m407.31 196.35c-4.6218 3.7342-11.589 9.0108-15.969 12.441-14.898 11.63-25.324 20.473-32.542 30.753-6.8028 9.688-8.8783 18.45-7.1767 26.261 19.573-9.5458 39.196-18.147 57.624-28.749h1e-5c9.6193-5.5347 18.899-11.603 27.366-18.685 8.2858-6.9299 15.8-14.857 21.899-23.849 6.4886-9.5559 11.342-20.317 14.446-31.626-0.27197 1.4717-0.57352 2.9394-0.90478 4.4018 8e-3 -0.0347 0.0154-0.0695 0.0231-0.10419-2.6857 9.918-6.7373 19.469-12.135 28.21-5.7989 9.3896-13.097 17.81-21.25 25.244-8.3252 7.5913-17.51 14.194-27.027 20.222-20.074 12.713-41.574 22.983-62.367 34.478-21.013 11.617-41.601 24.559-58.427 41.689 2.9857 2.5798 5.9574 5.1729 8.9154 7.7792 14.453-16.571 33.462-30.007 53.337-42.55 1.863-1.1687 3.737-2.3295 5.6197-3.4849 0.11547 0.11311 0.23092 0.22624 0.34636 0.33938l0.0115-7e-3c5.5749 5.3754 13.955 8.5787 25.566 8.2961 11.21-0.27281 27.5-3.9749 47.297-14.496 7.4489-3.9559 15.752-9.2328 24.299-16.175 2.9212-2.3727 5.7435-4.8958 8.4543-7.5578 10.621-10.418 18.708-22.874 24.037-35.989 6.551-16.456 7.7613-32.212 6.3628-45.313v-1e-5c-1.8042-16.081-7.2315-28.173-11.42-35.655-4.2922-7.6674-7.655-11.47-7.655-11.47-8e-3 -0.12495-2.6532 4.4818-6.9379 11.449-4.1741 6.7868-10.556 16.824-17.974 25.626l-1e-5 1e-5c-6.0815 7.2154-12.883 13.993-20.052 19.755-5.8295 4.847-11.715 9.1-18.446 14.494-1.7087 1.3705-3.5064 2.8073-5.32 4.2725l8e-5 -3.7e-4z" fill="url(#i)"/>
     <path d="m434.51 321.99c-6.6357 7.9502-13.297 14.789-19.347 20.575-17.124 16.68-23.717 20.55-34.869 32.764-8.3788 9.176-12.853 17.277-13.227 25.238 24.505-6.5458 48.082-17.009 68.559-32.118 22.682-16.698 41.322-39.281 53.625-65.159 6.8784-14.449 11.825-29.798 15.135-45.597-0.26754 1.8976-0.55879 3.792-0.87435 5.6825 7e-3 -0.0449 0.0146-0.0898 0.0218-0.13467-2.8076 13.986-6.9434 27.67-12.64 40.763-11.544 26.532-29.676 50.163-52.375 68.103h-2e-5c-22.616 17.874-49.341 30.196-77.186 37.648-29.791 7.9732-60.896 10.568-91.699 9.1104 0.13555 3.9486 0.28193 7.8976 0.43918 11.847 31.574 0.12476 63.252-3.9579 93.302-13.332 2.7172-0.84617 5.4209-1.7386 8.1085-2.6768 0.10594 0.12932 0.21195 0.25859 0.31808 0.3878l0.0172-6e-3c4.9504 5.9018 14.541 10.117 29.576 9.4024 14.483-0.68831 36.373-6.354 60.454-22.869 10.77-7.5018 21.911-17.316 32.335-29.794 13.956-16.705 23.168-35.508 28.305-54.078 9.3016-34.904 4.4203-64.942-1.4758-84.292-5.9871-19.649-12.898-29.921-12.898-29.921-0.0128-0.39977-5.5141 11.512-13.943 28.029-8.5564 16.768-20.421 38.679-34.928 58.674-7.5056 10.553-15.9 21.168-24.733 31.752l3e-4 -2.5e-4z" fill="url(#k)"/>
     <path d="m330.26 76.416c0.31522-0.90633-8.5425 23.822-7.8981 21.979-5.6252 16.174-9.0954 28.369-9.4541 39.729-0.34282 10.858 2.4123 18.916 7.6845 24.554 11.028-16.499 22.067-32.7 31.377-49.827 5.1479-9.4645 9.7667-19.207 13.491-29.3 3.8117-10.327 6.6887-21.039 8.3813-31.987v-8e-6c1.835-11.856 2.2792-23.989 1.4375-36.082-0.0143-0.2049-0.0289-0.40978-0.0439-0.61464 0.0328 0.20279 0.0652 0.40564 0.0973 0.60858 0.19599 1.2405 0.37846 2.4838 0.54722 3.7296l-0.0145-0.1031c0.99702 10.86 0.95165 21.818-0.2407 32.657-1.2244 11.13-3.655 22.117-7.0658 32.782l-1e-5 8e-6c-3.3327 10.421-7.584 20.533-12.385 30.363-9.7657 19.994-21.722 38.821-33.212 57.875-11.931 19.786-23.406 39.953-31.944 61.422 3.7498 1.2269 1.9402 17.278 5.6813 18.527 6.8812-20.711 22.462-55.704 33.08-75.839 1.1628-2.1976 2.3339-4.397 3.5093-6.5995 0.1564 0.04 0.31275 0.0801 0.46914 0.12015l6e-3 -0.012c7.2714 1.7998 15.771 0.50906 25.159-5.2197 9.1465-5.5811 20.323-16.218 31.026-33.783 4.84-7.9783 9.6867-17.788 13.737-29.394 0.65209-1.8683 1.2582-3.7522 1.8172-5.6495 4.0312-13.719 5.3005-27.649 4.3848-40.827-1.2041-16.707-5.9212-31.11-11.728-42.641v-5e-6c-6.9514-13.746-15.339-23.403-21.474-29.419-6.2158-6.0938-10.446-8.915-10.446-8.915-0.0289-0.08777-1.5174 4.9559-3.8388 12.863-2.2694 7.7298-5.6432 19.165-9.649 30.629v7e-6c-3.4798 9.9621-7.2318 19.699-11.45 29.948-3.199 7.8613-6.63 16.109-9.7347 24.727-0.43615 1.2171-0.87242 2.4505-1.3068 3.7006l-3e-5 -3.3e-4z" fill="url(#h)"/>
     <path d="m139.35 244.83c1.7496 9.0006 3.6808 17.334 5.9038 25.225 6.9455 25.734 17.173 43.952 27.672 55.041 10.437 11.023 20.392 14.34 28.42 12.904-12.096-23.928-18.478-49.716-23.085-75.223l-1e-5 -1e-5c-4.941-27.15-8.0158-54.324-13.762-81.029v-1e-5c-2.1772-10.117-4.7414-20.167-7.977-30.021 0.6526 1.5796 1.288 3.1671 1.9072 4.7618 0 1e-5 -0.0447-0.11326-0.0447-0.11324 2.8497 8.2252 5.2689 16.603 7.4152 25.041 6.7512 26.54 10.859 53.674 16.751 80.414 5.7854 26.256 13.348 52.461 26.865 75.702l1e-5 1e-5c6.8461 11.771 15.218 22.672 25 32.147 10.871 10.531 23.427 19.266 36.858 26.244 1.5605-3.6268 3.1386-7.2456 4.7343-10.856-12.579-5.8248-24.452-13.222-34.862-22.338-9.5609-8.338-17.981-18.209-25.063-29.075v-1e-5c-0.62902-0.95941-1.2473-1.9267-1.8551-2.9015 0.1094-0.12053 0.21889-0.24093 0.32847-0.36121l-8e-3 -0.0126c5.3742-6.0042 8.229-14.747 9.0511-26.651 0.78092-11.307-0.18549-28.348-3.7928-50.11-1.0708-6.9999-2.4299-15.053-4.0901-23.615-3.8656-19.935-10.315-39.061-19.04-56.444h-1e-5c-7.525-15.02-16.387-27.584-25.516-37.574-9.6762-10.61-19.021-17.378-25.884-21.492-6.8168-4.0851-11.028-5.5777-11.028-5.5777-0.0582-0.0794 0.4381 4.5572 0.87434 11.957 0.48603 8.2445 0.71926 17.132 0.53482 29.932-0.0896 6.5307-0.7832 29.037-0.79404 38.487v1e-5c-0.0212 16.246 0.58036 35.436 4.4879 55.538l-3e-5 -4.5e-4z" fill="url(#j)"/>
     <path d="m243.24 606.69-40.212 11.782c-3.5203-13.86-5.4043-28.129-5.5044-42.44-0.0694-13.352 1.3975-26.502 4.1238-39.222 5.4913-25.186 15.234-48.194 26.035-69.7 10.957-21.972 22.881-42.693 33.24-63.731 10.244-20.915 19.16-42.215 23.659-64.428 7.0801-34.245 6.3057-70.441 2.8889-106.36-3.4399-35.873-9.4887-71.811-12.489-107.94 5.9848 35.753 14.945 70.818 21.428 106.7 6.5203 35.946 10.389 73.057 6.0069 110.45v1e-5c-3.0205 24.789-10.576 48.623-19.544 71.258-8.9727 22.784-19.205 44.588-27.859 66.314l-1e-5 1e-5c-8.4118 21.303-15.531 42.54-18.095 63.581-1.3329 10.573-1.6315 21.138-0.68293 31.406 0.99061 10.996 3.4033 21.878 7.0053 32.326z" fill="url(#g)"/>
    </g>
    <g transform="matrix(.68603 0 0 .68603 101.23 239.01)">
     <path d="m312.44 715.68c-4.9168 0.29714-11.982 9.3832-13.046 10.363-2.2435 2.0656-5.2895-3.0596-6.8901-1.5859-1.0595 0.97547-1.1818 16.357-5.1676 12.688-1.4304-1.317-11.994-11.132-15.505-9.5156-0.42698 0.19656-4.1958 6.3438-5.1676 6.3438-2.2782 0-4.2436-10.251-5.1676-11.102-2.1301-1.9612-0.73651 12.688-3.4472 12.688-1.284 0-0.57405-2.6432-1.7225-3.1719-1.5915-0.73267-3.4088-0.7763-5.1676-1.5859-7.761-3.5728-3.8742 13.48-5.1676 15.861-1.2631 2.3258-5.8039 0.98601-8.7102-0.60547-7e-3 0.22608 5e-3 0.43911 0.0955 0.60547 1.1496 2.117 12.049 7.9414 6.8922 12.689-4.1162 3.7898-20.453-4.7598-20.672-4.7598-0.83147 0 0.91176 8.6781 0 9.5176-0.45652 0.4203-5.8856 3.6353-6.8922 3.1719-3.6022-1.6583-8.5934-15.879-12.058-12.689-1.4356 1.3218 1.4356 6.6099 0 7.9316-0.86135 0.79306-4.3084-0.79305-5.1697 0-4.3526 4.0074 5.4882 12.689-5.1676 12.689-0.76632 0-5.821 0.49215-6.8901 0-19.018-8.7551-1.4758-13.368-10.337-17.447-1.1853-0.54567-8.7653-6.0646-10.335-3.1738-2.9114 5.3611 6.3118 11.636-1.7246 19.035-1.4356 1.3218-7.177-1.3218-8.6126 0-2.5106 2.3116 7.5414 11.102-1.7225 11.102-6.0107 0-11.184-7.5398-17.227-4.7578-1.5316 0.70507-6.651 6.5639-8.6126 4.7578-1.9184-1.7663 3.3419-14.227-3.4472-11.102-4.5496 2.0944-1.5342 7.843-5.1676 9.5156-3.0105 1.3859-0.64353-1.5859-3.4451-1.5859-0.51379 0 0.71493 12.031 0 12.689-3.8859 3.5777-6.9347 0.77244-8.6126 0-7.3372-3.3777-6.5731 4.7578-6.8922 4.7578-2.8445 0-7.6856-5.124-10.335-6.3438-6.6675-3.0694-10.11 17.381-12.06 20.619 0 0.94924 0.79111 3.5668 1.6228 6.3438h363.92c0.0125-0.0477 0.0243-0.0956 0.0361-0.14258 0.0175 0.0477 0.0348 0.0937 0.053 0.14258h9.9194c1.475-1.358 1.6946-0.73121 1.7119 0h0.83792c0.23591-0.39923 0.50641-0.86998 0.89521-1.5859 1.5189-2.7969 1.4647-0.87007 1.6589 1.5859h19.378c0.0859-2.0715-0.36486-5.438-0.36486-6.3438 0-2.6154 1.398-9.667-1.7225-11.104-1.2808-0.58959-6.9938 0.31877-10.136 1.459 0.92429-1.0536 1.78-2.3296 1.521-3.0449-1.8177-5.0208-7.0524-3.3213-10.335-6.3438-0.90796-0.83596-0.65415-2.5161-1.7225-3.1719-3.5062-2.1521-8.8968-0.22233-12.053 1.7871-2e-3 -0.0607-7e-3 -0.14788-7e-3 -0.20117 0-9.5797-6.7377-16.103-8.2923-9.5742-0.0378-0.62139-0.13153-1.1817-0.32032-1.5293-1.2066-2.2218-4.9685-4.5725-6.8922-6.3438-6.4189-5.9099-9.0363 3.1719-13.782 3.1719-0.15758 0 0.23959-10.883 0-11.104-3.2934-3.0322-8.6379 3.1719-10.335 3.1719-0.16239 0-1.1294-8.9696-3.445-11.102-1.8041-1.661-1.8206 4.8585-1.7586 7.9062-0.81889-0.69815-2.2782 0.0234-3.4111 0.0234-2.6719 0-9.4416 1.1746-6.8901 0 9.0828-4.1813-6.1029-11.102-8.6126-11.102 2.1705-0.99919 7.6303-7.2502 5.1676-9.5176-2.2852-2.1039-8.9346 1.5859-10.337 1.5859-2.9281 0 0.34792-6.0234-1.7225-7.9297-2.8915-2.6622-4.2399 8.6616-5.1676 9.5156-3.2155 2.9605-1.187-7.9297-1.7225-7.9297-0.22783 0-8.6197 14.269-15.505 7.9297-2.4849-2.2879 1.6346-11.265 0-14.275-1.1324-2.0852-6.3948-5.4316-6.8901-6.3438-0.51362-0.94578 0.63706-2.2921 0-3.1719-3.9996-5.5237-10.819 2.1426-11.899 5.5449 0.38241-1.9039 1.5134-8.7609-0.16122-10.303-3.4859-3.2095-9.6464 8.5639-12.058 6.3438-1.2182-1.1216 0.54476-3.2531 0-4.7578-0.61144-1.6889-4.6304-5.8492-5.1697-6.3457-0.71149-0.65506-1.5481-0.90072-2.4586-0.8457zm-75.159 30.377c0.0324-1.062 0.72832-2.5664-1.6271-2.5664-1.8516 0-0.58376 1.3558 1.6271 2.5664z" fill="url(#a)"/>
    </g>
    <g transform="matrix(-.68603 0 0 .68603 642.19 239.01)">
     <path d="m312.44 715.68c-4.9168 0.29714-11.982 9.3832-13.046 10.363-2.2435 2.0656-5.2895-3.0596-6.8901-1.5859-1.0595 0.97547-1.1818 16.357-5.1676 12.688-1.4304-1.317-11.994-11.132-15.505-9.5156-0.42698 0.19656-4.1958 6.3438-5.1676 6.3438-2.2782 0-4.2436-10.251-5.1676-11.102-2.1301-1.9612-0.73651 12.688-3.4472 12.688-1.284 0-0.57405-2.6432-1.7225-3.1719-1.5915-0.73267-3.4088-0.7763-5.1676-1.5859-7.761-3.5728-3.8742 13.48-5.1676 15.861-1.2631 2.3258-5.8039 0.98601-8.7102-0.60547-7e-3 0.22608 5e-3 0.43911 0.0955 0.60547 1.1496 2.117 12.049 7.9414 6.8922 12.689-4.1162 3.7898-20.453-4.7598-20.672-4.7598-0.83147 0 0.91176 8.6781 0 9.5176-0.45652 0.4203-5.8856 3.6353-6.8922 3.1719-3.6022-1.6583-8.5934-15.879-12.058-12.689-1.4356 1.3218 1.4356 6.6099 0 7.9316-0.86135 0.79306-4.3084-0.79305-5.1697 0-4.3526 4.0074 5.4882 12.689-5.1676 12.689-0.76632 0-5.821 0.49215-6.8901 0-19.018-8.7551-1.4758-13.368-10.337-17.447-1.1853-0.54567-8.7653-6.0646-10.335-3.1738-2.9114 5.3611 6.3118 11.636-1.7246 19.035-1.4356 1.3218-7.177-1.3218-8.6126 0-2.5106 2.3116 7.5414 11.102-1.7225 11.102-6.0107 0-11.184-7.5398-17.227-4.7578-1.5316 0.70507-6.651 6.5639-8.6126 4.7578-1.9184-1.7663 3.3419-14.227-3.4472-11.102-4.5496 2.0944-1.5342 7.843-5.1676 9.5156-3.0105 1.3859-0.64353-1.5859-3.4451-1.5859-0.51379 0 0.71493 12.031 0 12.689-3.8859 3.5777-6.9347 0.77244-8.6126 0-7.3372-3.3777-6.5731 4.7578-6.8922 4.7578-2.8445 0-7.6856-5.124-10.335-6.3438-6.6675-3.0694-10.11 17.381-12.06 20.619 0 0.94924 0.79111 3.5668 1.6228 6.3438h363.92c0.0125-0.0477 0.0243-0.0956 0.0361-0.14258 0.0175 0.0477 0.0348 0.0937 0.053 0.14258h9.9194c1.475-1.358 1.6946-0.73121 1.7119 0h0.83792c0.23591-0.39923 0.50641-0.86998 0.89521-1.5859 1.5189-2.7969 1.4647-0.87007 1.6589 1.5859h19.378c0.0859-2.0715-0.36486-5.438-0.36486-6.3438 0-2.6154 1.398-9.667-1.7225-11.104-1.2808-0.58959-6.9938 0.31877-10.136 1.459 0.92429-1.0536 1.78-2.3296 1.521-3.0449-1.8177-5.0208-7.0524-3.3213-10.335-6.3438-0.90796-0.83596-0.65415-2.5161-1.7225-3.1719-3.5062-2.1521-8.8968-0.22233-12.053 1.7871-2e-3 -0.0607-7e-3 -0.14788-7e-3 -0.20117 0-9.5797-6.7377-16.103-8.2923-9.5742-0.0378-0.62139-0.13153-1.1817-0.32032-1.5293-1.2066-2.2218-4.9685-4.5725-6.8922-6.3438-6.4189-5.9099-9.0363 3.1719-13.782 3.1719-0.15758 0 0.23959-10.883 0-11.104-3.2934-3.0322-8.6379 3.1719-10.335 3.1719-0.16239 0-1.1294-8.9696-3.445-11.102-1.8041-1.661-1.8206 4.8585-1.7586 7.9062-0.81889-0.69815-2.2782 0.0234-3.4111 0.0234-2.6719 0-9.4416 1.1746-6.8901 0 9.0828-4.1813-6.1029-11.102-8.6126-11.102 2.1705-0.99919 7.6303-7.2502 5.1676-9.5176-2.2852-2.1039-8.9346 1.5859-10.337 1.5859-2.9281 0 0.34792-6.0234-1.7225-7.9297-2.8915-2.6622-4.2399 8.6616-5.1676 9.5156-3.2155 2.9605-1.187-7.9297-1.7225-7.9297-0.22783 0-8.6197 14.269-15.505 7.9297-2.4849-2.2879 1.6346-11.265 0-14.275-1.1324-2.0852-6.3948-5.4316-6.8901-6.3438-0.51362-0.94578 0.63706-2.2921 0-3.1719-3.9996-5.5237-10.819 2.1426-11.899 5.5449 0.38241-1.9039 1.5134-8.7609-0.16122-10.303-3.4859-3.2095-9.6464 8.5639-12.058 6.3438-1.2182-1.1216 0.54476-3.2531 0-4.7578-0.61144-1.6889-4.6304-5.8492-5.1697-6.3457-0.71149-0.65506-1.5481-0.90072-2.4586-0.8457zm-75.159 30.377c0.0324-1.062 0.72832-2.5664-1.6271-2.5664-1.8516 0-0.58376 1.3558 1.6271 2.5664z" fill="url(#a)"/>
    </g>
   </g>
  </g>
 </g>
</svg>
